<svg width="592" height="562" viewBox="0 0 592 562" fill="none" xmlns="http://www.w3.org/2000/svg">
<path d="M484.637 418.806C483.582 426.709 483.207 444.586 490.148 452.871C492.336 452.112 496.135 447.975 493.83 437.51C496.148 441.507 502.313 448.717 508.428 445.577C516.072 441.653 520.296 434.244 513.625 426.031C506.955 417.818 494.327 404.157 484.637 418.806Z" fill="white" stroke="black" stroke-width="2.79466" stroke-linecap="round"/>
<path d="M227.399 392.56C211.519 381.419 177.028 352.702 166.107 326.957C152.455 294.777 156.113 259.586 189.274 256.616C222.435 253.646 253.227 282.193 270.757 319.822C288.287 357.451 306.259 445.637 227.399 392.56Z" fill="#E0F6FF" stroke="black" stroke-width="2.79466" stroke-linecap="round"/>
<path fill-rule="evenodd" clip-rule="evenodd" d="M122.062 448.352C130.828 448.759 140.033 447.658 149.249 445.547C119.007 410.695 161.849 341.699 187.051 311.557C166.995 306.724 146.51 304.309 131.223 304.163C74.2035 303.62 27.7101 326.55 25.8196 372.691C23.9292 418.832 73.5456 446.098 122.062 448.352Z" fill="#E0F6FF"/>
<path d="M187.051 311.557C241.804 324.754 293.352 355.982 227.156 408.292C212.556 419.211 180.838 438.313 149.249 445.547C119.007 410.695 161.849 341.699 187.051 311.557Z" fill="#AED5E4"/>
<path d="M227.156 408.292C208.296 422.397 160.875 450.154 122.062 448.352C73.5456 446.098 23.9292 418.832 25.8196 372.691C27.7101 326.55 74.2035 303.62 131.223 304.163C188.243 304.706 317.599 336.821 227.156 408.292Z" stroke="black" stroke-width="2.79466" stroke-linecap="round"/>
<path d="M315.558 558.975C276.677 555.652 238.325 549.283 214.398 528.687C207.261 522.544 198.782 514.014 190.764 503.561C185.257 496.382 179.967 488.296 175.481 479.454C163.363 455.576 157.1 426.188 168.209 394.267C168.813 423.183 193.474 475.586 241.39 515.271C279.722 547.018 321.246 558.177 337.216 559.788C329.845 559.858 322.595 559.576 315.558 558.975Z" fill="#303030"/>
<path d="M377.073 459.777C435.363 465.521 482.966 438.561 499.482 424.363C499.452 443.353 494.848 463.514 485.535 482.055C470.388 490.229 427.172 506.579 375.477 506.579C310.859 506.579 255.449 477.86 233.211 452.331C210.972 426.803 186.114 391.438 190.782 354.731C196.488 347.64 203.182 340.489 210.972 333.307C211.337 345.912 229.195 382.661 245.709 403.402C262.223 424.144 304.211 452.597 377.073 459.777Z" fill="#303030"/>
<path fill-rule="evenodd" clip-rule="evenodd" d="M443.069 530.201C411.843 550.796 373.085 559.45 337.216 559.788C321.246 558.177 279.722 547.018 241.39 515.271C193.474 475.586 168.813 423.183 168.209 394.267C172.676 381.433 179.951 368.19 190.782 354.731C186.114 391.438 210.972 426.803 233.211 452.331C255.449 477.86 310.859 506.579 375.477 506.579C427.172 506.579 470.388 490.229 485.535 482.055C476.179 500.679 462.071 517.67 443.069 530.201ZM224.56 321.655C219.7 325.545 215.176 329.431 210.972 333.307C211.337 345.912 229.195 382.661 245.709 403.402C262.223 424.144 304.211 452.597 377.073 459.777C435.363 465.521 482.966 438.561 499.482 424.363C499.508 408.443 496.32 393.344 490 380.71C472.213 395.72 421.109 422.442 358.99 409.253C281.342 392.766 245.958 356.646 224.56 321.655ZM265.29 295.574C351.264 254.343 424.726 304.696 463.396 345.625C449.166 358.188 409.3 379.545 363.677 364.469C306.649 345.625 275.667 313.692 265.29 295.574Z" fill="url(#paint0_linear_21_5026)"/>
<path d="M485.535 372.986C487.165 375.438 488.654 378.019 490 380.71C472.213 395.72 421.109 422.442 358.99 409.253C281.342 392.766 245.958 356.646 224.56 321.655C226.072 320.445 227.617 319.234 229.195 318.023C241.424 308.636 253.475 301.24 265.29 295.574C275.667 313.692 306.649 345.625 363.677 364.469C409.3 379.545 449.166 358.188 463.396 345.625C473.068 355.862 480.564 365.509 485.535 372.986Z" fill="#303030"/>
<path d="M136.899 506.579C152.41 504.638 169.083 487.687 175.481 479.454C179.967 488.296 185.257 496.382 190.764 503.561C176.826 513.777 149.046 509.83 136.899 506.579Z" fill="#303030"/>
<path d="M499.482 424.363C482.966 438.561 435.363 465.521 377.073 459.777C304.211 452.597 262.223 424.144 245.709 403.402C229.195 382.661 211.337 345.912 210.972 333.307M499.482 424.363C499.452 443.353 494.848 463.514 485.535 482.055M499.482 424.363C499.508 408.443 496.32 393.344 490 380.71M210.972 333.307C203.182 340.489 196.488 347.64 190.782 354.731M210.972 333.307C215.176 329.431 219.7 325.545 224.56 321.655M485.535 482.055C476.179 500.679 462.071 517.67 443.069 530.201C411.843 550.796 373.085 559.45 337.216 559.788M485.535 482.055C470.388 490.229 427.172 506.579 375.477 506.579C310.859 506.579 255.449 477.86 233.211 452.331C210.972 426.803 186.114 391.438 190.782 354.731M190.782 354.731C179.951 368.19 172.676 381.433 168.209 394.267M490 380.71C488.654 378.018 487.165 375.438 485.535 372.986C480.564 365.509 473.068 355.862 463.396 345.625M490 380.71C472.213 395.72 421.109 422.442 358.99 409.253C281.342 392.766 245.958 356.646 224.56 321.655M224.56 321.655C226.072 320.445 227.617 319.234 229.195 318.023C241.424 308.636 253.475 301.24 265.29 295.574M337.216 559.788C329.845 559.858 322.595 559.576 315.558 558.975C276.677 555.652 238.325 549.283 214.398 528.687C207.261 522.544 198.782 514.014 190.764 503.561M337.216 559.788C321.246 558.177 279.722 547.018 241.39 515.271C193.474 475.586 168.813 423.183 168.209 394.267M168.209 394.267C157.1 426.188 163.363 455.576 175.481 479.454M463.396 345.625C449.166 358.188 409.3 379.545 363.677 364.469C306.649 345.625 275.667 313.692 265.29 295.574M463.396 345.625C424.726 304.696 351.264 254.343 265.29 295.574M175.481 479.454C169.083 487.687 152.41 504.638 136.899 506.579C149.046 509.83 176.826 513.777 190.764 503.561M175.481 479.454C179.967 488.296 185.257 496.382 190.764 503.561" stroke="black" stroke-width="2.79466" stroke-linecap="round"/>
<path d="M290.71 420.368C295.588 426.675 304.88 441.952 303.032 452.601C300.758 453.042 295.397 451.369 292.14 441.16C292.14 445.781 290.424 455.11 283.559 455.462C274.978 455.902 267.608 451.611 269.258 441.16C270.908 430.709 274.979 412.557 290.71 420.368Z" fill="white" stroke="black" stroke-width="2.79466" stroke-linecap="round"/>
<g opacity="0.4">
<path d="M224.559 321.667C226.072 320.457 227.616 319.246 229.194 318.035C241.424 308.648 253.474 301.252 265.289 295.586C351.263 254.355 424.725 304.708 463.396 345.637C473.068 355.874 483.642 364.221 485.534 372.998C490.809 397.474 450.816 424.226 399.255 424.226C334.803 424.226 292.776 415.124 210.971 333.319C215.176 329.443 219.699 325.557 224.559 321.667Z" fill="black"/>
</g>
<path d="M520.789 345.711C506.689 358.78 461.711 384.466 394.599 382.652C310.708 380.385 200.059 362.755 200.059 270.119C200.059 216.276 226.813 186.512 239.521 176.814C245.584 151.995 268.706 99.6923 312.692 89.036C353.66 79.1107 385.659 86.3365 406.227 108.837C413.263 116.535 418.961 126.019 423.223 137.216C422.849 137.882 422.639 139.913 424.787 142.706C426.26 144.62 433.031 154.508 439.222 163.61C442.063 167.788 444.782 171.8 446.81 174.799C447.545 177.283 448.756 181.849 449.438 185.75C449.779 187.696 449.987 189.476 449.94 190.749C446.885 184.13 441.422 177.334 431.655 171.3C409.38 157.538 376.728 157.002 347.994 167.451C319.261 177.899 314.69 190.47 307.18 195.531C303.401 198.078 299.304 201.084 294.476 203.019C294.993 211.131 298.438 229.826 308.082 239.71C320.136 252.066 338.82 268.037 369.708 268.037C400.597 268.037 423.667 264.816 447.616 237.346C451.751 240.743 487.344 263.191 512.745 263.191C533.067 263.191 548.169 259.4 553.18 257.504C557.429 263.01 565.677 276.537 564.671 286.592C556.276 291.787 531.77 303.197 500.91 307.275C462.334 312.373 414.581 309.484 390.96 304.726C367.338 299.968 325.194 278.556 314.318 277.706C303.441 276.856 291.716 280.255 290.866 291.131C290.016 302.007 293.415 313.563 314.318 323.419C335.22 333.276 386.371 347.55 435.823 349.25C475.385 350.609 508.951 347.457 520.789 345.711Z" fill="url(#paint1_linear_21_5026)"/>
<path d="M564.671 286.592C567.604 287.549 573.469 291.332 573.469 298.801C573.469 306.271 563.774 311.729 558.926 313.525C561.438 319.123 562.751 331.783 547.91 337.641C533.069 343.499 523.646 345.462 520.789 345.711C508.951 347.457 475.385 350.609 435.823 349.25C386.371 347.55 335.22 333.276 314.318 323.419C293.415 313.563 290.016 302.007 290.866 291.131C291.716 280.255 303.441 276.856 314.318 277.706C325.194 278.556 367.338 299.968 390.96 304.726C414.581 309.484 462.334 312.373 500.91 307.275C531.77 303.197 556.276 291.787 564.671 286.592Z" fill="#E49395"/>
<path d="M453.819 213.334C453.819 221.77 449.684 232.857 447.616 237.346C423.667 264.816 400.597 268.037 369.708 268.037C338.82 268.037 320.136 252.066 308.082 239.71C298.438 229.826 294.993 211.131 294.476 203.019C299.304 201.084 303.401 198.078 307.18 195.531C314.69 190.47 319.261 177.899 347.994 167.451C376.728 157.002 409.38 157.538 431.655 171.3C441.422 177.334 446.885 184.13 449.94 190.749C453.82 199.151 453.819 207.268 453.819 213.177V213.334Z" fill="white"/>
<path d="M590.168 213.334C590.168 239.477 565.509 253.673 553.18 257.504C548.169 259.4 533.067 263.191 512.745 263.191C487.344 263.191 451.751 240.743 447.616 237.346C449.684 232.857 453.819 221.77 453.819 213.334V213.177C453.819 207.268 453.82 199.151 449.94 190.749C449.987 189.476 449.779 187.696 449.438 185.75C459.752 177.221 486.1 160.163 508.982 160.163C537.584 160.163 558.654 155.375 586.389 188.654C588.635 195.708 590.168 203.995 590.168 213.334Z" fill="white"/>
<path d="M513.413 150.091C547.79 150.091 566.89 159.104 572.144 163.61C576.005 167.262 582.35 175.962 586.389 188.654C558.654 155.375 537.584 160.163 508.982 160.163C486.1 160.163 459.752 177.221 449.438 185.75C448.756 181.849 447.545 177.283 446.81 174.799C454.687 166.563 479.037 150.091 513.413 150.091Z" fill="url(#paint2_linear_21_5026)"/>
<path d="M526.622 131.283C536.874 133.97 560.332 144.197 572.144 163.61C566.89 159.104 547.79 150.091 513.413 150.091C479.037 150.091 454.687 166.563 446.81 174.799C444.782 171.8 442.063 167.788 439.222 163.61C433.031 154.508 426.26 144.62 424.787 142.706C434.861 137.743 461.668 127.817 488.303 127.817C514.938 127.817 524.947 130.128 526.622 131.283Z" fill="url(#paint3_linear_21_5026)"/>
<path d="M423.223 137.216C418.961 126.019 413.263 116.535 406.227 108.837C412.093 101.188 431.702 85.8886 463.214 85.8886C502.604 85.8886 526.622 115.671 526.622 131.283C524.947 130.128 514.938 127.817 488.303 127.817C461.668 127.817 434.861 137.743 424.787 142.706C422.639 139.913 422.849 137.882 423.223 137.216Z" fill="url(#paint4_linear_21_5026)"/>
<path d="M520.789 345.711C506.689 358.78 461.711 384.466 394.599 382.652C310.708 380.385 200.059 362.755 200.059 270.119C200.059 216.276 226.813 186.512 239.521 176.814M520.789 345.711C523.646 345.462 533.069 343.499 547.91 337.641C562.751 331.783 561.438 319.123 558.926 313.525M520.789 345.711C508.951 347.457 475.385 350.609 435.823 349.25C386.371 347.55 335.22 333.276 314.318 323.419C293.415 313.563 290.016 302.007 290.866 291.131C291.716 280.255 303.442 276.856 314.318 277.706C325.194 278.556 367.338 299.968 390.96 304.726C414.581 309.484 462.334 312.373 500.91 307.275C531.77 303.197 556.276 291.787 564.671 286.592M239.521 176.814C237.652 184.992 236.502 197.691 236.16 203.019M239.521 176.814C245.584 151.995 268.706 99.6923 312.692 89.036C353.66 79.1107 385.659 86.3365 406.227 108.837M406.227 108.837C413.263 116.535 418.961 126.019 423.223 137.216C422.849 137.882 422.639 139.913 424.787 142.706M406.227 108.837C412.093 101.188 431.702 85.8886 463.214 85.8886C502.604 85.8886 526.622 115.671 526.622 131.283M526.622 131.283C536.874 133.97 560.332 144.197 572.144 163.61M526.622 131.283C524.947 130.128 514.938 127.817 488.303 127.817C461.668 127.817 434.861 137.743 424.787 142.706M572.144 163.61C566.89 159.104 547.79 150.091 513.413 150.091C479.037 150.091 454.687 166.563 446.81 174.799M572.144 163.61C576.005 167.262 582.35 175.962 586.389 188.654M553.18 257.504C565.509 253.673 590.168 239.477 590.168 213.334C590.168 203.995 588.635 195.708 586.389 188.654M553.18 257.504C557.429 263.01 565.677 276.537 564.671 286.592M553.18 257.504C548.169 259.4 533.067 263.191 512.745 263.191C487.344 263.191 451.751 240.743 447.616 237.346M564.671 286.592C567.604 287.549 573.469 291.332 573.469 298.801C573.469 306.271 563.774 311.729 558.926 313.525M558.926 313.525C547.064 319.089 510.732 330.183 460.294 330.047C397.247 329.877 358.671 320.19 338.789 311.354C322.882 304.284 314.714 298.212 312.618 296.059M447.616 237.346C449.684 232.857 453.819 221.77 453.819 213.334M447.616 237.346C423.667 264.816 400.597 268.037 369.708 268.037C338.82 268.037 320.136 252.066 308.082 239.71C298.438 229.826 294.993 211.131 294.476 203.019M453.819 213.334V213.177M453.819 213.334C453.819 213.282 453.819 213.23 453.819 213.177M277.645 204.151C284.232 205.797 289.71 204.93 294.476 203.019M294.476 203.019C299.304 201.084 303.401 198.078 307.18 195.531C314.69 190.47 319.261 177.899 347.994 167.451C376.728 157.002 409.38 157.538 431.655 171.3C441.422 177.334 446.885 184.13 449.94 190.749M446.81 174.799C447.545 177.283 448.756 181.849 449.438 185.75M446.81 174.799C444.782 171.8 442.063 167.788 439.222 163.61M449.94 190.749C449.987 189.476 449.779 187.696 449.438 185.75M449.94 190.749C453.82 199.151 453.819 207.268 453.819 213.177M449.438 185.75C459.752 177.221 486.1 160.163 508.982 160.163C537.584 160.163 558.654 155.375 586.389 188.654M424.787 142.706C419.941 138.699 405.439 129.65 386.206 125.513C362.164 120.341 334.768 119.504 302.759 142.706M424.787 142.706C426.26 144.62 433.031 154.508 439.222 163.61M439.222 163.61C432.982 158.848 412.104 149.324 378.508 149.324C336.514 149.324 294.809 186.974 287.134 192.622" stroke="black" stroke-width="2.79466" stroke-linecap="round"/>
<path d="M400.668 102.678C392.071 74.2067 366.542 15.8068 333.202 9.97789" stroke="black" stroke-width="2.79466" stroke-linecap="round"/>
<ellipse cx="9.26953" cy="5.73669" rx="9.26953" ry="5.73669" transform="matrix(-0.918151 -0.39623 -0.39623 0.918151 347.986 11.4365)" fill="black"/>
<path fill-rule="evenodd" clip-rule="evenodd" d="M531.745 243.98C506.631 253.437 480.379 245.455 473.11 226.151C465.841 206.848 480.307 183.533 505.421 174.075C530.535 164.618 556.787 172.6 564.056 191.904C571.325 211.208 556.859 234.523 531.745 243.98ZM500.01 214.761C490.612 218.3 480.789 215.313 478.069 208.09C475.349 200.867 480.762 192.142 490.16 188.603C499.557 185.064 509.381 188.051 512.101 195.275C514.821 202.498 509.408 211.223 500.01 214.761Z" fill="black"/>
<path fill-rule="evenodd" clip-rule="evenodd" d="M381.022 248.208C353.165 256.294 325.921 246.791 320.171 226.981C314.421 207.172 332.343 184.558 360.2 176.473C388.058 168.387 415.302 177.89 421.052 197.7C426.801 217.509 408.88 240.123 381.022 248.208ZM349.57 216.595C339.37 219.556 329.394 216.076 327.288 208.823C325.183 201.569 331.745 193.289 341.946 190.328C352.147 187.367 362.123 190.847 364.228 198.101C366.334 205.354 359.771 213.635 349.57 216.595Z" fill="black"/>
<path d="M407.925 105.936C413.362 88.1742 430.444 50.6701 455.271 42.7485C480.098 34.8269 494.465 37.2175 498.545 39.403" stroke="black" stroke-width="2.79466" stroke-linecap="round"/>
<ellipse cx="10.2094" cy="6.31837" rx="10.2094" ry="6.31837" transform="matrix(-0.982921 -0.184031 -0.184031 0.982921 506.465 37.4768)" fill="black"/>
<defs>
<linearGradient id="paint0_linear_21_5026" x1="318.191" y1="280.21" x2="318.191" y2="559.799" gradientUnits="userSpaceOnUse">
<stop offset="0.465" stop-color="#FFE564"/>
<stop offset="1" stop-color="#F4B92F"/>
</linearGradient>
<linearGradient id="paint1_linear_21_5026" x1="395.113" y1="84.6816" x2="395.113" y2="382.743" gradientUnits="userSpaceOnUse">
<stop offset="0.465" stop-color="#FFE564"/>
<stop offset="1" stop-color="#F4B92F"/>
</linearGradient>
<linearGradient id="paint2_linear_21_5026" x1="395.113" y1="84.6816" x2="395.113" y2="382.743" gradientUnits="userSpaceOnUse">
<stop offset="0.465" stop-color="#FFE564"/>
<stop offset="1" stop-color="#F4B92F"/>
</linearGradient>
<linearGradient id="paint3_linear_21_5026" x1="395.113" y1="84.6816" x2="395.113" y2="382.743" gradientUnits="userSpaceOnUse">
<stop offset="0.465" stop-color="#FFE564"/>
<stop offset="1" stop-color="#F4B92F"/>
</linearGradient>
<linearGradient id="paint4_linear_21_5026" x1="395.113" y1="84.6816" x2="395.113" y2="382.743" gradientUnits="userSpaceOnUse">
<stop offset="0.465" stop-color="#FFE564"/>
<stop offset="1" stop-color="#F4B92F"/>
</linearGradient>
</defs>
</svg>
