<svg width="1404" height="866" viewBox="0 0 1404 866" fill="none" xmlns="http://www.w3.org/2000/svg">
<path fill-rule="evenodd" clip-rule="evenodd" d="M416.883 502.3C425.734 511.108 436.49 518.745 448.222 525.329C449.654 459.685 560.761 427.901 616.136 420.214C599.615 395.95 580.328 373.825 564.353 359.061C504.765 303.99 433.838 283.724 387.745 330.556C341.651 377.388 367.893 453.554 416.883 502.3Z" fill="#E0F6FF"/>
<path d="M616.136 420.214C661.241 486.458 685.734 568.645 565.955 560.519C540.129 558.074 488.437 547.895 448.222 525.329C449.654 459.685 560.761 427.901 616.136 420.214Z" fill="#AED5E4"/>
<path d="M565.955 560.519C532.594 557.361 456.074 541.297 416.883 502.3C367.893 453.554 341.651 377.388 387.745 330.556C433.838 283.724 504.765 303.99 564.353 359.061C623.941 414.132 729.607 571.622 565.955 560.519Z" stroke="black" stroke-width="3" stroke-linecap="round"/>
<path fill-rule="evenodd" clip-rule="evenodd" d="M992.086 502.3C983.235 511.108 972.479 518.745 960.747 525.329C959.314 459.685 848.207 427.901 792.833 420.214C809.354 395.95 828.641 373.825 844.616 359.061C904.204 303.99 975.131 283.724 1021.22 330.556C1067.32 377.388 1041.08 453.554 992.086 502.3Z" fill="#E0F6FF"/>
<path d="M792.833 420.214C747.728 486.458 723.235 568.645 843.014 560.519C868.84 558.074 920.532 547.895 960.747 525.329C959.314 459.685 848.207 427.901 792.833 420.214Z" fill="#AED5E4"/>
<path d="M843.014 560.519C876.375 557.361 952.895 541.297 992.086 502.3C1041.08 453.554 1067.32 377.388 1021.22 330.556C975.131 283.724 904.204 303.99 844.616 359.061C785.028 414.132 679.362 571.622 843.014 560.519Z" stroke="black" stroke-width="3" stroke-linecap="round"/>
<path d="M894.535 446.102C710.011 478.807 580.336 448.417 538.564 429.133C529.205 441.941 521.798 456.783 516.693 473.846C564.63 497.46 710.595 534.383 910.955 493.161C907.617 475.536 902.04 459.892 894.535 446.102Z" fill="#303030"/>
<path d="M914.169 545.923C708.001 613.443 557.903 565.949 508.625 533.763C508.625 549.882 510.076 565.341 512.836 580.05C559.433 610.569 703.665 654.166 907.821 584.397C911.171 571.732 913.329 558.839 914.169 545.923Z" fill="#303030"/>
<path d="M711.596 361.007C638.412 361.007 574.275 380.264 538.564 429.133C580.336 448.417 710.011 478.807 894.535 446.102C861.748 385.864 792.152 361.007 711.596 361.007Z" fill="url(#paint0_linear_21_5077)"/>
<path d="M516.693 473.846C511.441 491.4 508.625 511.305 508.625 533.763C557.903 565.949 708.001 613.443 914.169 545.923C914.433 541.87 914.566 537.814 914.566 533.763C914.566 519.2 913.325 505.681 910.955 493.161C710.595 534.383 564.63 497.46 516.693 473.846Z" fill="url(#paint1_linear_21_5077)"/>
<path d="M907.821 584.397C703.665 654.166 559.433 610.569 512.836 580.05C517.896 607.007 527.357 631.445 540.353 652.805C584.935 675.607 714.61 707.531 876.658 652.805C890.77 631.753 901.45 608.485 907.821 584.397Z" fill="url(#paint2_linear_21_5077)"/>
<path d="M876.658 652.805C714.61 707.531 584.935 675.607 540.353 652.805C558.484 682.603 583.496 706.41 613.042 722.714C642.224 738.816 675.83 747.597 711.596 747.597C750.254 747.597 786.387 734.726 817.14 713.53C840.502 697.428 860.758 676.522 876.658 652.805Z" fill="#303030"/>
<path d="M510.126 532.949C510.191 511.669 512.809 492.738 517.633 475.969C567.36 499.706 712.063 535.282 909.758 494.938C911.93 506.937 913.066 519.865 913.066 533.763C913.066 537.444 912.955 541.129 912.735 544.813C708.392 611.435 559.599 564.801 510.126 532.949ZM909.2 491.99C711.439 532.357 567.131 496.466 518.5 473.058C523.409 457.098 530.363 443.137 539.06 431.007C582.234 450.422 711.151 479.925 893.729 447.768C900.694 460.799 905.941 475.501 909.2 491.99ZM711.596 362.507C791.097 362.507 859.396 386.784 892.204 444.989C711.437 476.637 583.884 447.617 540.876 428.533C576.378 381.328 639.352 362.507 711.596 362.507ZM510.139 536.508C561.914 568.787 710.188 613.652 912.515 548.039C911.608 559.85 909.596 571.636 906.574 583.237C703.96 652.25 560.847 609.313 514.193 579.143C511.681 565.554 510.292 551.319 510.139 536.508ZM514.977 583.182C564.697 613.694 706.642 653.94 905.635 586.724C899.282 609.519 889.05 631.53 875.695 651.547C714.704 705.766 585.936 674.24 541.414 651.662C529.176 631.452 520.114 608.468 514.977 583.182ZM544.404 656.445C592.815 678.944 717.806 706.759 872.901 655.64C857.501 677.695 838.275 697.141 816.289 712.295C785.754 733.341 749.912 746.097 711.596 746.097C676.078 746.097 642.722 737.378 613.767 721.4C585.926 706.038 562.14 683.959 544.404 656.445Z" stroke="black" stroke-width="3"/>
<path d="M489.546 288.466C490.123 302.438 499.522 339.391 532.508 375.425C573.74 420.468 637.839 456.849 688.08 458.235C738.32 459.621 826.674 433.981 858.897 410.074C891.12 386.166 895.278 358.447 894.239 347.36C893.199 336.272 885.923 295.041 890.081 278.409C894.239 261.778 900.797 212.378 861.652 156.973C839.37 122.947 776.437 112.408 754.756 132.582C753.896 133.503 753.039 134.48 752.193 135.492C746.533 142.262 741.394 150.598 739.315 154.34C728.706 157.586 705.223 169.48 696.162 191.091C694.795 191.656 693.735 192.155 693.028 192.556C690.813 193.81 688.605 195.876 686.69 198.034C684.41 200.603 682.542 203.303 681.564 204.92C682.073 206.564 682.292 207.709 682.321 208.366C726.366 186.923 757.317 193.489 785.937 198.034C814.556 202.58 824.993 218.909 831.896 228.337C838.798 237.764 841.323 261.67 836.946 266.384C832.569 271.097 789.964 274.063 763.897 270.153C737.83 266.243 720.887 259.588 697.137 246.548C678.137 236.115 674.482 227.688 675.03 224.779C673.676 225.479 671.585 226.363 668.835 227.286C661.108 229.88 648.179 232.783 631.806 232.783C581.29 232.606 542.761 189.568 540.01 177.909C538.254 176.229 534.345 173.613 532.76 176.586C531.51 178.93 532.811 191.661 540.01 205.925C526.211 211.128 498.47 223.381 497.893 230.773C499.992 229.167 506.14 227.117 513.939 231.757C523.688 237.557 550.836 273.85 570.21 288.466C589.585 303.083 620.169 320.854 652.686 326.817C678.7 331.589 694.883 332.468 699.722 332.311C700.857 329.583 701.535 326.696 701.511 323.721C701.383 307.874 695.249 303.785 696.91 300.207L696.942 300.138C698.638 296.483 703.895 285.157 716.974 289.983C730.138 294.839 742.917 308.002 746.879 316.82C748.755 320.997 751.384 326.121 753.462 332.311C768.126 335.604 797.713 346.175 798.756 362.108C800.06 382.025 783.57 393.05 770.066 399.097C756.562 405.143 717.548 412.375 661.354 404.432C605.161 396.489 549.479 357.38 535.534 345.163C521.59 332.947 498.719 309.118 489.546 288.466Z" fill="url(#paint3_linear_21_5077)"/>
<path d="M756.562 357.052C754.97 375.425 749.376 382.051 746.879 383.374C744.382 384.698 673.502 386.462 648.062 379.698C644.394 378.722 640.437 377.559 636.269 376.223C611.53 368.294 579.359 354.284 556.041 337.385C528.795 317.639 505.069 299.577 504.457 292.382C503.845 285.188 510.429 273.516 526.959 279.505C523.455 275.516 520.296 271.595 517.467 267.814C512.773 268.197 501.916 270.095 496.038 274.626C490.16 279.157 489.261 285.741 489.546 288.466C498.719 309.118 521.59 332.947 535.534 345.163C549.479 357.38 605.161 396.489 661.354 404.432C717.548 412.375 756.562 405.143 770.066 399.097C783.57 393.05 800.06 382.025 798.756 362.108C797.713 346.175 768.126 335.604 753.462 332.311C755.772 339.188 757.401 347.381 756.562 357.052Z" fill="#E49395"/>
<path d="M497.893 230.773C497.637 234.054 503.57 249.242 517.467 267.814C520.296 271.595 523.455 275.516 526.959 279.505C544.779 299.792 571.522 321.848 609.158 336.215C623.397 341.651 639.195 345.986 656.659 348.709C664.933 349.999 673.582 350.927 682.617 351.439C687.47 348.411 696.022 341.208 699.722 332.311C694.883 332.468 678.7 331.589 652.686 326.817C620.169 320.854 589.585 303.083 570.21 288.466C550.836 273.85 523.688 237.557 513.939 231.757C506.14 227.117 499.992 229.167 497.893 230.773Z" fill="#E49395"/>
<path d="M696.91 300.207C695.249 303.785 701.383 307.874 701.511 323.721C701.535 326.696 700.857 329.583 699.722 332.311C696.022 341.208 687.47 348.411 682.617 351.439C679.55 353.314 672.111 356.892 666.886 356.211C661.661 355.529 657.89 350.926 656.659 348.709C639.195 345.986 623.397 341.651 609.158 336.215C609.788 344.2 616.092 363.379 636.269 376.223C640.437 377.559 644.394 378.722 648.062 379.698C673.502 386.462 744.382 384.698 746.879 383.374C749.376 382.051 754.97 375.425 756.562 357.052C757.401 347.381 755.772 339.188 753.462 332.311C751.384 326.121 748.755 320.997 746.879 316.82C742.917 308.002 730.138 294.839 716.974 289.983C703.895 285.157 698.638 296.483 696.942 300.138L696.91 300.207Z" fill="#E76868"/>
<path d="M504.457 292.382C505.069 299.577 528.795 317.639 556.041 337.385C579.359 354.284 611.53 368.294 636.269 376.223C616.092 363.379 609.788 344.2 609.158 336.215C571.522 321.848 544.779 299.792 526.959 279.505C510.429 273.516 503.845 285.188 504.457 292.382Z" fill="#732426"/>
<path d="M540.01 177.909C542.761 189.568 581.29 232.606 631.806 232.783C648.179 232.783 661.108 229.88 668.835 227.286C671.585 226.363 673.676 225.479 675.03 224.779C673.991 216.007 679.458 210.182 682.321 208.366C682.292 207.709 682.073 206.564 681.564 204.92C680.287 200.788 677.185 193.504 670.714 182.891C659.408 164.35 625.039 143.849 595.946 139.628C572.672 136.252 551.616 149.347 543.997 156.317C541.143 162.461 538.397 171.075 540.01 177.909Z" fill="white"/>
<path d="M739.315 154.34C741.394 150.598 746.533 142.262 752.193 135.492C750.445 124.241 740.702 99.4659 715.714 90.3661C684.479 78.9913 634.827 69.9637 610.091 106.616C597.837 108.158 571.29 117.203 553.335 140.996C561.374 135.411 583.838 125.499 609.379 130.534C641.305 136.828 677.317 169.097 684.028 188.436C685.003 191.732 686.209 196.208 686.69 198.034C688.605 195.876 690.813 193.81 693.028 192.556C693.735 192.155 694.795 191.656 696.162 191.091C705.223 169.48 728.706 157.586 739.315 154.34Z" fill="url(#paint4_linear_21_5077)"/>
<path d="M546.96 150.783C546.096 152.162 545.039 154.075 543.997 156.317C551.616 149.347 572.672 136.252 595.946 139.628C625.039 143.849 659.408 164.35 670.714 182.891C677.185 193.504 680.287 200.788 681.564 204.92C682.542 203.303 684.41 200.603 686.69 198.034C686.209 196.208 685.003 191.732 684.028 188.436C677.317 169.097 641.305 136.828 609.379 130.534C583.838 125.499 561.374 135.411 553.335 140.996C551.056 144.016 548.915 147.273 546.96 150.783Z" fill="url(#paint5_linear_21_5077)"/>
<path d="M682.321 208.366C679.458 210.182 673.991 216.007 675.03 224.779C674.482 227.688 678.137 236.115 697.137 246.548C720.887 259.588 737.83 266.243 763.897 270.153C789.964 274.063 832.569 271.097 836.946 266.384C841.323 261.67 838.798 237.764 831.896 228.337C824.993 218.909 814.556 202.58 785.937 198.034C757.317 193.489 726.366 186.923 682.321 208.366Z" fill="white"/>
<path d="M666.886 356.211C672.111 356.892 679.55 353.314 682.617 351.439C673.582 350.927 664.933 349.999 656.659 348.709C657.89 350.926 661.661 355.529 666.886 356.211Z" fill="#732426"/>
<path d="M489.546 288.466C490.123 302.438 499.522 339.391 532.508 375.425C573.74 420.468 637.839 456.849 688.08 458.235C738.32 459.621 826.674 433.981 858.897 410.074C891.12 386.166 895.278 358.447 894.239 347.36C893.199 336.272 885.923 295.041 890.081 278.409C894.239 261.778 900.797 212.378 861.652 156.973C839.37 122.947 776.437 112.408 754.756 132.582C753.896 133.503 753.039 134.48 752.193 135.492M489.546 288.466C489.261 285.741 490.16 279.157 496.038 274.626C501.916 270.095 512.773 268.197 517.467 267.814M489.546 288.466C498.719 309.118 521.59 332.947 535.534 345.163C549.479 357.38 605.161 396.489 661.354 404.432C717.548 412.374 756.562 405.143 770.066 399.097C783.57 393.05 800.06 382.025 798.756 362.108C797.713 346.175 768.126 335.604 753.462 332.311M739.315 154.34C741.394 150.598 746.533 142.262 752.193 135.492M739.315 154.34C728.706 157.586 705.223 169.48 696.162 191.091M739.315 154.34C752.096 149.35 783.653 142.891 807.637 156.973M752.193 135.492C750.445 124.241 740.702 99.4659 715.714 90.3661C684.479 78.9913 634.827 69.9637 610.091 106.616M610.091 106.616C647.853 99.3376 675.117 118.07 684.028 128.346M610.091 106.616C597.837 108.158 571.29 117.203 553.335 140.996M540.01 177.909C542.761 189.568 581.29 232.606 631.806 232.783C648.179 232.783 661.108 229.88 668.835 227.286M540.01 177.909C538.397 171.075 541.143 162.461 543.997 156.317M540.01 177.909C538.254 176.229 534.345 173.613 532.76 176.586C531.51 178.93 532.811 191.661 540.01 205.925M675.03 224.779C673.991 216.007 679.458 210.182 682.321 208.366M675.03 224.779C674.482 227.688 678.137 236.115 697.137 246.548C720.887 259.588 737.83 266.243 763.897 270.153C789.964 274.063 832.569 271.097 836.946 266.384C841.323 261.67 838.798 237.764 831.896 228.337C824.993 218.909 814.556 202.58 785.937 198.034C757.317 193.489 726.366 186.923 682.321 208.366M675.03 224.779C673.676 225.479 671.585 226.363 668.835 227.286M543.997 156.317C545.039 154.075 546.096 152.162 546.96 150.783C548.915 147.273 551.056 144.016 553.335 140.996M543.997 156.317C551.616 149.347 572.672 136.252 595.946 139.628C625.039 143.849 659.408 164.35 670.714 182.891C677.185 193.504 680.287 200.788 681.564 204.92M682.321 208.366C682.292 207.709 682.073 206.564 681.564 204.92M630.94 259.588C599.723 260.549 583.555 251.424 559.382 230.773C550.457 223.148 544.223 214.274 540.01 205.925M681.564 204.92C682.542 203.303 684.41 200.603 686.69 198.034M843.848 234.552C841.102 227.648 833.298 211.299 824.052 201.138C812.494 188.436 788.807 182.891 759.97 180.655C734.495 178.679 706.52 186.803 696.162 191.091M553.335 140.996C561.374 135.411 583.838 125.499 609.379 130.534C641.305 136.828 677.317 169.097 684.028 188.436C685.003 191.732 686.209 196.208 686.69 198.034M686.69 198.034C688.605 195.876 690.813 193.81 693.028 192.556C693.735 192.155 694.795 191.656 696.162 191.091M668.835 227.286C667.57 230.18 668.343 239.215 681.564 252.208C698.091 268.45 718.085 291.601 756.562 300.889C787.345 308.319 806.871 306.859 812.786 305.201M540.01 205.925C526.211 211.128 498.47 223.381 497.893 230.773M497.893 230.773C497.637 234.054 503.57 249.242 517.467 267.814M497.893 230.773C499.992 229.167 506.14 227.117 513.939 231.757C523.688 237.557 550.836 273.85 570.21 288.466C589.585 303.083 620.169 320.854 652.686 326.817C678.7 331.589 694.883 332.468 699.722 332.311M682.617 351.439C679.55 353.314 672.112 356.892 666.886 356.211C661.661 355.529 657.89 350.926 656.659 348.709M682.617 351.439C673.582 350.927 664.933 349.999 656.659 348.709M682.617 351.439C687.47 348.411 696.022 341.208 699.722 332.311M696.91 300.207C695.249 303.785 701.383 307.874 701.511 323.721C701.535 326.696 700.857 329.583 699.722 332.311M696.91 300.207L696.942 300.138M696.91 300.207C696.921 300.184 696.932 300.161 696.942 300.138M526.959 279.505C510.429 273.516 503.845 285.188 504.457 292.382C505.069 299.577 528.795 317.639 556.041 337.385C579.359 354.284 611.53 368.294 636.269 376.223M526.959 279.505C523.455 275.516 520.296 271.595 517.467 267.814M526.959 279.505C544.779 299.792 571.522 321.848 609.158 336.215M656.659 348.709C639.195 345.986 623.397 341.651 609.158 336.215M609.158 336.215C609.788 344.2 616.092 363.379 636.269 376.223M636.269 376.223C640.437 377.559 644.394 378.722 648.062 379.698C673.502 386.462 744.382 384.698 746.879 383.374C749.376 382.051 754.97 375.425 756.562 357.052C757.401 347.381 755.772 339.188 753.462 332.311M703.298 371.467C704.136 370.964 740.224 355.575 728.599 310.979M753.462 332.311C751.384 326.121 748.755 320.997 746.879 316.82C742.917 308.002 730.138 294.839 716.974 289.983C703.895 285.157 698.638 296.483 696.942 300.138" stroke="black" stroke-width="3"/>
<path fill-rule="evenodd" clip-rule="evenodd" d="M624.74 232.48C644.454 222.833 656.333 205.497 652.674 188.998C648.078 168.273 620.707 156.715 591.538 163.184C571.653 167.593 556.067 179.242 549.615 192.776C563.508 208.609 591.071 229.711 624.74 232.48ZM555.564 194.241C557.247 201.83 567.269 206.062 577.95 203.693C588.631 201.325 595.925 193.252 594.242 185.663C592.559 178.074 582.537 173.843 571.856 176.211C561.175 178.58 553.881 186.652 555.564 194.241Z" fill="black"/>
<path d="M739.832 148.254C710.208 112.083 637.977 42.643 586.05 54.2496" stroke="black" stroke-width="4" stroke-linecap="round"/>
<ellipse cx="14.5722" cy="9.01839" rx="14.5722" ry="9.01839" transform="matrix(-0.999896 -0.0144172 -0.0144172 0.999896 608.363 47.4816)" fill="black"/>
<path d="M742.946 151.121C765.547 132.63 820.595 98.4685 859.977 109.756C899.36 121.044 916.068 136.699 919.499 143.115" stroke="black" stroke-width="4" stroke-linecap="round"/>
<ellipse cx="16.0498" cy="9.93282" rx="16.0498" ry="9.93282" transform="matrix(-0.715765 -0.698341 -0.698341 0.715765 931.537 147.502)" fill="black"/>
<path fill-rule="evenodd" clip-rule="evenodd" d="M787.052 271.907C803.624 261.999 813.298 247.678 810.716 233.849C806.821 212.981 776.494 201.136 742.981 207.392C716.866 212.267 696.521 226.695 690.654 242.701C692.586 243.946 694.739 245.231 697.137 246.548C720.887 259.588 737.83 266.243 763.897 270.153C770.795 271.187 778.852 271.741 787.052 271.907ZM700.177 238.304C701.603 245.945 712.708 250.282 724.98 247.992C737.252 245.701 746.044 237.649 744.618 230.008C743.191 222.366 732.086 218.029 719.814 220.32C707.543 222.611 698.751 230.662 700.177 238.304Z" fill="black"/>
<path fill-rule="evenodd" clip-rule="evenodd" d="M777.835 575.633C878.248 569.763 1169.27 570.741 1302.23 571.964L1402.48 824.364H1.51733L84.5554 575.633C141.138 578.413 315.228 576.98 419.382 576.122C452.677 575.848 478.825 575.633 491.704 575.633C506.262 575.633 524.89 576.183 546.843 576.831C605.067 578.551 686.687 580.962 777.835 575.633Z" fill="#602209"/>
<path d="M1.51733 824.364H1402.48V856.678C1402.48 860.544 1399.35 863.678 1395.48 863.678H8.51733C4.65137 863.678 1.51733 860.544 1.51733 856.678V824.364Z" fill="#30180E"/>
<path d="M1402.48 824.364L1302.23 571.964C1169.27 570.741 878.248 569.763 777.835 575.633C686.687 580.962 605.067 578.551 546.843 576.831C524.89 576.183 506.262 575.633 491.704 575.633C478.825 575.633 452.677 575.848 419.382 576.122C315.228 576.98 141.138 578.413 84.5554 575.633L1.51733 824.364M1402.48 824.364H1.51733M1402.48 824.364V856.678C1402.48 860.544 1399.35 863.678 1395.48 863.678H8.51732C4.65133 863.678 1.51733 860.544 1.51733 856.678V824.364" stroke="black" stroke-width="3"/>
<path fill-rule="evenodd" clip-rule="evenodd" d="M68.2462 629.182C240.24 618.69 483.856 623.063 707.157 627.256C712.596 627.358 718.025 627.46 723.442 627.562L723.58 627.565C840.985 629.773 952.806 631.876 1049.91 631.993C1140.78 632.102 1215.01 630.447 1267.16 625.936C1251.43 625.458 1234.01 625.027 1215.15 624.644C1079.14 621.877 884.176 621.888 745.354 622.779C721.547 622.932 691.555 618.527 678.366 612.94C665.176 607.353 673.784 602.7 697.591 602.547C837.134 601.651 1036.3 601.608 1177.98 604.489C1213.5 605.212 1246.42 606.137 1274.48 607.334C1287.7 607.898 1301.75 608.596 1315.55 609.528L1329.92 645.807C1267.5 650.823 1185.26 652.341 1094.84 652.232C994.131 652.111 878.962 649.944 762.849 647.759L762.849 647.759C756.9 647.647 750.948 647.535 744.996 647.423C540.899 643.591 337.054 640.11 184.097 646.29C294.709 648.111 444.992 649.205 602.398 650.351L602.469 650.351C618.146 650.465 633.893 650.58 649.679 650.696C846.532 652.141 1049.23 653.786 1188.78 657.21C1223.82 658.07 1255.69 659.061 1283.02 660.227C1301.57 661.02 1319.97 661.97 1336.81 663.192L1351.11 699.288C1230.79 711.138 1062.77 710.632 889.044 708.391C854.196 707.942 819.058 707.422 783.821 706.9L783.805 706.9C613.766 704.383 441.426 701.831 288.234 707.027C251.508 708.272 226.571 709.641 210.639 710.983C227.669 712.735 249.501 714.679 275.754 716.763C380.041 725.045 526.224 733.465 648.62 740.514C692.168 743.023 732.706 745.358 767.273 747.451C784.701 748.507 801.812 749.765 816.817 751.397C827.662 752.577 859.258 756.318 873.264 763.249C886.525 769.812 871.118 773.095 865.876 774.092C858.253 775.542 847.497 776.619 836.391 777.475C792.094 780.89 705.344 783.452 598.973 785.062C437.744 787.503 222.325 787.875 16.3735 784.956L22.9004 765.356C209.936 767.545 401.749 767.079 548.15 764.863C606.304 763.983 656.11 762.841 695.166 761.536C688.383 761.145 681.481 760.747 674.472 760.344L674.469 760.344C550.932 753.23 394.563 744.226 283.92 735.44C246.634 732.479 211.389 729.306 182.774 725.941C168.523 724.265 153.42 722.253 139.735 719.845C126.164 717.457 109.505 713.876 99.9534 709.366C89.9108 704.623 92.1827 700.989 98.2578 698.542C104.04 696.214 114.082 694.541 125.187 693.249C147.511 690.653 182.988 688.616 231.451 686.973C393.583 681.474 576.861 684.203 747.055 686.737L747.073 686.737C781.598 687.251 815.584 687.757 848.746 688.185C1028.96 690.51 1183.85 690.511 1288.73 679.227C1269.8 678.548 1248.18 677.914 1224.12 677.323C1089.04 674.009 890.296 672.379 692.222 670.925C676.077 670.806 659.934 670.689 643.834 670.572C463.923 669.264 289.203 667.993 173.443 665.555C141.788 664.888 113.507 664.114 90.1346 663.183C78.6366 662.725 67.593 662.2 57.4575 661.58L68.2462 629.182ZM782.862 756.557C783.93 756.354 783.548 756.352 782.753 756.578C782.792 756.571 782.828 756.564 782.862 756.557ZM179.781 707.215C179.714 707.203 179.682 707.197 179.683 707.197L179.71 707.202L179.781 707.215ZM810.284 768.718C810.237 768.717 809.798 768.669 809.054 768.573L809.144 768.583C809.981 768.674 810.331 768.719 810.284 768.718ZM1332.13 673.02C1332.12 673.019 1332.05 673.042 1331.96 673.088C1332.09 673.043 1332.14 673.02 1332.13 673.02Z" fill="#7F3A1F"/>
<path d="M867.457 703.196C867.457 733.171 842.262 757.471 741.759 757.471C641.257 757.471 530.426 733.171 530.426 703.196C530.426 673.221 611.899 648.922 712.401 648.922C812.904 648.922 867.457 673.221 867.457 703.196Z" fill="#311307" fill-opacity="0.52"/>
<path d="M610.104 610.473C610.104 617.456 594.134 623.117 530.434 623.117C466.733 623.117 396.486 617.456 396.486 610.473C396.486 603.491 448.126 597.83 511.826 597.83C575.527 597.83 610.104 603.491 610.104 610.473Z" fill="#311307" fill-opacity="0.52"/>
<path d="M1023.92 615.86C1023.92 622.843 1006.43 628.504 936.683 628.504C866.935 628.504 790.02 622.843 790.02 615.86C790.02 608.878 846.561 603.217 916.309 603.217C986.057 603.217 1023.92 608.878 1023.92 615.86Z" fill="#311307" fill-opacity="0.52"/>
<path d="M592.739 659.708C597.402 672.593 625.234 701.197 699.251 712.535C791.772 726.707 831.532 699.221 827.237 674.311C822.942 649.401 804.904 619.629 730.603 615.901C656.302 612.173 583.29 635.986 592.739 659.708Z" fill="#877F70"/>
<path fill-rule="evenodd" clip-rule="evenodd" d="M589.492 689.424C615.565 715.496 689.141 728.989 722.67 732.476C779.662 732.476 828.626 724.65 842.892 696.625C848.567 685.476 848.751 671.131 841.767 652.81C817.223 588.434 696.92 597.286 628.118 612.173C563.558 626.142 557.452 653.218 583.87 683.43C585.606 685.416 587.483 687.415 589.492 689.424ZM699.251 712.535C625.234 701.197 597.402 672.593 592.739 659.708C583.29 635.986 656.302 612.173 730.603 615.901C804.904 619.629 822.942 649.401 827.237 674.311C831.532 699.221 791.772 726.707 699.251 712.535Z" fill="#DCCFBA"/>
<path d="M722.67 732.476C689.141 728.989 615.565 715.496 589.492 689.424C587.483 687.415 585.606 685.416 583.87 683.43C587.756 694.682 600.678 718.957 621.278 726.038C647.029 734.89 750.835 755.812 793.887 744.144C828.328 734.809 840.907 708.575 842.892 696.625C828.626 724.65 779.662 732.476 722.67 732.476Z" fill="#8A7C6B"/>
<path d="M583.87 683.43C585.606 685.416 587.483 687.415 589.492 689.424C615.565 715.496 689.141 728.989 722.67 732.476C779.662 732.476 828.626 724.65 842.892 696.625M583.87 683.43C557.452 653.218 563.558 626.142 628.118 612.173C696.92 597.286 817.223 588.434 841.767 652.81C848.751 671.131 848.567 685.476 842.892 696.625M583.87 683.43C587.756 694.682 600.678 718.957 621.278 726.038C647.029 734.89 750.835 755.812 793.887 744.144C828.328 734.809 840.907 708.575 842.892 696.625M592.739 659.708C597.402 672.593 625.234 701.197 699.251 712.535C791.772 726.707 831.532 699.221 827.237 674.311C822.942 649.401 804.904 619.629 730.603 615.901C656.302 612.173 583.29 635.986 592.739 659.708Z" stroke="black" stroke-width="3"/>
<path d="M766.544 633.237L747.296 634.612L756.438 625.998C759.128 623.464 766.363 623.744 770.257 626.533C774.151 629.323 772.207 632.833 766.544 633.237Z" fill="#E46BFF"/>
<path d="M766.544 633.237L747.296 634.612L756.438 625.998C759.128 623.464 766.363 623.744 770.257 626.533C774.151 629.323 772.207 632.833 766.544 633.237Z" fill="url(#paint6_linear_21_5077)"/>
<path d="M766.544 633.237L747.296 634.612L756.438 625.998C759.128 623.464 766.363 623.744 770.257 626.533C774.151 629.323 772.207 632.833 766.544 633.237Z" stroke="#631F72" stroke-width="1.80558"/>
<path d="M725.444 636.903L744.692 635.528L735.55 644.142C732.86 646.676 725.625 646.396 721.732 643.607C717.838 640.817 719.782 637.307 725.444 636.903Z" fill="url(#paint7_linear_21_5077)" stroke="#631F72" stroke-width="1.80558"/>
<path d="M726.772 627.566L744.869 634.266L738.499 623.44C736.625 620.255 729.6 618.502 725.081 620.092C720.563 621.681 721.448 625.595 726.772 627.566Z" fill="#E46BFF"/>
<path d="M726.772 627.566L744.869 634.266L738.499 623.44C736.625 620.255 729.6 618.502 725.081 620.092C720.563 621.681 721.448 625.595 726.772 627.566Z" fill="url(#paint8_linear_21_5077)"/>
<path d="M726.772 627.566L744.869 634.266L738.499 623.44C736.625 620.255 729.6 618.502 725.081 620.092C720.563 621.681 721.448 625.595 726.772 627.566Z" stroke="#631F72" stroke-width="1.80558"/>
<path d="M765.214 642.574L747.118 635.874L753.488 646.7C755.362 649.885 762.387 651.638 766.905 650.048C771.423 648.459 770.538 644.545 765.214 642.574Z" fill="#E46BFF"/>
<path d="M765.214 642.574L747.118 635.874L753.488 646.7C755.362 649.885 762.387 651.638 766.905 650.048C771.423 648.459 770.538 644.545 765.214 642.574Z" fill="url(#paint9_linear_21_5077)"/>
<path d="M765.214 642.574L747.118 635.874L753.488 646.7C755.362 649.885 762.387 651.638 766.905 650.048C771.423 648.459 770.538 644.545 765.214 642.574Z" stroke="#631F72" stroke-width="1.80558"/>
<path d="M755.231 625.551L746.124 634.178L739.793 623.349C737.93 620.164 742.42 617.595 748.368 618.443C754.317 619.291 757.909 623.013 755.231 625.551Z" fill="#E46BFF" stroke="#631F72" stroke-width="1.80558"/>
<path d="M736.762 644.59L745.868 635.962L752.199 646.791C754.062 649.977 749.572 652.546 743.624 651.698C737.676 650.849 734.083 647.128 736.762 644.59Z" fill="#E46BFF" stroke="#631F72" stroke-width="1.80558"/>
<path d="M725.018 636.179L744.279 634.826L726.164 628.143C720.835 626.177 714.493 627.419 714.052 630.516C713.61 633.612 719.352 636.578 725.018 636.179Z" fill="#E46BFF" stroke="#631F72" stroke-width="1.80558"/>
<path d="M766.972 633.961L747.711 635.314L765.826 641.997C771.155 643.963 777.497 642.721 777.938 639.624C778.38 636.528 772.638 633.563 766.972 633.961Z" fill="#E46BFF" stroke="#631F72" stroke-width="1.80558"/>
<circle cx="7.03927" cy="7.03927" r="5.68508" transform="matrix(-0.812942 -0.582344 -0.943313 0.331905 758.354 636.833)" fill="#FFF9E1" stroke="#694424" stroke-width="2.70836"/>
<path d="M757.3 656.738L738.052 658.113L747.194 649.499C749.884 646.965 757.119 647.245 761.013 650.035C764.906 652.824 762.963 656.334 757.3 656.738Z" fill="#E46BFF"/>
<path d="M757.3 656.738L738.052 658.113L747.194 649.499C749.884 646.965 757.119 647.245 761.013 650.035C764.906 652.824 762.963 656.334 757.3 656.738Z" fill="url(#paint10_linear_21_5077)"/>
<path d="M757.3 656.738L738.052 658.113L747.194 649.499C749.884 646.965 757.119 647.245 761.013 650.035C764.906 652.824 762.963 656.334 757.3 656.738Z" stroke="#631F72" stroke-width="1.80558"/>
<path d="M716.2 660.404L735.448 659.029L726.306 667.643C723.616 670.177 716.381 669.897 712.487 667.108C708.594 664.318 710.537 660.809 716.2 660.404Z" fill="url(#paint11_linear_21_5077)" stroke="#631F72" stroke-width="1.80558"/>
<path d="M717.528 651.067L735.625 657.767L729.255 646.941C727.38 643.756 720.356 642.003 715.837 643.593C711.319 645.183 712.204 649.096 717.528 651.067Z" fill="#E46BFF"/>
<path d="M717.528 651.067L735.625 657.767L729.255 646.941C727.38 643.756 720.356 642.003 715.837 643.593C711.319 645.183 712.204 649.096 717.528 651.067Z" fill="url(#paint12_linear_21_5077)"/>
<path d="M717.528 651.067L735.625 657.767L729.255 646.941C727.38 643.756 720.356 642.003 715.837 643.593C711.319 645.183 712.204 649.096 717.528 651.067Z" stroke="#631F72" stroke-width="1.80558"/>
<path d="M755.97 666.075L737.873 659.375L744.244 670.201C746.118 673.386 753.142 675.139 757.661 673.549C762.179 671.96 761.294 668.046 755.97 666.075Z" fill="#E46BFF"/>
<path d="M755.97 666.075L737.873 659.375L744.244 670.201C746.118 673.386 753.142 675.139 757.661 673.549C762.179 671.96 761.294 668.046 755.97 666.075Z" fill="url(#paint13_linear_21_5077)"/>
<path d="M755.97 666.075L737.873 659.375L744.244 670.201C746.118 673.386 753.142 675.139 757.661 673.549C762.179 671.96 761.294 668.046 755.97 666.075Z" stroke="#631F72" stroke-width="1.80558"/>
<path d="M745.986 649.052L736.88 657.679L730.549 646.85C728.686 643.665 733.176 641.096 739.124 641.944C745.072 642.792 748.665 646.514 745.986 649.052Z" fill="#E46BFF" stroke="#631F72" stroke-width="1.80558"/>
<path d="M727.518 668.091L736.624 659.463L742.955 670.292C744.818 673.478 740.328 676.047 734.38 675.199C728.431 674.35 724.839 670.629 727.518 668.091Z" fill="#E46BFF" stroke="#631F72" stroke-width="1.80558"/>
<path d="M715.774 659.681L735.035 658.327L716.92 651.644C711.591 649.678 705.249 650.92 704.808 654.017C704.366 657.113 710.108 660.079 715.774 659.681Z" fill="#E46BFF" stroke="#631F72" stroke-width="1.80558"/>
<path d="M757.728 657.462L738.467 658.815L756.582 665.498C761.911 667.464 768.253 666.222 768.694 663.125C769.136 660.029 763.394 657.064 757.728 657.462Z" fill="#E46BFF" stroke="#631F72" stroke-width="1.80558"/>
<circle cx="7.03927" cy="7.03927" r="5.68508" transform="matrix(-0.812942 -0.582344 -0.943313 0.331905 749.109 660.334)" fill="#FFF9E1" stroke="#694424" stroke-width="2.70836"/>
<path d="M721.931 685.957L702.683 687.332L711.825 678.718C714.515 676.184 721.75 676.464 725.643 679.254C729.537 682.043 727.593 685.553 721.931 685.957Z" fill="#E46BFF"/>
<path d="M721.931 685.957L702.683 687.332L711.825 678.718C714.515 676.184 721.75 676.464 725.643 679.254C729.537 682.043 727.593 685.553 721.931 685.957Z" fill="url(#paint14_linear_21_5077)"/>
<path d="M721.931 685.957L702.683 687.332L711.825 678.718C714.515 676.184 721.75 676.464 725.643 679.254C729.537 682.043 727.593 685.553 721.931 685.957Z" stroke="#631F72" stroke-width="1.80558"/>
<path d="M680.831 689.623L700.079 688.248L690.937 696.862C688.247 699.397 681.012 699.116 677.118 696.327C673.224 693.538 675.168 690.028 680.831 689.623Z" fill="url(#paint15_linear_21_5077)" stroke="#631F72" stroke-width="1.80558"/>
<path d="M682.159 680.286L700.255 686.987L693.885 676.16C692.011 672.975 684.986 671.222 680.468 672.812C675.95 674.402 676.835 678.315 682.159 680.286Z" fill="#E46BFF"/>
<path d="M682.159 680.286L700.255 686.987L693.885 676.16C692.011 672.975 684.986 671.222 680.468 672.812C675.95 674.402 676.835 678.315 682.159 680.286Z" fill="url(#paint16_linear_21_5077)"/>
<path d="M682.159 680.286L700.255 686.987L693.885 676.16C692.011 672.975 684.986 671.222 680.468 672.812C675.95 674.402 676.835 678.315 682.159 680.286Z" stroke="#631F72" stroke-width="1.80558"/>
<path d="M720.601 695.294L702.504 688.594L708.874 699.42C710.748 702.605 717.773 704.358 722.292 702.769C726.81 701.179 725.925 697.266 720.601 695.294Z" fill="#E46BFF"/>
<path d="M720.601 695.294L702.504 688.594L708.874 699.42C710.748 702.605 717.773 704.358 722.292 702.769C726.81 701.179 725.925 697.266 720.601 695.294Z" fill="url(#paint17_linear_21_5077)"/>
<path d="M720.601 695.294L702.504 688.594L708.874 699.42C710.748 702.605 717.773 704.358 722.292 702.769C726.81 701.179 725.925 697.266 720.601 695.294Z" stroke="#631F72" stroke-width="1.80558"/>
<path d="M710.617 678.271L701.511 686.899L695.18 676.07C693.317 672.884 697.807 670.315 703.755 671.163C709.703 672.011 713.296 675.733 710.617 678.271Z" fill="#E46BFF" stroke="#631F72" stroke-width="1.80558"/>
<path d="M692.148 697.31L701.254 688.683L707.586 699.512C709.449 702.697 704.959 705.266 699.011 704.418C693.062 703.57 689.469 699.848 692.148 697.31Z" fill="#E46BFF" stroke="#631F72" stroke-width="1.80558"/>
<path d="M680.405 688.9L699.666 687.546L681.551 680.863C676.222 678.897 669.88 680.14 669.439 683.236C668.997 686.333 674.739 689.298 680.405 688.9Z" fill="#E46BFF" stroke="#631F72" stroke-width="1.80558"/>
<path d="M722.359 686.681L703.098 688.034L721.213 694.717C726.542 696.683 732.884 695.441 733.325 692.345C733.767 689.248 728.025 686.283 722.359 686.681Z" fill="#E46BFF" stroke="#631F72" stroke-width="1.80558"/>
<circle cx="7.03927" cy="7.03927" r="5.68508" transform="matrix(-0.812942 -0.582344 -0.943313 0.331905 713.74 689.554)" fill="#FFF9E1" stroke="#694424" stroke-width="2.70836"/>
<path d="M769.441 697.397L750.192 698.772L759.335 690.158C762.024 687.624 769.259 687.904 773.153 690.693C777.047 693.483 775.103 696.993 769.441 697.397Z" fill="#E46BFF"/>
<path d="M769.441 697.397L750.192 698.772L759.335 690.158C762.024 687.624 769.259 687.904 773.153 690.693C777.047 693.483 775.103 696.993 769.441 697.397Z" fill="url(#paint18_linear_21_5077)"/>
<path d="M769.441 697.397L750.192 698.772L759.335 690.158C762.024 687.624 769.259 687.904 773.153 690.693C777.047 693.483 775.103 696.993 769.441 697.397Z" stroke="#631F72" stroke-width="1.80558"/>
<path d="M728.341 701.063L747.589 699.688L738.446 708.302C735.757 710.836 728.522 710.556 724.628 707.767C720.734 704.977 722.678 701.467 728.341 701.063Z" fill="url(#paint19_linear_21_5077)" stroke="#631F72" stroke-width="1.80558"/>
<path d="M729.669 691.726L747.765 698.426L741.395 687.6C739.521 684.415 732.496 682.662 727.978 684.252C723.46 685.841 724.345 689.755 729.669 691.726Z" fill="#E46BFF"/>
<path d="M729.669 691.726L747.765 698.426L741.395 687.6C739.521 684.415 732.496 682.662 727.978 684.252C723.46 685.841 724.345 689.755 729.669 691.726Z" fill="url(#paint20_linear_21_5077)"/>
<path d="M729.669 691.726L747.765 698.426L741.395 687.6C739.521 684.415 732.496 682.662 727.978 684.252C723.46 685.841 724.345 689.755 729.669 691.726Z" stroke="#631F72" stroke-width="1.80558"/>
<path d="M768.111 706.734L750.014 700.034L756.384 710.86C758.258 714.045 765.283 715.798 769.801 714.208C774.32 712.618 773.434 708.705 768.111 706.734Z" fill="#E46BFF"/>
<path d="M768.111 706.734L750.014 700.034L756.384 710.86C758.258 714.045 765.283 715.798 769.801 714.208C774.32 712.618 773.434 708.705 768.111 706.734Z" fill="url(#paint21_linear_21_5077)"/>
<path d="M768.111 706.734L750.014 700.034L756.384 710.86C758.258 714.045 765.283 715.798 769.801 714.208C774.32 712.618 773.434 708.705 768.111 706.734Z" stroke="#631F72" stroke-width="1.80558"/>
<path d="M758.127 689.711L749.021 698.338L742.689 687.509C740.827 684.323 745.316 681.755 751.265 682.603C757.213 683.451 760.806 687.172 758.127 689.711Z" fill="#E46BFF" stroke="#631F72" stroke-width="1.80558"/>
<path d="M739.658 708.75L748.764 700.122L755.096 710.951C756.959 714.137 752.469 716.706 746.52 715.858C740.572 715.009 736.979 711.288 739.658 708.75Z" fill="#E46BFF" stroke="#631F72" stroke-width="1.80558"/>
<path d="M727.915 700.339L747.176 698.986L729.061 692.303C723.732 690.337 717.39 691.579 716.948 694.676C716.507 697.772 722.249 700.738 727.915 700.339Z" fill="#E46BFF" stroke="#631F72" stroke-width="1.80558"/>
<path d="M769.868 698.121L750.608 699.474L768.722 706.157C774.052 708.123 780.393 706.881 780.835 703.784C781.276 700.688 775.535 697.722 769.868 698.121Z" fill="#E46BFF" stroke="#631F72" stroke-width="1.80558"/>
<circle cx="7.03927" cy="7.03927" r="5.68508" transform="matrix(-0.812942 -0.582344 -0.943313 0.331905 761.25 700.993)" fill="#FFF9E1" stroke="#694424" stroke-width="2.70836"/>
<path d="M800.454 655.832L781.206 657.207L790.348 648.593C793.038 646.058 800.273 646.339 804.167 649.128C808.061 651.917 806.117 655.427 800.454 655.832Z" fill="#E46BFF"/>
<path d="M800.454 655.832L781.206 657.207L790.348 648.593C793.038 646.058 800.273 646.339 804.167 649.128C808.061 651.917 806.117 655.427 800.454 655.832Z" fill="url(#paint22_linear_21_5077)"/>
<path d="M800.454 655.832L781.206 657.207L790.348 648.593C793.038 646.058 800.273 646.339 804.167 649.128C808.061 651.917 806.117 655.427 800.454 655.832Z" stroke="#631F72" stroke-width="1.80558"/>
<path d="M759.354 659.498L778.602 658.123L769.46 666.737C766.771 669.271 759.536 668.991 755.642 666.201C751.748 663.412 753.692 659.902 759.354 659.498Z" fill="url(#paint23_linear_21_5077)" stroke="#631F72" stroke-width="1.80558"/>
<path d="M760.682 650.161L778.779 656.861L772.409 646.035C770.535 642.85 763.51 641.097 758.992 642.686C754.473 644.276 755.358 648.189 760.682 650.161Z" fill="#E46BFF"/>
<path d="M760.682 650.161L778.779 656.861L772.409 646.035C770.535 642.85 763.51 641.097 758.992 642.686C754.473 644.276 755.358 648.189 760.682 650.161Z" fill="url(#paint24_linear_21_5077)"/>
<path d="M760.682 650.161L778.779 656.861L772.409 646.035C770.535 642.85 763.51 641.097 758.992 642.686C754.473 644.276 755.358 648.189 760.682 650.161Z" stroke="#631F72" stroke-width="1.80558"/>
<path d="M799.124 665.169L781.028 658.468L787.398 669.295C789.272 672.48 796.297 674.233 800.815 672.643C805.333 671.053 804.448 667.14 799.124 665.169Z" fill="#E46BFF"/>
<path d="M799.124 665.169L781.028 658.468L787.398 669.295C789.272 672.48 796.297 674.233 800.815 672.643C805.333 671.053 804.448 667.14 799.124 665.169Z" fill="url(#paint25_linear_21_5077)"/>
<path d="M799.124 665.169L781.028 658.468L787.398 669.295C789.272 672.48 796.297 674.233 800.815 672.643C805.333 671.053 804.448 667.14 799.124 665.169Z" stroke="#631F72" stroke-width="1.80558"/>
<path d="M789.141 648.145L780.035 656.773L773.703 645.944C771.84 642.758 776.33 640.189 782.278 641.037C788.227 641.886 791.82 645.607 789.141 648.145Z" fill="#E46BFF" stroke="#631F72" stroke-width="1.80558"/>
<path d="M770.672 667.184L779.778 658.557L786.11 669.386C787.972 672.572 783.482 675.14 777.534 674.292C771.586 673.444 767.993 669.723 770.672 667.184Z" fill="#E46BFF" stroke="#631F72" stroke-width="1.80558"/>
<path d="M758.929 658.774L778.189 657.421L760.075 650.738C754.745 648.772 748.404 650.014 747.962 653.11C747.52 656.207 753.262 659.172 758.929 658.774Z" fill="#E46BFF" stroke="#631F72" stroke-width="1.80558"/>
<path d="M800.882 656.555L781.621 657.909L799.736 664.592C805.065 666.558 811.407 665.315 811.849 662.219C812.29 659.123 806.548 656.157 800.882 656.555Z" fill="#E46BFF" stroke="#631F72" stroke-width="1.80558"/>
<circle cx="7.03927" cy="7.03927" r="5.68508" transform="matrix(-0.812942 -0.582344 -0.943313 0.331905 792.264 659.428)" fill="#FFF9E1" stroke="#694424" stroke-width="2.70836"/>
<path d="M681.448 640.489L662.2 641.864L671.343 633.25C674.032 630.715 681.267 630.996 685.161 633.785C689.055 636.574 687.111 640.084 681.448 640.489Z" fill="#E46BFF"/>
<path d="M681.448 640.489L662.2 641.864L671.343 633.25C674.032 630.715 681.267 630.996 685.161 633.785C689.055 636.574 687.111 640.084 681.448 640.489Z" fill="url(#paint26_linear_21_5077)"/>
<path d="M681.448 640.489L662.2 641.864L671.343 633.25C674.032 630.715 681.267 630.996 685.161 633.785C689.055 636.574 687.111 640.084 681.448 640.489Z" stroke="#631F72" stroke-width="1.80558"/>
<path d="M640.348 644.155L659.597 642.78L650.454 651.394C647.765 653.928 640.53 653.648 636.636 650.858C632.742 648.069 634.686 644.559 640.348 644.155Z" fill="url(#paint27_linear_21_5077)" stroke="#631F72" stroke-width="1.80558"/>
<path d="M641.676 634.818L659.773 641.518L653.403 630.692C651.529 627.507 644.504 625.754 639.986 627.343C635.467 628.933 636.353 632.846 641.676 634.818Z" fill="#E46BFF"/>
<path d="M641.676 634.818L659.773 641.518L653.403 630.692C651.529 627.507 644.504 625.754 639.986 627.343C635.467 628.933 636.353 632.846 641.676 634.818Z" fill="url(#paint28_linear_21_5077)"/>
<path d="M641.676 634.818L659.773 641.518L653.403 630.692C651.529 627.507 644.504 625.754 639.986 627.343C635.467 628.933 636.353 632.846 641.676 634.818Z" stroke="#631F72" stroke-width="1.80558"/>
<path d="M680.118 649.826L662.022 643.125L668.392 653.952C670.266 657.137 677.291 658.89 681.809 657.3C686.328 655.71 685.442 651.797 680.118 649.826Z" fill="#E46BFF"/>
<path d="M680.118 649.826L662.022 643.125L668.392 653.952C670.266 657.137 677.291 658.89 681.809 657.3C686.328 655.71 685.442 651.797 680.118 649.826Z" fill="url(#paint29_linear_21_5077)"/>
<path d="M680.118 649.826L662.022 643.125L668.392 653.952C670.266 657.137 677.291 658.89 681.809 657.3C686.328 655.71 685.442 651.797 680.118 649.826Z" stroke="#631F72" stroke-width="1.80558"/>
<path d="M670.135 632.802L661.029 641.43L654.697 630.601C652.834 627.415 657.324 624.846 663.273 625.695C669.221 626.543 672.814 630.264 670.135 632.802Z" fill="#E46BFF" stroke="#631F72" stroke-width="1.80558"/>
<path d="M651.666 651.841L660.772 643.214L667.104 654.043C668.966 657.229 664.477 659.798 658.528 658.949C652.58 658.101 648.987 654.38 651.666 651.841Z" fill="#E46BFF" stroke="#631F72" stroke-width="1.80558"/>
<path d="M639.923 643.431L659.184 642.078L641.069 635.395C635.739 633.429 629.398 634.671 628.956 637.767C628.515 640.864 634.256 643.829 639.923 643.431Z" fill="#E46BFF" stroke="#631F72" stroke-width="1.80558"/>
<path d="M681.876 641.212L662.615 642.566L680.73 649.249C686.059 651.215 692.401 649.973 692.843 646.876C693.284 643.78 687.542 640.814 681.876 641.212Z" fill="#E46BFF" stroke="#631F72" stroke-width="1.80558"/>
<circle cx="7.03927" cy="7.03927" r="5.68508" transform="matrix(-0.812942 -0.582344 -0.943313 0.331905 673.258 644.085)" fill="#FFF9E1" stroke="#694424" stroke-width="2.70836"/>
<path d="M736.889 667.379L768.055 677.808L756.628 659.723C753.266 654.402 741.213 651.797 733.608 654.747C726.003 657.697 727.721 664.31 736.889 667.379Z" fill="#E46BFF"/>
<path d="M736.889 667.379L768.055 677.808L756.628 659.723C753.266 654.402 741.213 651.797 733.608 654.747C726.003 657.697 727.721 664.31 736.889 667.379Z" fill="url(#paint30_linear_21_5077)"/>
<path d="M736.889 667.379L768.055 677.808L756.628 659.723C753.266 654.402 741.213 651.797 733.608 654.747C726.003 657.697 727.721 664.31 736.889 667.379Z" stroke="#631F72" stroke-width="2.63627"/>
<path d="M803.128 690.852L771.962 680.423L783.39 698.508C786.752 703.828 798.804 706.433 806.41 703.483C814.015 700.533 812.297 693.92 803.128 690.852Z" fill="url(#paint31_linear_21_5077)" stroke="#631F72" stroke-width="2.63627"/>
<path d="M804.896 674.887L772.205 678.266L787.303 663.109C791.744 658.65 804.075 658.737 810.854 663.275C817.633 667.813 814.513 673.893 804.896 674.887Z" fill="#E46BFF"/>
<path d="M804.896 674.887L772.205 678.266L787.303 663.109C791.744 658.65 804.075 658.737 810.854 663.275C817.633 667.813 814.513 673.893 804.896 674.887Z" fill="url(#paint32_linear_21_5077)"/>
<path d="M804.896 674.887L772.205 678.266L787.303 663.109C791.744 658.65 804.075 658.737 810.854 663.275C817.633 667.813 814.513 673.893 804.896 674.887Z" stroke="#631F72" stroke-width="2.63627"/>
<path d="M735.124 683.343L767.814 679.965L752.717 695.121C748.275 699.58 735.944 699.493 729.166 694.955C722.387 690.417 725.506 684.338 735.124 683.343Z" fill="#E46BFF"/>
<path d="M735.124 683.343L767.814 679.965L752.717 695.121C748.275 699.58 735.944 699.493 729.166 694.955C722.387 690.417 725.506 684.338 735.124 683.343Z" fill="url(#paint33_linear_21_5077)"/>
<path d="M735.124 683.343L767.814 679.965L752.717 695.121C748.275 699.58 735.944 699.493 729.166 694.955C722.387 690.417 725.506 684.338 735.124 683.343Z" stroke="#631F72" stroke-width="2.63627"/>
<path d="M758.832 659.498L770.195 677.589L785.23 662.412C789.653 657.947 783.336 651.806 773.165 650.683C762.994 649.56 755.49 654.175 758.832 659.498Z" fill="#E46BFF" stroke="#631F72" stroke-width="2.63627"/>
<path d="M781.222 698.732L769.86 680.64L754.825 695.817C750.402 700.282 756.718 706.423 766.89 707.546C777.061 708.669 784.565 704.054 781.222 698.732Z" fill="#E46BFF" stroke="#631F72" stroke-width="2.63627"/>
<path d="M804.156 689.839L772.96 679.44L805.674 676.097C815.298 675.114 825.232 679.852 824.647 685.146C824.062 690.441 813.334 692.898 804.156 689.839Z" fill="#E46BFF" stroke="#631F72" stroke-width="2.63627"/>
<path d="M735.9 668.391L767.096 678.79L734.383 682.133C724.759 683.116 714.825 678.378 715.41 673.083C715.994 667.789 726.723 665.332 735.9 668.391Z" fill="#E46BFF" stroke="#631F72" stroke-width="2.63627"/>
<circle cx="11.9885" cy="11.9885" r="10.0113" transform="matrix(0.932326 -0.361618 0.830981 0.556301 748.891 676.782)" fill="#FFF9E1" stroke="#694424" stroke-width="3.9544"/>
<path d="M722.359 633.872L699.907 635.476L710.571 625.428C713.708 622.472 722.147 622.799 726.689 626.053C731.231 629.306 728.964 633.4 722.359 633.872Z" fill="#E46BFF"/>
<path d="M722.359 633.872L699.907 635.476L710.571 625.428C713.708 622.472 722.147 622.799 726.689 626.053C731.231 629.306 728.964 633.4 722.359 633.872Z" fill="url(#paint34_linear_21_5077)"/>
<path d="M722.359 633.872L699.907 635.476L710.571 625.428C713.708 622.472 722.147 622.799 726.689 626.053C731.231 629.306 728.964 633.4 722.359 633.872Z" stroke="#631F72" stroke-width="1.80558"/>
<path d="M674.419 638.148L696.87 636.544L686.206 646.592C683.069 649.548 674.63 649.221 670.088 645.967C665.546 642.714 667.813 638.62 674.419 638.148Z" fill="url(#paint35_linear_21_5077)" stroke="#631F72" stroke-width="1.80558"/>
<path d="M675.968 627.257L697.077 635.072L689.646 622.444C687.46 618.729 679.266 616.684 673.996 618.538C668.725 620.393 669.758 624.957 675.968 627.257Z" fill="#E46BFF"/>
<path d="M675.968 627.257L697.077 635.072L689.646 622.444C687.46 618.729 679.266 616.684 673.996 618.538C668.725 620.393 669.758 624.957 675.968 627.257Z" fill="url(#paint36_linear_21_5077)"/>
<path d="M675.968 627.257L697.077 635.072L689.646 622.444C687.46 618.729 679.266 616.684 673.996 618.538C668.725 620.393 669.758 624.957 675.968 627.257Z" stroke="#631F72" stroke-width="1.80558"/>
<path d="M720.807 644.763L699.699 636.948L707.129 649.576C709.315 653.291 717.509 655.336 722.78 653.481C728.05 651.627 727.017 647.062 720.807 644.763Z" fill="#E46BFF"/>
<path d="M720.807 644.763L699.699 636.948L707.129 649.576C709.315 653.291 717.509 655.336 722.78 653.481C728.05 651.627 727.017 647.062 720.807 644.763Z" fill="url(#paint37_linear_21_5077)"/>
<path d="M720.807 644.763L699.699 636.948L707.129 649.576C709.315 653.291 717.509 655.336 722.78 653.481C728.05 651.627 727.017 647.062 720.807 644.763Z" stroke="#631F72" stroke-width="1.80558"/>
<path d="M709.181 624.907L698.56 634.97L691.174 622.339C689.001 618.623 694.239 615.626 701.177 616.616C708.115 617.605 712.306 621.946 709.181 624.907Z" fill="#E46BFF" stroke="#631F72" stroke-width="1.80558"/>
<path d="M687.639 647.115L698.261 637.051L705.646 649.682C707.819 653.399 702.582 656.395 695.643 655.406C688.705 654.416 684.514 650.075 687.639 647.115Z" fill="#E46BFF" stroke="#631F72" stroke-width="1.80558"/>
<path d="M673.941 637.305L696.408 635.726L675.278 627.931C669.062 625.637 661.664 627.086 661.149 630.698C660.634 634.31 667.332 637.769 673.941 637.305Z" fill="#E46BFF" stroke="#631F72" stroke-width="1.80558"/>
<path d="M722.877 634.716L700.41 636.295L721.54 644.09C727.757 646.384 735.154 644.935 735.669 641.323C736.184 637.711 729.486 634.252 722.877 634.716Z" fill="#E46BFF" stroke="#631F72" stroke-width="1.80558"/>
<circle cx="8.21088" cy="8.21088" r="6.8567" transform="matrix(-0.812942 -0.582344 -0.943313 0.331905 712.826 638.067)" fill="#FFF9E1" stroke="#694424" stroke-width="2.70836"/>
<path d="M614.199 660.718L646.98 663.06L631.41 648.389C626.83 644.073 614.508 644.551 607.876 649.301C601.245 654.052 604.555 660.029 614.199 660.718Z" fill="#E46BFF"/>
<path d="M614.199 660.718L646.98 663.06L631.41 648.389C626.83 644.073 614.508 644.551 607.876 649.301C601.245 654.052 604.555 660.029 614.199 660.718Z" fill="url(#paint38_linear_21_5077)"/>
<path d="M614.199 660.718L646.98 663.06L631.41 648.389C626.83 644.073 614.508 644.551 607.876 649.301C601.245 654.052 604.555 660.029 614.199 660.718Z" stroke="#631F72" stroke-width="2.63627"/>
<path d="M684.197 666.962L651.416 664.62L666.986 679.291C671.567 683.607 683.889 683.129 690.52 678.379C697.152 673.628 693.841 667.651 684.197 666.962Z" fill="url(#paint39_linear_21_5077)" stroke="#631F72" stroke-width="2.63627"/>
<path d="M681.934 651.059L651.114 662.471L661.963 644.033C665.154 638.608 677.118 635.623 684.813 638.33C692.508 641.038 691.001 647.702 681.934 651.059Z" fill="#E46BFF"/>
<path d="M681.934 651.059L651.114 662.471L661.963 644.033C665.154 638.608 677.118 635.623 684.813 638.33C692.508 641.038 691.001 647.702 681.934 651.059Z" fill="url(#paint40_linear_21_5077)"/>
<path d="M681.934 651.059L651.114 662.471L661.963 644.033C665.154 638.608 677.118 635.623 684.813 638.33C692.508 641.038 691.001 647.702 681.934 651.059Z" stroke="#631F72" stroke-width="2.63627"/>
<path d="M616.465 676.62L647.285 665.209L636.436 683.647C633.244 689.071 621.28 692.057 613.585 689.349C605.89 686.642 607.398 679.977 616.465 676.62Z" fill="#E46BFF"/>
<path d="M616.465 676.62L647.285 665.209L636.436 683.647C633.244 689.071 621.28 692.057 613.585 689.349C605.89 686.642 607.398 679.977 616.465 676.62Z" fill="url(#paint41_linear_21_5077)"/>
<path d="M616.465 676.62L647.285 665.209L636.436 683.647C633.244 689.071 621.28 692.057 613.585 689.349C605.89 686.642 607.398 679.977 616.465 676.62Z" stroke="#631F72" stroke-width="2.63627"/>
<path d="M633.449 647.628L648.958 662.321L659.741 643.879C662.914 638.453 655.267 634.078 645.136 635.523C635.006 636.967 628.887 643.305 633.449 647.628Z" fill="#E46BFF" stroke="#631F72" stroke-width="2.63627"/>
<path d="M664.9 680.053L649.392 665.36L638.608 683.802C635.436 689.228 643.083 693.603 653.213 692.158C663.344 690.714 669.463 684.376 664.9 680.053Z" fill="#E46BFF" stroke="#631F72" stroke-width="2.63627"/>
<path d="M684.901 665.73L652.098 663.425L682.949 652.043C692.025 648.695 702.826 650.81 703.578 656.084C704.33 661.358 694.551 666.408 684.901 665.73Z" fill="#E46BFF" stroke="#631F72" stroke-width="2.63627"/>
<path d="M613.453 661.951L646.256 664.256L615.404 675.637C606.328 678.986 595.528 676.87 594.776 671.597C594.024 666.323 603.803 661.273 613.453 661.951Z" fill="#E46BFF" stroke="#631F72" stroke-width="2.63627"/>
<circle cx="11.9885" cy="11.9885" r="10.0113" transform="matrix(0.812942 -0.582344 0.943313 0.331905 628.125 666.843)" fill="#FFF9E1" stroke="#694424" stroke-width="3.9544"/>
<path d="M673.509 681.924L699.613 683.789L687.214 672.107C683.567 668.67 673.755 669.05 668.475 672.833C663.194 676.615 665.83 681.375 673.509 681.924Z" fill="#E46BFF"/>
<path d="M673.509 681.924L699.613 683.789L687.214 672.107C683.567 668.67 673.755 669.05 668.475 672.833C663.194 676.615 665.83 681.375 673.509 681.924Z" fill="url(#paint42_linear_21_5077)"/>
<path d="M673.509 681.924L699.613 683.789L687.214 672.107C683.567 668.67 673.755 669.05 668.475 672.833C663.194 676.615 665.83 681.375 673.509 681.924Z" stroke="#631F72" stroke-width="2.63627"/>
<path d="M729.248 686.895L703.145 685.031L715.543 696.713C719.191 700.15 729.003 699.769 734.283 695.987C739.564 692.204 736.928 687.444 729.248 686.895Z" fill="url(#paint43_linear_21_5077)" stroke="#631F72" stroke-width="2.63627"/>
<path d="M727.445 674.233L702.903 683.319L711.542 668.637C714.084 664.318 723.611 661.94 729.738 664.096C735.866 666.252 734.665 671.559 727.445 674.233Z" fill="#E46BFF"/>
<path d="M727.445 674.233L702.903 683.319L711.542 668.637C714.084 664.318 723.611 661.94 729.738 664.096C735.866 666.252 734.665 671.559 727.445 674.233Z" fill="url(#paint44_linear_21_5077)"/>
<path d="M727.445 674.233L702.903 683.319L711.542 668.637C714.084 664.318 723.611 661.94 729.738 664.096C735.866 666.252 734.665 671.559 727.445 674.233Z" stroke="#631F72" stroke-width="2.63627"/>
<path d="M675.313 694.586L699.854 685.5L691.216 700.182C688.674 704.501 679.147 706.879 673.02 704.723C666.892 702.567 668.093 697.26 675.313 694.586Z" fill="#E46BFF"/>
<path d="M675.313 694.586L699.854 685.5L691.216 700.182C688.674 704.501 679.147 706.879 673.02 704.723C666.892 702.567 668.093 697.26 675.313 694.586Z" fill="url(#paint45_linear_21_5077)"/>
<path d="M675.313 694.586L699.854 685.5L691.216 700.182C688.674 704.501 679.147 706.879 673.02 704.723C666.892 702.567 668.093 697.26 675.313 694.586Z" stroke="#631F72" stroke-width="2.63627"/>
<path d="M688.854 671.5L701.203 683.2L709.79 668.515C712.316 664.194 706.227 660.71 698.16 661.861C690.094 663.011 685.221 668.058 688.854 671.5Z" fill="#E46BFF" stroke="#631F72" stroke-width="2.63627"/>
<path d="M713.9 697.32L701.55 685.62L692.964 700.306C690.438 704.626 696.527 708.11 704.593 706.96C712.66 705.809 717.533 700.762 713.9 697.32Z" fill="#E46BFF" stroke="#631F72" stroke-width="2.63627"/>
<path d="M729.826 685.915L703.705 684.079L728.272 675.016C735.499 672.35 744.099 674.034 744.698 678.234C745.297 682.433 737.51 686.454 729.826 685.915Z" fill="#E46BFF" stroke="#631F72" stroke-width="2.63627"/>
<path d="M672.932 682.906L699.053 684.741L674.486 693.804C667.259 696.47 658.658 694.786 658.06 690.586C657.461 686.387 665.248 682.366 672.932 682.906Z" fill="#E46BFF" stroke="#631F72" stroke-width="2.63627"/>
<circle cx="9.54636" cy="9.54636" r="7.56916" transform="matrix(0.812942 -0.582344 0.943313 0.331905 684.615 686.801)" fill="#FFF9E1" stroke="#694424" stroke-width="3.9544"/>
<path d="M541.91 458.289C505.261 502.052 432.855 593.597 436.42 609.673C440.876 629.768 605.303 493.121 613.723 484.636" stroke="black" stroke-width="8"/>
<path d="M863.863 411.509C908.188 472.016 995.839 596.393 991.843 609.85C986.849 626.67 844.509 522.944 829.525 506.825" stroke="black" stroke-width="8"/>
<path d="M801.438 502.529C790.139 514.86 782.281 523.669 783.922 524.638C784.864 526.185 791.121 525.365 808.619 509.709C830.49 490.14 869.05 451.181 871.915 450.455C874.78 449.729 891.053 461.826 906.922 430.925C903.412 434.585 891.784 440.541 882.939 438.989C883.703 434.523 888.507 425.544 892.013 421.454C888.251 425.744 879.817 434.338 876.17 434.398C871.612 434.474 872.62 418.808 884.558 410.876C876.512 413.042 861.654 424.806 864.216 443.443C845.425 460.187 812.738 490.198 801.438 502.529Z" fill="#B0C9DD" stroke="black" stroke-width="3"/>
<path d="M842.382 503.319C845.572 494.521 850.218 474.608 843.291 465.341C840.322 466.176 834.509 470.763 835.01 482.433C832.983 477.968 826.796 469.904 818.259 473.368C807.588 477.698 800.47 485.928 807.068 495.114C813.667 504.299 826.598 519.585 842.382 503.319Z" fill="white" stroke="black" stroke-width="3" stroke-linecap="round"/>
<path d="M517.746 411.56L659.28 517.17L662.925 511.4L583.751 451.921C573.407 415.716 535.483 410.93 517.746 411.56Z" fill="#B0CADD" stroke="black" stroke-width="3"/>
<path d="M597.876 492.978C595.73 483.869 593.426 463.551 601.383 455.151C604.235 456.325 609.476 461.556 607.624 473.089C610.155 468.889 617.236 461.598 625.313 466.029C635.409 471.569 641.524 480.571 633.904 488.928C626.284 497.285 611.665 510.966 597.876 492.978Z" fill="white" stroke="black" stroke-width="3" stroke-linecap="round"/>
<defs>
<linearGradient id="paint0_linear_21_5077" x1="711.596" y1="361.007" x2="711.596" y2="747.597" gradientUnits="userSpaceOnUse">
<stop offset="0.0479993" stop-color="#F4B92F"/>
<stop offset="1" stop-color="#EBD04A"/>
</linearGradient>
<linearGradient id="paint1_linear_21_5077" x1="711.596" y1="361.007" x2="711.596" y2="747.597" gradientUnits="userSpaceOnUse">
<stop offset="0.0479993" stop-color="#F4B92F"/>
<stop offset="1" stop-color="#EBD04A"/>
</linearGradient>
<linearGradient id="paint2_linear_21_5077" x1="711.596" y1="361.007" x2="711.596" y2="747.597" gradientUnits="userSpaceOnUse">
<stop offset="0.0479993" stop-color="#F4B92F"/>
<stop offset="1" stop-color="#EBD04A"/>
</linearGradient>
<linearGradient id="paint3_linear_21_5077" x1="691.939" y1="80.3766" x2="691.939" y2="458.289" gradientUnits="userSpaceOnUse">
<stop offset="0.465" stop-color="#FFE564"/>
<stop offset="1" stop-color="#F4B92F"/>
</linearGradient>
<linearGradient id="paint4_linear_21_5077" x1="691.939" y1="80.3766" x2="691.939" y2="458.289" gradientUnits="userSpaceOnUse">
<stop offset="0.465" stop-color="#FFE564"/>
<stop offset="1" stop-color="#F4B92F"/>
</linearGradient>
<linearGradient id="paint5_linear_21_5077" x1="691.939" y1="80.3766" x2="691.939" y2="458.289" gradientUnits="userSpaceOnUse">
<stop offset="0.465" stop-color="#FFE564"/>
<stop offset="1" stop-color="#F4B92F"/>
</linearGradient>
<linearGradient id="paint6_linear_21_5077" x1="747.296" y1="634.612" x2="758.907" y2="618.403" gradientUnits="userSpaceOnUse">
<stop offset="0.29" stop-color="#E46BFF"/>
<stop offset="0.885" stop-color="#F1B3FF"/>
</linearGradient>
<linearGradient id="paint7_linear_21_5077" x1="744.692" y1="635.528" x2="733.081" y2="651.737" gradientUnits="userSpaceOnUse">
<stop offset="0.29" stop-color="#E46BFF"/>
<stop offset="0.885" stop-color="#F1B3FF"/>
</linearGradient>
<linearGradient id="paint8_linear_21_5077" x1="744.869" y1="634.266" x2="738.251" y2="615.458" gradientUnits="userSpaceOnUse">
<stop offset="0.29" stop-color="#E46BFF"/>
<stop offset="0.885" stop-color="#F1B3FF"/>
</linearGradient>
<linearGradient id="paint9_linear_21_5077" x1="747.118" y1="635.874" x2="753.735" y2="654.682" gradientUnits="userSpaceOnUse">
<stop offset="0.29" stop-color="#E46BFF"/>
<stop offset="0.885" stop-color="#F1B3FF"/>
</linearGradient>
<linearGradient id="paint10_linear_21_5077" x1="738.052" y1="658.113" x2="749.663" y2="641.904" gradientUnits="userSpaceOnUse">
<stop offset="0.29" stop-color="#E46BFF"/>
<stop offset="0.885" stop-color="#F1B3FF"/>
</linearGradient>
<linearGradient id="paint11_linear_21_5077" x1="735.448" y1="659.029" x2="723.837" y2="675.238" gradientUnits="userSpaceOnUse">
<stop offset="0.29" stop-color="#E46BFF"/>
<stop offset="0.885" stop-color="#F1B3FF"/>
</linearGradient>
<linearGradient id="paint12_linear_21_5077" x1="735.625" y1="657.767" x2="729.007" y2="638.959" gradientUnits="userSpaceOnUse">
<stop offset="0.29" stop-color="#E46BFF"/>
<stop offset="0.885" stop-color="#F1B3FF"/>
</linearGradient>
<linearGradient id="paint13_linear_21_5077" x1="737.873" y1="659.375" x2="744.491" y2="678.183" gradientUnits="userSpaceOnUse">
<stop offset="0.29" stop-color="#E46BFF"/>
<stop offset="0.885" stop-color="#F1B3FF"/>
</linearGradient>
<linearGradient id="paint14_linear_21_5077" x1="702.683" y1="687.332" x2="714.294" y2="671.124" gradientUnits="userSpaceOnUse">
<stop offset="0.29" stop-color="#E46BFF"/>
<stop offset="0.885" stop-color="#F1B3FF"/>
</linearGradient>
<linearGradient id="paint15_linear_21_5077" x1="700.079" y1="688.248" x2="688.468" y2="704.457" gradientUnits="userSpaceOnUse">
<stop offset="0.29" stop-color="#E46BFF"/>
<stop offset="0.885" stop-color="#F1B3FF"/>
</linearGradient>
<linearGradient id="paint16_linear_21_5077" x1="700.255" y1="686.987" x2="693.638" y2="668.178" gradientUnits="userSpaceOnUse">
<stop offset="0.29" stop-color="#E46BFF"/>
<stop offset="0.885" stop-color="#F1B3FF"/>
</linearGradient>
<linearGradient id="paint17_linear_21_5077" x1="702.504" y1="688.594" x2="709.122" y2="707.402" gradientUnits="userSpaceOnUse">
<stop offset="0.29" stop-color="#E46BFF"/>
<stop offset="0.885" stop-color="#F1B3FF"/>
</linearGradient>
<linearGradient id="paint18_linear_21_5077" x1="750.192" y1="698.772" x2="761.804" y2="682.563" gradientUnits="userSpaceOnUse">
<stop offset="0.29" stop-color="#E46BFF"/>
<stop offset="0.885" stop-color="#F1B3FF"/>
</linearGradient>
<linearGradient id="paint19_linear_21_5077" x1="747.589" y1="699.688" x2="735.978" y2="715.897" gradientUnits="userSpaceOnUse">
<stop offset="0.29" stop-color="#E46BFF"/>
<stop offset="0.885" stop-color="#F1B3FF"/>
</linearGradient>
<linearGradient id="paint20_linear_21_5077" x1="747.765" y1="698.426" x2="741.148" y2="679.618" gradientUnits="userSpaceOnUse">
<stop offset="0.29" stop-color="#E46BFF"/>
<stop offset="0.885" stop-color="#F1B3FF"/>
</linearGradient>
<linearGradient id="paint21_linear_21_5077" x1="750.014" y1="700.034" x2="756.632" y2="718.842" gradientUnits="userSpaceOnUse">
<stop offset="0.29" stop-color="#E46BFF"/>
<stop offset="0.885" stop-color="#F1B3FF"/>
</linearGradient>
<linearGradient id="paint22_linear_21_5077" x1="781.206" y1="657.207" x2="792.817" y2="640.998" gradientUnits="userSpaceOnUse">
<stop offset="0.29" stop-color="#E46BFF"/>
<stop offset="0.885" stop-color="#F1B3FF"/>
</linearGradient>
<linearGradient id="paint23_linear_21_5077" x1="778.602" y1="658.123" x2="766.991" y2="674.331" gradientUnits="userSpaceOnUse">
<stop offset="0.29" stop-color="#E46BFF"/>
<stop offset="0.885" stop-color="#F1B3FF"/>
</linearGradient>
<linearGradient id="paint24_linear_21_5077" x1="778.779" y1="656.861" x2="772.161" y2="638.053" gradientUnits="userSpaceOnUse">
<stop offset="0.29" stop-color="#E46BFF"/>
<stop offset="0.885" stop-color="#F1B3FF"/>
</linearGradient>
<linearGradient id="paint25_linear_21_5077" x1="781.028" y1="658.468" x2="787.645" y2="677.277" gradientUnits="userSpaceOnUse">
<stop offset="0.29" stop-color="#E46BFF"/>
<stop offset="0.885" stop-color="#F1B3FF"/>
</linearGradient>
<linearGradient id="paint26_linear_21_5077" x1="662.2" y1="641.864" x2="673.811" y2="625.655" gradientUnits="userSpaceOnUse">
<stop offset="0.29" stop-color="#E46BFF"/>
<stop offset="0.885" stop-color="#F1B3FF"/>
</linearGradient>
<linearGradient id="paint27_linear_21_5077" x1="659.597" y1="642.78" x2="647.985" y2="658.989" gradientUnits="userSpaceOnUse">
<stop offset="0.29" stop-color="#E46BFF"/>
<stop offset="0.885" stop-color="#F1B3FF"/>
</linearGradient>
<linearGradient id="paint28_linear_21_5077" x1="659.773" y1="641.518" x2="653.155" y2="622.71" gradientUnits="userSpaceOnUse">
<stop offset="0.29" stop-color="#E46BFF"/>
<stop offset="0.885" stop-color="#F1B3FF"/>
</linearGradient>
<linearGradient id="paint29_linear_21_5077" x1="662.022" y1="643.125" x2="668.64" y2="661.934" gradientUnits="userSpaceOnUse">
<stop offset="0.29" stop-color="#E46BFF"/>
<stop offset="0.885" stop-color="#F1B3FF"/>
</linearGradient>
<linearGradient id="paint30_linear_21_5077" x1="768.055" y1="677.808" x2="755.776" y2="646.149" gradientUnits="userSpaceOnUse">
<stop offset="0.29" stop-color="#E46BFF"/>
<stop offset="0.885" stop-color="#F1B3FF"/>
</linearGradient>
<linearGradient id="paint31_linear_21_5077" x1="771.962" y1="680.423" x2="784.242" y2="712.082" gradientUnits="userSpaceOnUse">
<stop offset="0.29" stop-color="#E46BFF"/>
<stop offset="0.885" stop-color="#F1B3FF"/>
</linearGradient>
<linearGradient id="paint32_linear_21_5077" x1="772.205" y1="678.266" x2="791.096" y2="650.048" gradientUnits="userSpaceOnUse">
<stop offset="0.29" stop-color="#E46BFF"/>
<stop offset="0.885" stop-color="#F1B3FF"/>
</linearGradient>
<linearGradient id="paint33_linear_21_5077" x1="767.814" y1="679.965" x2="748.924" y2="708.182" gradientUnits="userSpaceOnUse">
<stop offset="0.29" stop-color="#E46BFF"/>
<stop offset="0.885" stop-color="#F1B3FF"/>
</linearGradient>
<linearGradient id="paint34_linear_21_5077" x1="699.907" y1="635.476" x2="713.451" y2="616.569" gradientUnits="userSpaceOnUse">
<stop offset="0.29" stop-color="#E46BFF"/>
<stop offset="0.885" stop-color="#F1B3FF"/>
</linearGradient>
<linearGradient id="paint35_linear_21_5077" x1="696.87" y1="636.544" x2="683.327" y2="655.451" gradientUnits="userSpaceOnUse">
<stop offset="0.29" stop-color="#E46BFF"/>
<stop offset="0.885" stop-color="#F1B3FF"/>
</linearGradient>
<linearGradient id="paint36_linear_21_5077" x1="697.077" y1="635.072" x2="689.357" y2="613.133" gradientUnits="userSpaceOnUse">
<stop offset="0.29" stop-color="#E46BFF"/>
<stop offset="0.885" stop-color="#F1B3FF"/>
</linearGradient>
<linearGradient id="paint37_linear_21_5077" x1="699.699" y1="636.948" x2="707.418" y2="658.886" gradientUnits="userSpaceOnUse">
<stop offset="0.29" stop-color="#E46BFF"/>
<stop offset="0.885" stop-color="#F1B3FF"/>
</linearGradient>
<linearGradient id="paint38_linear_21_5077" x1="646.98" y1="663.06" x2="627.206" y2="635.455" gradientUnits="userSpaceOnUse">
<stop offset="0.29" stop-color="#E46BFF"/>
<stop offset="0.885" stop-color="#F1B3FF"/>
</linearGradient>
<linearGradient id="paint39_linear_21_5077" x1="651.416" y1="664.62" x2="671.191" y2="692.225" gradientUnits="userSpaceOnUse">
<stop offset="0.29" stop-color="#E46BFF"/>
<stop offset="0.885" stop-color="#F1B3FF"/>
</linearGradient>
<linearGradient id="paint40_linear_21_5077" x1="651.114" y1="662.471" x2="662.384" y2="630.439" gradientUnits="userSpaceOnUse">
<stop offset="0.29" stop-color="#E46BFF"/>
<stop offset="0.885" stop-color="#F1B3FF"/>
</linearGradient>
<linearGradient id="paint41_linear_21_5077" x1="647.285" y1="665.209" x2="636.014" y2="697.241" gradientUnits="userSpaceOnUse">
<stop offset="0.29" stop-color="#E46BFF"/>
<stop offset="0.885" stop-color="#F1B3FF"/>
</linearGradient>
<linearGradient id="paint42_linear_21_5077" x1="699.613" y1="683.789" x2="683.866" y2="661.807" gradientUnits="userSpaceOnUse">
<stop offset="0.29" stop-color="#E46BFF"/>
<stop offset="0.885" stop-color="#F1B3FF"/>
</linearGradient>
<linearGradient id="paint43_linear_21_5077" x1="703.145" y1="685.031" x2="718.891" y2="707.012" gradientUnits="userSpaceOnUse">
<stop offset="0.29" stop-color="#E46BFF"/>
<stop offset="0.885" stop-color="#F1B3FF"/>
</linearGradient>
<linearGradient id="paint44_linear_21_5077" x1="702.903" y1="683.319" x2="711.878" y2="657.812" gradientUnits="userSpaceOnUse">
<stop offset="0.29" stop-color="#E46BFF"/>
<stop offset="0.885" stop-color="#F1B3FF"/>
</linearGradient>
<linearGradient id="paint45_linear_21_5077" x1="699.854" y1="685.5" x2="690.88" y2="711.007" gradientUnits="userSpaceOnUse">
<stop offset="0.29" stop-color="#E46BFF"/>
<stop offset="0.885" stop-color="#F1B3FF"/>
</linearGradient>
</defs>
</svg>
