<svg width="192" height="85" viewBox="0 0 192 85" fill="none" xmlns="http://www.w3.org/2000/svg">
<path d="M75.7088 67.6348C73.4818 70.9682 65.603 78.3552 51.9035 81.2366C34.7793 84.8383 11.4839 86.6196 6.99902 67.8312C4.39226 56.911 8.37749 49.579 10.4854 46.9967C10.5135 41.6694 12.671 29.9421 21.0762 25.6512C28.9047 21.6548 35.7445 21.5711 41.0055 25.1389C42.8051 26.3594 44.42 28.0072 45.8266 30.0718C45.783 30.225 45.8386 30.647 46.4095 31.1095C46.8009 31.4265 48.653 33.1041 50.3491 34.6504C51.1277 35.3602 51.8734 36.0423 52.4298 36.5524C52.6993 37.0205 53.1659 37.8881 53.4931 38.6462C53.6564 39.0243 53.7849 39.3752 53.837 39.6357C52.8968 38.4413 51.4598 37.3274 49.1868 36.5764C44.0027 34.8636 37.3543 36.3358 32.0325 39.846C26.7107 43.3563 26.3922 46.1272 25.1141 47.5173C24.4709 48.2168 23.7855 49.0248 22.9001 49.651C23.3977 51.2712 25.0015 54.8961 27.4359 56.434C30.4789 58.3563 35.0416 60.6911 41.3064 59.1956C47.5711 57.7002 52.0942 55.9298 55.6216 49.199C56.6247 49.6877 64.9303 52.5174 70.0823 51.2876C74.2038 50.3038 77.0833 48.8037 78.0078 48.1766C79.1362 49.0876 81.4639 51.4318 81.7467 53.5198C80.2955 54.9799 75.8777 58.4804 69.8161 60.8017C62.239 63.7034 52.414 65.4293 47.3928 65.6079C42.3715 65.7864 32.7872 63.4841 30.5402 63.8383C28.2932 64.1925 26.0795 65.4495 26.4338 67.6965C26.788 69.9435 28.0368 72.1227 32.7534 73.1098C37.4699 74.0969 48.5355 74.5156 58.6475 72.4661C66.7372 70.8265 73.3924 68.562 75.7088 67.6348Z" fill="url(#paint0_linear_21_10315)"/>
<path d="M81.7467 53.5198C82.3879 53.572 83.7607 54.0552 84.1223 55.5702C84.4839 57.0851 82.7817 58.6616 81.8853 59.2605C82.6658 60.2742 83.5452 62.7783 80.8188 64.685C78.0924 66.5917 76.2761 67.446 75.7088 67.6348C73.3924 68.562 66.7372 70.8265 58.6475 72.4661C48.5355 74.5156 37.4699 74.0969 32.7534 73.1098C28.0368 72.1227 26.788 69.9435 26.4338 67.6965C26.0795 65.4495 28.2932 64.1925 30.5402 63.8383C32.7872 63.4841 42.3715 65.7864 47.3928 65.6079C52.414 65.4293 62.239 63.7034 69.8161 60.8017C75.8777 58.4804 80.2955 54.9799 81.7467 53.5198Z" fill="#E49395"/>
<path d="M55.7171 44.0285C56.1256 45.7397 55.8236 48.1885 55.6216 49.199C52.0942 55.9298 47.5711 57.7002 41.3064 59.1956C35.0416 60.6911 30.4789 58.3563 27.4359 56.434C25.0015 54.8961 23.3977 51.2712 22.9001 49.651C23.7855 49.0248 24.4709 48.2168 25.1141 47.5173C26.3922 46.1272 26.7107 43.3563 32.0325 39.846C37.3543 36.3358 44.0027 34.8636 49.1868 36.5764C51.4598 37.3274 52.8968 38.4413 53.837 39.6357C55.0306 41.1521 55.4235 42.7983 55.7095 43.9969L55.7171 44.0285Z" fill="white"/>
<path d="M83.3712 37.4273C84.6369 42.7296 80.323 46.8028 78.0078 48.1766C77.0833 48.8037 74.2038 50.3038 70.0823 51.2876C64.9303 52.5174 56.6247 49.6877 55.6216 49.199C55.8236 48.1885 56.1256 45.7397 55.7171 44.0285L55.7095 43.9969C55.4235 42.7983 55.0306 41.1521 53.837 39.6357C53.7849 39.3752 53.6564 39.0243 53.4931 38.6462C55.1721 36.4169 59.6901 31.6816 64.3309 30.5738C70.132 29.189 74.1735 27.198 81.4099 32.6047C82.2068 33.9266 82.919 35.5332 83.3712 37.4273Z" fill="white"/>
<path d="M64.7421 28.3166C71.7142 26.6523 76.0245 27.5555 77.3082 28.2151C78.2682 28.7688 79.9761 30.2261 81.4099 32.6047C74.1735 27.198 70.132 29.189 64.3309 30.5738C59.6901 31.6816 55.1721 36.4169 53.4931 38.6462C53.1659 37.8881 52.6993 37.0205 52.4298 36.5524C53.6289 34.5006 57.77 29.9809 64.7421 28.3166Z" fill="url(#paint1_linear_21_10315)"/>
<path d="M66.5104 23.8624C68.7199 23.911 73.9727 24.8496 77.3082 28.2151C76.0245 27.5555 71.7142 26.6523 64.7421 28.3166C57.77 29.9809 53.6289 34.5006 52.4298 36.5524C51.8734 36.0423 51.1277 35.3602 50.3491 34.6504C48.653 33.1041 46.8009 31.4265 46.4095 31.1095C48.2125 29.6152 53.1688 26.3042 58.5708 25.0147C63.9728 23.7252 66.1147 23.7092 66.5104 23.8624Z" fill="url(#paint2_linear_21_10315)"/>
<path d="M45.8266 30.0718C44.42 28.0072 42.8051 26.3594 41.0055 25.1389C41.8248 23.3035 45.0612 19.2511 51.4524 17.7255C59.4413 15.8185 65.7546 20.6961 66.5104 23.8624C66.1147 23.7092 63.9728 23.7252 58.5708 25.0147C53.1688 26.3042 48.2125 29.6152 46.4095 31.1095C45.8386 30.647 45.783 30.225 45.8266 30.0718Z" fill="url(#paint3_linear_21_10315)"/>
<path d="M75.7088 67.6348C73.4818 70.9682 65.603 78.3552 51.9035 81.2366C34.7793 84.8382 11.4839 86.6196 6.99902 67.8312C4.39226 56.911 8.37749 49.579 10.4854 46.9967M75.7088 67.6348C76.2761 67.446 78.0924 66.5917 80.8188 64.685C83.5452 62.7783 82.6658 60.2742 81.8853 59.2605M75.7088 67.6348C73.3924 68.562 66.7372 70.8265 58.6475 72.4661C48.5355 74.5156 37.4699 74.0969 32.7534 73.1098C28.0368 72.1227 26.788 69.9435 26.4338 67.6965C26.0795 65.4495 28.2932 64.1925 30.5402 63.8383C32.7872 63.4841 42.3715 65.7864 47.3928 65.6079C52.414 65.4293 62.239 63.7034 69.8161 60.8017C75.8777 58.4804 80.2955 54.9799 81.7467 53.5198M10.4854 46.9967C10.5024 48.7458 10.8838 51.3773 11.0725 52.4744M10.4854 46.9967C10.5135 41.6694 12.671 29.9421 21.0762 25.6512C28.9047 21.6548 35.7445 21.5711 41.0055 25.1389M41.0055 25.1389C42.8051 26.3594 44.42 28.0072 45.8266 30.0718C45.783 30.225 45.8386 30.647 46.4095 31.1095M41.0055 25.1389C41.8248 23.3035 45.0612 19.2511 51.4524 17.7255C59.4413 15.8185 65.7546 20.6961 66.5104 23.8624M66.5104 23.8624C68.7199 23.911 73.9727 24.8496 77.3082 28.2151M66.5104 23.8624C66.1147 23.7092 63.9728 23.7252 58.5708 25.0147C53.1688 26.3042 48.2125 29.6152 46.4095 31.1095M77.3082 28.2151C76.0245 27.5555 71.7142 26.6523 64.7421 28.3166C57.77 29.9809 53.6289 34.5006 52.4298 36.5524M77.3082 28.2151C78.2682 28.7688 79.9761 30.2261 81.4099 32.6047M78.0078 48.1766C80.323 46.8028 84.6369 42.7296 83.3712 37.4273C82.919 35.5332 82.2068 33.9266 81.4099 32.6047M78.0078 48.1766C79.1362 49.0876 81.4639 51.4318 81.7467 53.5198M78.0078 48.1766C77.0833 48.8037 74.2038 50.3038 70.0823 51.2876C64.9303 52.5174 56.6247 49.6877 55.6216 49.199M81.7467 53.5198C82.3879 53.572 83.7607 54.0552 84.1223 55.5702C84.4839 57.0851 82.7817 58.6616 81.8853 59.2605M81.8853 59.2605C79.749 60.9632 72.9173 64.9723 62.681 67.3866C49.8857 70.4045 41.5928 70.3076 37.1324 69.4779C33.5641 68.8142 31.6134 67.9781 31.0841 67.6429M55.6216 49.199C55.8236 48.1885 56.1256 45.7397 55.7171 44.0285M55.6216 49.199C52.0942 55.9298 47.5711 57.7002 41.3064 59.1956C35.0416 60.6911 30.4789 58.3563 27.4359 56.434C25.0015 54.8961 23.3977 51.2712 22.9001 49.651M55.7171 44.0285L55.7095 43.9969M55.7171 44.0285C55.7146 44.018 55.7121 44.0075 55.7095 43.9969M19.5412 50.6954C20.9569 50.7105 22.026 50.2693 22.9001 49.651M22.9001 49.651C23.7855 49.0248 24.4709 48.2168 25.1141 47.5173C26.3922 46.1272 26.7107 43.3563 32.0325 39.846C37.3543 36.3358 44.0027 34.8636 49.1868 36.5764C51.4598 37.3274 52.8968 38.4413 53.837 39.6357M52.4298 36.5524C52.6993 37.0205 53.1659 37.8881 53.4931 38.6462M52.4298 36.5524C51.8734 36.0423 51.1277 35.3602 50.3491 34.6504M53.837 39.6357C53.7849 39.3752 53.6564 39.0243 53.4931 38.6462M53.837 39.6357C55.0306 41.1521 55.4235 42.7983 55.7095 43.9969M53.4931 38.6462C55.1721 36.4169 59.6901 31.6816 64.3309 30.5738C70.132 29.189 74.1735 27.198 81.4099 32.6047M46.4095 31.1095C45.2325 30.5314 41.8532 29.3982 37.7521 29.4903C32.6257 29.6053 27.0287 30.7619 21.66 37.0174M46.4095 31.1095C46.8009 31.4265 48.653 33.1041 50.3491 34.6504M50.3491 34.6504C48.8531 33.9866 44.1576 33.0657 37.3437 34.6923C28.8264 36.7254 22.1907 46.3807 20.9075 47.8978" stroke="black" stroke-width="1.2" stroke-linecap="round"/>
<path d="M39.5796 24.1588C36.4575 18.8005 28.4525 8.19187 21.4082 8.62381" stroke="black" stroke-width="1.2" stroke-linecap="round"/>
<ellipse cx="1.93285" cy="1.1962" rx="1.93285" ry="1.1962" transform="matrix(-0.985058 -0.172221 -0.172221 0.985058 24.4766 8.20398)" fill="black"/>
<path fill-rule="evenodd" clip-rule="evenodd" d="M70.4516 47.5948C66.2681 48.5934 62.0671 46.0116 61.0685 41.828C60.0699 37.6445 62.6517 33.4436 66.8352 32.4449C71.0187 31.4463 75.2197 34.0281 76.2184 38.2116C77.217 42.3952 74.6351 46.5961 70.4516 47.5948ZM65.5619 40.5026C63.9964 40.8763 62.4244 39.9101 62.0507 38.3447C61.677 36.7792 62.6432 35.2072 64.2086 34.8335C65.7741 34.4598 67.3461 35.426 67.7198 36.9914C68.0935 38.5569 67.1274 40.1289 65.5619 40.5026Z" fill="black"/>
<path fill-rule="evenodd" clip-rule="evenodd" d="M40.6001 55.4305C36.4165 56.4291 32.2156 53.8472 31.2169 49.6637C30.2183 45.4802 32.8001 41.2792 36.9837 40.2806C41.1672 39.282 45.3682 41.8638 46.3668 46.0473C47.3654 50.2309 44.7836 54.4318 40.6001 55.4305ZM35.6208 48.2313C34.0889 48.5969 32.5506 47.6515 32.1849 46.1196C31.8193 44.5877 32.7647 43.0495 34.2966 42.6838C35.8285 42.3181 37.3668 43.2635 37.7324 44.7954C38.0981 46.3273 37.1527 47.8656 35.6208 48.2313Z" fill="black"/>
<path d="M41.2088 24.4684C41.4517 20.6027 43.1005 12.1691 47.7524 9.3605C52.4043 6.55187 55.4339 6.34116 56.3672 6.58688" stroke="black" stroke-width="1.2" stroke-linecap="round"/>
<ellipse cx="2.12884" cy="1.31749" rx="2.12884" ry="1.31749" transform="matrix(-0.998788 0.0492175 0.0492175 0.998788 57.8789 5.81287)" fill="black"/>
<path d="M111.28 44.81C113.512 44.575 115.823 44.3009 118.015 44.4184C119.621 44.4575 121.226 44.81 122.597 45.3973C127.609 47.6684 129.019 53.9728 125.455 58.1626C122.362 61.7651 118.329 63.4097 113.63 62.8223C110.027 62.3133 107.717 60.0421 106.151 56.9487C104.663 54.2469 104.114 51.2317 103.762 48.1775C102.94 41.4033 103.762 34.6682 105.093 28.0506C105.289 27.3458 105.446 26.6801 105.759 26.0928C106.699 24.1349 108.696 23.2343 110.693 23.9391C112.612 24.6439 113.277 26.2886 112.768 28.5597C111.672 33.0628 110.341 40.7376 111.28 44.81ZM112.22 51.7799C113.238 56.1264 115.862 57.027 118.877 54.521C119.503 53.9728 120.091 53.3071 119.738 52.3673C119.464 51.545 118.603 51.3884 117.898 51.3884C116.097 51.545 114.217 51.6625 112.22 51.7799ZM152.375 52.798C152.923 52.5631 153.55 52.1715 154.176 52.1324C155.938 51.7799 157.583 52.6023 158.249 54.1294C158.875 55.539 158.444 57.262 156.878 58.2801C151.905 61.7259 145.327 62 139.805 60.6687C131.191 58.6325 127.667 48.3341 132.953 40.9725C137.104 35.2164 145.405 33.1019 151.788 36.1953C152.532 36.5869 153.276 36.9785 153.863 37.5267C157.387 40.4243 157.426 44.8883 153.941 47.8251C151.083 50.3311 147.559 51.5058 143.799 52.054C142.468 52.289 141.176 52.3673 139.845 52.4848C142.938 55.1866 148.772 54.5601 152.375 52.798ZM148.733 42.8521C145.092 41.0117 140.941 42.1081 139.375 45.1624C142.742 45.4756 145.718 44.6925 148.733 42.8521ZM183.693 52.798C184.241 52.5631 184.868 52.1715 185.494 52.1324C187.256 51.7799 188.901 52.6023 189.567 54.1294C190.193 55.539 189.762 57.262 188.196 58.2801C183.223 61.7259 176.645 62 171.124 60.6687C162.509 58.6325 158.985 48.3341 164.271 40.9725C168.422 35.2164 176.723 33.1019 183.106 36.1953C183.85 36.5869 184.594 36.9785 185.181 37.5267C188.705 40.4243 188.744 44.8883 185.259 47.8251C182.401 50.3311 178.877 51.5058 175.118 52.054C173.786 52.289 172.494 52.3673 171.163 52.4848C174.256 55.1866 180.091 54.5601 183.693 52.798ZM180.051 42.8521C176.41 41.0117 172.259 42.1081 170.693 45.1624C174.06 45.4756 177.036 44.6925 180.051 42.8521Z" fill="#3A2F16"/>
<defs>
<linearGradient id="paint0_linear_21_10315" x1="37.5819" y1="20.7777" x2="52.0124" y2="81.2302" gradientUnits="userSpaceOnUse">
<stop offset="0.465" stop-color="#FFE564"/>
<stop offset="1" stop-color="#F4B92F"/>
</linearGradient>
<linearGradient id="paint1_linear_21_10315" x1="37.5819" y1="20.7777" x2="52.0124" y2="81.2302" gradientUnits="userSpaceOnUse">
<stop offset="0.465" stop-color="#FFE564"/>
<stop offset="1" stop-color="#F4B92F"/>
</linearGradient>
<linearGradient id="paint2_linear_21_10315" x1="37.5819" y1="20.7777" x2="52.0124" y2="81.2302" gradientUnits="userSpaceOnUse">
<stop offset="0.465" stop-color="#FFE564"/>
<stop offset="1" stop-color="#F4B92F"/>
</linearGradient>
<linearGradient id="paint3_linear_21_10315" x1="37.5819" y1="20.7777" x2="52.0124" y2="81.2302" gradientUnits="userSpaceOnUse">
<stop offset="0.465" stop-color="#FFE564"/>
<stop offset="1" stop-color="#F4B92F"/>
</linearGradient>
</defs>
</svg>
