<svg width="192" height="84" viewBox="0 0 192 84" fill="none" xmlns="http://www.w3.org/2000/svg">
<path d="M75.7088 67.1347C73.4818 70.4681 65.603 77.8552 51.9035 80.7365C34.7793 84.3382 11.4839 86.1195 6.99902 67.3312C4.39226 56.4109 8.37749 49.0789 10.4854 46.4967C10.5135 41.1694 12.671 29.442 21.0762 25.1512C28.9047 21.1547 35.7445 21.071 41.0055 24.6389C42.8051 25.8593 44.42 27.5071 45.8266 29.5717C45.783 29.7249 45.8386 30.147 46.4095 30.6094C46.8009 30.9264 48.653 32.604 50.3491 34.1503C51.1277 34.8601 51.8734 35.5422 52.4298 36.0524C52.6993 36.5205 53.1659 37.388 53.4931 38.1461C53.6564 38.5242 53.7849 38.8752 53.837 39.1357C52.8968 37.9412 51.4598 36.8274 49.1868 36.0764C44.0027 34.3636 37.3543 35.8357 32.0325 39.346C26.7107 42.8563 26.3922 45.6272 25.1141 47.0172C24.4709 47.7167 23.7855 48.5247 22.9001 49.151C23.3977 50.7712 25.0015 54.396 27.4359 55.9339C30.4789 57.8562 35.0416 60.191 41.3064 58.6956C47.5711 57.2001 52.0942 55.4298 55.6216 48.6989C56.6247 49.1877 64.9303 52.0174 70.0823 50.7876C74.2038 49.8037 77.0833 48.3036 78.0078 47.6765C79.1362 48.5876 81.4639 50.9317 81.7467 53.0197C80.2955 54.4798 75.8777 57.9804 69.8161 60.3017C62.239 63.2033 52.414 64.9293 47.3928 65.1078C42.3715 65.2864 32.7872 62.984 30.5402 63.3382C28.2932 63.6924 26.0795 64.9495 26.4338 67.1965C26.788 69.4435 28.0368 71.6227 32.7534 72.6097C37.4699 73.5968 48.5355 74.0156 58.6475 71.966C66.7372 70.3264 73.3924 68.062 75.7088 67.1347Z" fill="url(#paint0_linear_21_5051)"/>
<path d="M81.7467 53.0197C82.3879 53.072 83.7607 53.5552 84.1223 55.0701C84.4839 56.585 82.7817 58.1615 81.8853 58.7604C82.6658 59.7741 83.5452 62.2783 80.8188 64.185C78.0924 66.0916 76.2761 66.9459 75.7088 67.1347C73.3924 68.062 66.7372 70.3264 58.6475 71.966C48.5355 74.0156 37.4699 73.5968 32.7534 72.6097C28.0368 71.6227 26.788 69.4435 26.4338 67.1965C26.0795 64.9495 28.2932 63.6924 30.5402 63.3382C32.7872 62.984 42.3715 65.2864 47.3928 65.1078C52.414 64.9293 62.239 63.2033 69.8161 60.3017C75.8777 57.9804 80.2955 54.4798 81.7467 53.0197Z" fill="#E49395"/>
<path d="M55.7171 43.5285C56.1256 45.2396 55.8236 47.6884 55.6216 48.6989C52.0942 55.4298 47.5711 57.2001 41.3064 58.6956C35.0416 60.191 30.4789 57.8562 27.4359 55.9339C25.0015 54.396 23.3977 50.7712 22.9001 49.151C23.7855 48.5247 24.4709 47.7167 25.1141 47.0172C26.3922 45.6272 26.7107 42.8563 32.0325 39.346C37.3543 35.8357 44.0027 34.3636 49.1868 36.0764C51.4598 36.8274 52.8968 37.9412 53.837 39.1357C55.0306 40.652 55.4235 42.2983 55.7095 43.4968L55.7171 43.5285Z" fill="white"/>
<path d="M83.3712 36.9272C84.6369 42.2295 80.323 46.3027 78.0078 47.6765C77.0833 48.3036 74.2038 49.8037 70.0823 50.7876C64.9303 52.0174 56.6247 49.1877 55.6216 48.6989C55.8236 47.6884 56.1256 45.2396 55.7171 43.5285L55.7095 43.4968C55.4235 42.2983 55.0306 40.652 53.837 39.1357C53.7849 38.8752 53.6564 38.5242 53.4931 38.1461C55.1721 35.9169 59.6901 31.1815 64.3309 30.0737C70.132 28.689 74.1735 26.6979 81.4099 32.1046C82.2068 33.4266 82.919 35.0331 83.3712 36.9272Z" fill="white"/>
<path d="M64.7421 27.8166C71.7142 26.1523 76.0245 27.0554 77.3082 27.715C78.2682 28.2687 79.9761 29.726 81.4099 32.1046C74.1735 26.6979 70.132 28.689 64.3309 30.0737C59.6901 31.1815 55.1721 35.9169 53.4931 38.1461C53.1659 37.388 52.6993 36.5205 52.4298 36.0524C53.6289 34.0006 57.77 29.4809 64.7421 27.8166Z" fill="url(#paint1_linear_21_5051)"/>
<path d="M66.5104 23.3624C68.7199 23.411 73.9727 24.3495 77.3082 27.715C76.0245 27.0554 71.7142 26.1523 64.7421 27.8166C57.77 29.4809 53.6289 34.0006 52.4298 36.0524C51.8734 35.5422 51.1277 34.8601 50.3491 34.1503C48.653 32.604 46.8009 30.9264 46.4095 30.6094C48.2125 29.1151 53.1688 25.8041 58.5708 24.5146C63.9728 23.2251 66.1147 23.2092 66.5104 23.3624Z" fill="url(#paint2_linear_21_5051)"/>
<path d="M45.8266 29.5717C44.42 27.5071 42.8051 25.8593 41.0055 24.6389C41.8248 22.8034 45.0612 18.7511 51.4524 17.2254C59.4413 15.3184 65.7546 20.196 66.5104 23.3624C66.1147 23.2092 63.9728 23.2251 58.5708 24.5146C53.1688 25.8041 48.2125 29.1151 46.4095 30.6094C45.8386 30.147 45.783 29.7249 45.8266 29.5717Z" fill="url(#paint3_linear_21_5051)"/>
<path d="M75.7088 67.1347C73.4818 70.4681 65.603 77.8552 51.9035 80.7365C34.7793 84.3382 11.4839 86.1195 6.99902 67.3312C4.39226 56.4109 8.37749 49.0789 10.4854 46.4967M75.7088 67.1347C76.2761 66.9459 78.0924 66.0916 80.8188 64.185C83.5452 62.2783 82.6658 59.7741 81.8853 58.7604M75.7088 67.1347C73.3924 68.062 66.7372 70.3264 58.6475 71.966C48.5355 74.0156 37.4699 73.5968 32.7534 72.6097C28.0368 71.6226 26.788 69.4435 26.4338 67.1965C26.0795 64.9495 28.2932 63.6924 30.5402 63.3382C32.7872 62.984 42.3715 65.2864 47.3928 65.1078C52.414 64.9293 62.239 63.2033 69.8161 60.3017C75.8777 57.9804 80.2955 54.4798 81.7467 53.0197M10.4854 46.4967C10.5024 48.2457 10.8838 50.8772 11.0725 51.9743M10.4854 46.4967C10.5135 41.1694 12.671 29.442 21.0762 25.1512C28.9047 21.1547 35.7445 21.071 41.0055 24.6389M41.0055 24.6389C42.8051 25.8593 44.42 27.5071 45.8266 29.5717C45.783 29.7249 45.8386 30.147 46.4095 30.6094M41.0055 24.6389C41.8248 22.8034 45.0612 18.7511 51.4524 17.2254C59.4413 15.3184 65.7546 20.196 66.5104 23.3624M66.5104 23.3624C68.7199 23.411 73.9727 24.3495 77.3082 27.715M66.5104 23.3624C66.1147 23.2092 63.9728 23.2251 58.5708 24.5146C53.1688 25.8041 48.2125 29.1151 46.4095 30.6094M77.3082 27.715C76.0245 27.0554 71.7142 26.1523 64.7421 27.8166C57.77 29.4809 53.6289 34.0006 52.4298 36.0524M77.3082 27.715C78.2682 28.2687 79.9761 29.726 81.4099 32.1046M78.0078 47.6765C80.323 46.3027 84.6369 42.2295 83.3712 36.9272C82.919 35.0331 82.2068 33.4266 81.4099 32.1046M78.0078 47.6765C79.1362 48.5876 81.4639 50.9317 81.7467 53.0197M78.0078 47.6765C77.0833 48.3036 74.2038 49.8037 70.0823 50.7876C64.9303 52.0174 56.6247 49.1877 55.6216 48.6989M81.7467 53.0197C82.3879 53.072 83.7607 53.5552 84.1223 55.0701C84.4839 56.585 82.7817 58.1615 81.8853 58.7604M81.8853 58.7604C79.749 60.4632 72.9173 64.4722 62.681 66.8865C49.8857 69.9045 41.5928 69.8075 37.1324 68.9779C33.5641 68.3141 31.6134 67.478 31.0841 67.1429M55.6216 48.6989C55.8236 47.6884 56.1256 45.2396 55.7171 43.5285M55.6216 48.6989C52.0942 55.4298 47.5711 57.2001 41.3064 58.6956C35.0416 60.191 30.4789 57.8562 27.4359 55.9339C25.0015 54.396 23.3977 50.7712 22.9001 49.151M55.7171 43.5285L55.7095 43.4968M55.7171 43.5285C55.7146 43.518 55.7121 43.5074 55.7095 43.4968M19.5412 50.1953C20.9569 50.2104 22.026 49.7692 22.9001 49.151M22.9001 49.151C23.7855 48.5247 24.4709 47.7167 25.1141 47.0172C26.3922 45.6272 26.7107 42.8563 32.0325 39.346C37.3543 35.8357 44.0027 34.3636 49.1868 36.0764C51.4598 36.8274 52.8968 37.9412 53.837 39.1357M52.4298 36.0524C52.6993 36.5205 53.1659 37.388 53.4931 38.1461M52.4298 36.0524C51.8734 35.5422 51.1277 34.8601 50.3491 34.1503M53.837 39.1357C53.7849 38.8752 53.6564 38.5242 53.4931 38.1461M53.837 39.1357C55.0306 40.652 55.4235 42.2983 55.7095 43.4968M53.4931 38.1461C55.1721 35.9169 59.6901 31.1815 64.3309 30.0737C70.132 28.689 74.1735 26.6979 81.4099 32.1046M46.4095 30.6094C45.2325 30.0313 41.8532 28.8982 37.7521 28.9902C32.6257 29.1052 27.0287 30.2619 21.66 36.5173M46.4095 30.6094C46.8009 30.9264 48.653 32.604 50.3491 34.1503M50.3491 34.1503C48.8531 33.4866 44.1576 32.5657 37.3437 34.1922C28.8264 36.2253 22.1907 45.8807 20.9075 47.3977" stroke="black" stroke-width="1.2" stroke-linecap="round"/>
<path d="M39.5796 23.6588C36.4575 18.3005 28.4525 7.69193 21.4082 8.12387" stroke="black" stroke-width="1.2" stroke-linecap="round"/>
<ellipse cx="1.93285" cy="1.1962" rx="1.93285" ry="1.1962" transform="matrix(-0.985058 -0.172221 -0.172221 0.985058 24.4766 7.7041)" fill="black"/>
<path fill-rule="evenodd" clip-rule="evenodd" d="M70.4516 47.0948C66.2681 48.0934 62.0671 45.5116 61.0685 41.328C60.0699 37.1445 62.6517 32.9436 66.8352 31.9449C71.0187 30.9463 75.2197 33.5281 76.2184 37.7116C77.217 41.8952 74.6351 46.0961 70.4516 47.0948ZM65.5619 40.0026C63.9964 40.3763 62.4244 39.4101 62.0507 37.8447C61.677 36.2792 62.6432 34.7072 64.2086 34.3335C65.7741 33.9598 67.3461 34.926 67.7198 36.4914C68.0935 38.0569 67.1274 39.6289 65.5619 40.0026Z" fill="black"/>
<path fill-rule="evenodd" clip-rule="evenodd" d="M40.6001 54.9305C36.4165 55.9291 32.2156 53.3472 31.2169 49.1637C30.2183 44.9802 32.8001 40.7792 36.9837 39.7806C41.1672 38.782 45.3682 41.3638 46.3668 45.5473C47.3654 49.7309 44.7836 53.9318 40.6001 54.9305ZM35.6208 47.7313C34.0889 48.097 32.5506 47.1516 32.1849 45.6197C31.8193 44.0878 32.7647 42.5495 34.2966 42.1838C35.8285 41.8182 37.3668 42.7636 37.7324 44.2955C38.0981 45.8274 37.1527 47.3657 35.6208 47.7313Z" fill="black"/>
<path d="M41.2088 23.9683C41.4517 20.1026 43.1005 11.6691 47.7524 8.86044C52.4043 6.05181 55.4339 5.8411 56.3672 6.08682" stroke="black" stroke-width="1.2" stroke-linecap="round"/>
<ellipse cx="2.12884" cy="1.31749" rx="2.12884" ry="1.31749" transform="matrix(-0.998788 0.0492175 0.0492175 0.998788 57.8789 5.31274)" fill="black"/>
<mask id="path-9-outside-1_21_5051" maskUnits="userSpaceOnUse" x="101" y="20.5" width="91" height="44" fill="black">
<rect fill="white" x="101" y="20.5" width="91" height="44"/>
<path d="M111.28 44.31C113.512 44.075 115.823 43.8009 118.015 43.9184C119.621 43.9575 121.226 44.31 122.597 44.8973C127.609 47.1684 129.019 53.4728 125.455 57.6626C122.362 61.2651 118.329 62.9097 113.63 62.3223C110.027 61.8133 107.717 59.5421 106.151 56.4487C104.663 53.7469 104.114 50.7317 103.762 47.6775C102.94 40.9033 103.762 34.1682 105.093 27.5506C105.289 26.8458 105.446 26.1801 105.759 25.5928C106.699 23.6349 108.696 22.7343 110.693 23.4391C112.612 24.1439 113.277 25.7886 112.768 28.0597C111.672 32.5628 110.341 40.2376 111.28 44.31ZM112.22 51.2799C113.238 55.6264 115.862 56.527 118.877 54.021C119.503 53.4728 120.091 52.8071 119.738 51.8673C119.464 51.045 118.603 50.8884 117.898 50.8884C116.097 51.045 114.217 51.1625 112.22 51.2799ZM152.375 52.298C152.923 52.0631 153.55 51.6715 154.176 51.6324C155.938 51.2799 157.583 52.1023 158.249 53.6294C158.875 55.039 158.444 56.762 156.878 57.7801C151.905 61.2259 145.327 61.5 139.805 60.1687C131.191 58.1325 127.667 47.8341 132.953 40.4725C137.104 34.7164 145.405 32.6019 151.788 35.6953C152.532 36.0869 153.276 36.4785 153.863 37.0267C157.387 39.9243 157.426 44.3883 153.941 47.3251C151.083 49.8311 147.559 51.0058 143.799 51.554C142.468 51.789 141.176 51.8673 139.845 51.9848C142.938 54.6866 148.772 54.0601 152.375 52.298ZM148.733 42.3521C145.092 40.5117 140.941 41.6081 139.375 44.6624C142.742 44.9756 145.718 44.1925 148.733 42.3521ZM183.693 52.298C184.241 52.0631 184.868 51.6715 185.494 51.6324C187.256 51.2799 188.901 52.1023 189.567 53.6294C190.193 55.039 189.762 56.762 188.196 57.7801C183.223 61.2259 176.645 61.5 171.124 60.1687C162.509 58.1325 158.985 47.8341 164.271 40.4725C168.422 34.7164 176.723 32.6019 183.106 35.6953C183.85 36.0869 184.594 36.4785 185.181 37.0267C188.705 39.9243 188.744 44.3883 185.259 47.3251C182.401 49.8311 178.877 51.0058 175.118 51.554C173.786 51.789 172.494 51.8673 171.163 51.9848C174.256 54.6866 180.091 54.0601 183.693 52.298ZM180.051 42.3521C176.41 40.5117 172.259 41.6081 170.693 44.6624C174.06 44.9756 177.036 44.1925 180.051 42.3521Z"/>
</mask>
<path d="M111.28 44.31C113.512 44.075 115.823 43.8009 118.015 43.9184C119.621 43.9575 121.226 44.31 122.597 44.8973C127.609 47.1684 129.019 53.4728 125.455 57.6626C122.362 61.2651 118.329 62.9097 113.63 62.3223C110.027 61.8133 107.717 59.5421 106.151 56.4487C104.663 53.7469 104.114 50.7317 103.762 47.6775C102.94 40.9033 103.762 34.1682 105.093 27.5506C105.289 26.8458 105.446 26.1801 105.759 25.5928C106.699 23.6349 108.696 22.7343 110.693 23.4391C112.612 24.1439 113.277 25.7886 112.768 28.0597C111.672 32.5628 110.341 40.2376 111.28 44.31ZM112.22 51.2799C113.238 55.6264 115.862 56.527 118.877 54.021C119.503 53.4728 120.091 52.8071 119.738 51.8673C119.464 51.045 118.603 50.8884 117.898 50.8884C116.097 51.045 114.217 51.1625 112.22 51.2799ZM152.375 52.298C152.923 52.0631 153.55 51.6715 154.176 51.6324C155.938 51.2799 157.583 52.1023 158.249 53.6294C158.875 55.039 158.444 56.762 156.878 57.7801C151.905 61.2259 145.327 61.5 139.805 60.1687C131.191 58.1325 127.667 47.8341 132.953 40.4725C137.104 34.7164 145.405 32.6019 151.788 35.6953C152.532 36.0869 153.276 36.4785 153.863 37.0267C157.387 39.9243 157.426 44.3883 153.941 47.3251C151.083 49.8311 147.559 51.0058 143.799 51.554C142.468 51.789 141.176 51.8673 139.845 51.9848C142.938 54.6866 148.772 54.0601 152.375 52.298ZM148.733 42.3521C145.092 40.5117 140.941 41.6081 139.375 44.6624C142.742 44.9756 145.718 44.1925 148.733 42.3521ZM183.693 52.298C184.241 52.0631 184.868 51.6715 185.494 51.6324C187.256 51.2799 188.901 52.1023 189.567 53.6294C190.193 55.039 189.762 56.762 188.196 57.7801C183.223 61.2259 176.645 61.5 171.124 60.1687C162.509 58.1325 158.985 47.8341 164.271 40.4725C168.422 34.7164 176.723 32.6019 183.106 35.6953C183.85 36.0869 184.594 36.4785 185.181 37.0267C188.705 39.9243 188.744 44.3883 185.259 47.3251C182.401 49.8311 178.877 51.0058 175.118 51.554C173.786 51.789 172.494 51.8673 171.163 51.9848C174.256 54.6866 180.091 54.0601 183.693 52.298ZM180.051 42.3521C176.41 40.5117 172.259 41.6081 170.693 44.6624C174.06 44.9756 177.036 44.1925 180.051 42.3521Z" fill="white"/>
<path d="M111.28 44.3099L109.331 44.7597L109.729 46.4842L111.49 46.299L111.28 44.3099ZM118.015 43.9184L117.908 45.9155L117.937 45.9171L117.967 45.9178L118.015 43.9184ZM122.597 44.8973L123.422 43.0756L123.403 43.0671L123.385 43.059L122.597 44.8973ZM125.455 57.6626L126.973 58.9655L126.979 58.9583L125.455 57.6626ZM113.63 62.3223L113.35 64.3026L113.366 64.3049L113.382 64.3069L113.63 62.3223ZM106.151 56.4487L107.935 55.5453L107.919 55.5143L107.903 55.4839L106.151 56.4487ZM103.762 47.6775L105.749 47.4482L105.748 47.4365L103.762 47.6775ZM105.093 27.5506L103.166 27.0153L103.147 27.0851L103.133 27.1562L105.093 27.5506ZM105.759 25.5928L107.524 26.5339L107.544 26.4965L107.562 26.4582L105.759 25.5928ZM110.693 23.4391L111.383 21.5618L111.371 21.5574L111.359 21.5531L110.693 23.4391ZM112.768 28.0597L114.711 28.5328L114.716 28.515L114.72 28.4971L112.768 28.0597ZM112.22 51.2799L112.103 49.2834L109.731 49.4229L110.273 51.7361L112.22 51.2799ZM118.877 54.021L120.155 55.559L120.175 55.5428L120.194 55.5261L118.877 54.021ZM119.738 51.8673L117.841 52.4998L117.853 52.5349L117.866 52.5696L119.738 51.8673ZM117.898 50.8884V48.8884H117.811L117.725 48.8959L117.898 50.8884ZM111.49 46.299C113.782 46.0577 115.91 45.8085 117.908 45.9155L118.122 41.9212C115.735 41.7933 113.243 42.0923 111.071 42.3209L111.49 46.299ZM117.967 45.9178C119.325 45.9509 120.679 46.2513 121.809 46.7356L123.385 43.059C121.774 42.3686 119.917 41.9642 118.064 41.919L117.967 45.9178ZM121.771 46.719C125.572 48.4412 126.634 53.1896 123.932 56.3669L126.979 58.9583C131.403 53.756 129.646 45.8957 123.422 43.0756L121.771 46.719ZM123.938 56.3596C121.262 59.4762 117.882 60.8382 113.878 60.3377L113.382 64.3069C118.776 64.9811 123.462 63.0539 126.973 58.9655L123.938 56.3596ZM113.91 60.342C111.156 59.9528 109.312 58.2639 107.935 55.5453L104.366 57.3522C106.122 60.8203 108.899 63.6737 113.35 64.3026L113.91 60.342ZM107.903 55.4839C106.611 53.1386 106.095 50.4485 105.749 47.4482L101.775 47.9067C102.134 51.015 102.714 54.3551 104.399 57.4135L107.903 55.4839ZM105.748 47.4365C104.963 40.9702 105.74 34.4763 107.054 27.9451L103.133 27.1562C101.784 33.8601 100.917 40.8363 101.777 47.9185L105.748 47.4365ZM107.02 28.0859C107.251 27.2546 107.342 26.8742 107.524 26.5339L103.994 24.6516C103.549 25.486 103.327 26.437 103.166 27.0153L107.02 28.0859ZM107.562 26.4582C108.096 25.3453 109.07 24.9872 110.027 25.3251L111.359 21.5531C108.322 20.4813 105.301 21.9245 103.956 24.7273L107.562 26.4582ZM110.003 25.3165C110.529 25.5095 110.716 25.7508 110.809 25.9637C110.926 26.2317 111.013 26.7449 110.817 27.6223L114.72 28.4971C115.032 27.1033 115.041 25.6586 114.473 24.3604C113.881 23.007 112.776 22.0736 111.383 21.5618L110.003 25.3165ZM110.825 27.5865C110.262 29.8993 109.638 33.025 109.274 36.1123C108.918 39.1353 108.779 42.3653 109.331 44.7597L113.229 43.8602C112.842 42.1823 112.898 39.5387 113.247 36.5804C113.588 33.6864 114.178 30.7232 114.711 28.5328L110.825 27.5865ZM110.273 51.7361C110.834 54.133 111.985 56.2642 114.069 57.0819C116.227 57.9287 118.413 57.0073 120.155 55.559L117.598 52.4829C116.326 53.5407 115.692 53.422 115.53 53.3584C115.294 53.2657 114.624 52.7733 114.167 50.8238L110.273 51.7361ZM120.194 55.5261C120.54 55.223 121.09 54.7129 121.453 54.0051C121.869 53.1967 122.002 52.2089 121.611 51.1651L117.866 52.5696C117.859 52.5524 117.838 52.4799 117.846 52.373C117.854 52.27 117.884 52.2002 117.896 52.1768C117.904 52.1606 117.894 52.1854 117.833 52.2533C117.773 52.3213 117.686 52.4051 117.56 52.5158L120.194 55.5261ZM121.636 51.2349C121.283 50.1758 120.516 49.5459 119.754 49.2257C119.061 48.9341 118.362 48.8884 117.898 48.8884V52.8884C118.004 52.8884 118.087 52.8945 118.149 52.9037C118.212 52.9132 118.225 52.922 118.205 52.9132C118.18 52.903 118.105 52.8666 118.02 52.7817C117.929 52.6904 117.87 52.586 117.841 52.4998L121.636 51.2349ZM117.725 48.8959C115.954 49.0499 114.098 49.166 112.103 49.2834L112.337 53.2765C114.336 53.159 116.24 53.0401 118.071 52.8809L117.725 48.8959ZM152.375 52.298L151.587 50.4597L151.541 50.4795L151.496 50.5014L152.375 52.298ZM154.176 51.6324L154.301 53.6285L154.436 53.62L154.568 53.5935L154.176 51.6324ZM158.249 53.6294L156.415 54.4286L156.418 54.4351L156.421 54.4417L158.249 53.6294ZM156.878 57.7801L155.788 56.1032L155.763 56.1193L155.739 56.1361L156.878 57.7801ZM139.805 60.1687L140.274 58.2244L140.265 58.2223L139.805 60.1687ZM132.953 40.4725L131.331 39.3028L131.328 39.306L132.953 40.4725ZM151.788 35.6953L152.719 33.9255L152.69 33.9101L152.66 33.8956L151.788 35.6953ZM153.863 37.0267L152.498 38.4888L152.544 38.5317L152.593 38.5715L153.863 37.0267ZM153.941 47.3251L152.652 45.7957L152.637 45.8083L152.623 45.8212L153.941 47.3251ZM143.799 51.554L143.511 49.575L143.481 49.5793L143.452 49.5845L143.799 51.554ZM139.845 51.9848L139.669 49.9925L134.995 50.4049L138.529 53.4911L139.845 51.9848ZM148.733 42.3521L149.775 44.0592L152.842 42.1875L149.635 40.5671L148.733 42.3521ZM139.375 44.6624L137.595 43.7497L136.246 46.38L139.189 46.6538L139.375 44.6624ZM153.163 54.1363C153.349 54.0566 153.532 53.9677 153.67 53.9012C153.822 53.8278 153.935 53.7731 154.045 53.7255C154.278 53.6238 154.337 53.6262 154.301 53.6285L154.051 49.6363C153.389 49.6777 152.821 49.8955 152.448 50.0581C152.254 50.1426 152.069 50.2323 151.929 50.2996C151.776 50.3739 151.675 50.422 151.587 50.4597L153.163 54.1363ZM154.568 53.5935C155.486 53.41 156.157 53.8354 156.415 54.4286L160.082 52.8302C159.009 50.3691 156.39 49.1499 153.784 49.6712L154.568 53.5935ZM156.421 54.4417C156.635 54.9229 156.558 55.6026 155.788 56.1032L157.968 59.4569C160.33 57.9213 161.115 55.1552 160.076 52.8171L156.421 54.4417ZM155.739 56.1361C151.395 59.1464 145.464 59.4757 140.274 58.2244L139.337 62.1129C145.189 63.5243 152.415 63.3054 158.017 59.424L155.739 56.1361ZM140.265 58.2223C133.151 56.5408 130.051 47.942 134.577 41.6391L131.328 39.306C125.282 47.7262 129.23 59.7242 139.345 62.115L140.265 58.2223ZM134.575 41.6423C138.16 36.6703 145.411 34.8274 150.915 37.4951L152.66 33.8956C145.399 30.3765 136.047 32.7625 131.331 39.3028L134.575 41.6423ZM150.856 37.4652C151.65 37.8828 152.142 38.1561 152.498 38.4888L155.228 35.5646C154.409 34.8009 153.414 34.291 152.719 33.9255L150.856 37.4652ZM152.593 38.5715C153.959 39.6948 154.521 41.0001 154.531 42.1771C154.54 43.3529 154 44.6603 152.652 45.7957L155.23 48.8544C157.368 47.053 158.55 44.66 158.53 42.1453C158.51 39.6318 157.291 37.2562 155.133 35.4818L152.593 38.5715ZM152.623 45.8212C150.16 47.9803 147.056 49.058 143.511 49.575L144.088 53.5331C148.061 52.9537 152.005 51.682 155.26 48.8289L152.623 45.8212ZM143.452 49.5845C142.232 49.7997 141.071 49.8688 139.669 49.9925L140.02 53.977C141.28 53.8659 142.704 53.7782 144.147 53.5236L143.452 49.5845ZM138.529 53.4911C140.594 55.2948 143.396 55.8587 145.953 55.8151C148.54 55.771 151.188 55.1051 153.254 54.0946L151.496 50.5014C149.96 51.253 147.889 51.7815 145.885 51.8157C143.85 51.8504 142.189 51.3766 141.16 50.4784L138.529 53.4911ZM149.635 40.5671C145.246 38.3488 139.775 39.4988 137.595 43.7497L141.154 45.575C142.107 43.7174 144.937 42.6746 147.831 44.1371L149.635 40.5671ZM139.189 46.6538C143.035 47.0115 146.437 46.0969 149.775 44.0592L147.691 40.645C144.999 42.2881 142.449 42.9397 139.56 42.671L139.189 46.6538ZM183.693 52.298L182.905 50.4597L182.859 50.4795L182.814 50.5014L183.693 52.298ZM185.494 51.6324L185.619 53.6285L185.754 53.62L185.887 53.5935L185.494 51.6324ZM189.567 53.6294L187.733 54.4286L187.736 54.4351L187.739 54.4417L189.567 53.6294ZM188.196 57.7801L187.106 56.1032L187.081 56.1193L187.057 56.1361L188.196 57.7801ZM171.124 60.1687L171.592 58.2244L171.584 58.2223L171.124 60.1687ZM164.271 40.4725L162.649 39.3028L162.647 39.306L164.271 40.4725ZM183.106 35.6953L184.037 33.9255L184.008 33.9101L183.978 33.8956L183.106 35.6953ZM185.181 37.0267L183.816 38.4888L183.862 38.5317L183.911 38.5715L185.181 37.0267ZM185.259 47.3251L183.971 45.7957L183.956 45.8083L183.941 45.8212L185.259 47.3251ZM175.118 51.554L174.829 49.575L174.8 49.5793L174.77 49.5845L175.118 51.554ZM171.163 51.9848L170.987 49.9925L166.314 50.4049L169.847 53.4911L171.163 51.9848ZM180.051 42.3521L181.093 44.0592L184.16 42.1875L180.954 40.5671L180.051 42.3521ZM170.693 44.6624L168.913 43.7497L167.564 46.38L170.508 46.6538L170.693 44.6624ZM184.481 54.1363C184.667 54.0566 184.85 53.9677 184.988 53.9012C185.14 53.8278 185.253 53.7731 185.363 53.7255C185.596 53.6238 185.655 53.6262 185.619 53.6285L185.37 49.6363C184.707 49.6777 184.139 49.8955 183.766 50.0581C183.572 50.1426 183.387 50.2323 183.248 50.2996C183.094 50.3739 182.993 50.422 182.905 50.4597L184.481 54.1363ZM185.887 53.5935C186.804 53.41 187.475 53.8354 187.733 54.4286L191.4 52.8302C190.327 50.3691 187.709 49.1499 185.102 49.6712L185.887 53.5935ZM187.739 54.4417C187.953 54.9229 187.876 55.6026 187.106 56.1032L189.286 59.4569C191.649 57.9213 192.433 55.1552 191.394 52.8171L187.739 54.4417ZM187.057 56.1361C182.713 59.1464 176.782 59.4757 171.592 58.2244L170.655 62.1129C176.508 63.5243 183.734 63.3054 189.335 59.424L187.057 56.1361ZM171.584 58.2223C164.47 56.5408 161.37 47.942 165.896 41.6391L162.647 39.306C156.6 47.7262 160.548 59.7242 170.664 62.115L171.584 58.2223ZM165.893 41.6423C169.479 36.6703 176.729 34.8274 182.233 37.4951L183.978 33.8956C176.717 30.3765 167.365 32.7625 162.649 39.3028L165.893 41.6423ZM182.174 37.4652C182.968 37.8828 183.46 38.1561 183.816 38.4888L186.546 35.5646C185.727 34.8009 184.732 34.291 184.037 33.9255L182.174 37.4652ZM183.911 38.5715C185.277 39.6948 185.839 41.0001 185.849 42.1771C185.858 43.3529 185.318 44.6603 183.971 45.7957L186.548 48.8544C188.686 47.053 189.869 44.66 189.849 42.1453C189.829 39.6318 188.609 37.2562 186.451 35.4818L183.911 38.5715ZM183.941 45.8212C181.478 47.9803 178.374 49.058 174.829 49.575L175.406 53.5331C179.38 52.9537 183.324 51.682 186.578 48.8289L183.941 45.8212ZM174.77 49.5845C173.55 49.7997 172.39 49.8688 170.987 49.9925L171.339 53.977C172.599 53.8659 174.022 53.7782 175.465 53.5236L174.77 49.5845ZM169.847 53.4911C171.912 55.2948 174.714 55.8587 177.271 55.8151C179.858 55.771 182.506 55.1051 184.572 54.0946L182.814 50.5014C181.278 51.253 179.207 51.7815 177.203 51.8157C175.169 51.8504 173.507 51.3766 172.478 50.4784L169.847 53.4911ZM180.954 40.5671C176.564 38.3488 171.093 39.4988 168.913 43.7497L172.473 45.575C173.425 43.7174 176.256 42.6746 179.149 44.1371L180.954 40.5671ZM170.508 46.6538C174.353 47.0115 177.755 46.0969 181.093 44.0592L179.009 40.645C176.318 42.2881 173.767 42.9397 170.878 42.671L170.508 46.6538Z" fill="black" mask="url(#path-9-outside-1_21_5051)"/>
<defs>
<linearGradient id="paint0_linear_21_5051" x1="37.5819" y1="20.2777" x2="52.0124" y2="80.7301" gradientUnits="userSpaceOnUse">
<stop offset="0.465" stop-color="#EBD04A"/>
<stop offset="1" stop-color="#F4B92F"/>
</linearGradient>
<linearGradient id="paint1_linear_21_5051" x1="37.5819" y1="20.2777" x2="52.0124" y2="80.7301" gradientUnits="userSpaceOnUse">
<stop offset="0.465" stop-color="#EBD04A"/>
<stop offset="1" stop-color="#F4B92F"/>
</linearGradient>
<linearGradient id="paint2_linear_21_5051" x1="37.5819" y1="20.2777" x2="52.0124" y2="80.7301" gradientUnits="userSpaceOnUse">
<stop offset="0.465" stop-color="#EBD04A"/>
<stop offset="1" stop-color="#F4B92F"/>
</linearGradient>
<linearGradient id="paint3_linear_21_5051" x1="37.5819" y1="20.2777" x2="52.0124" y2="80.7301" gradientUnits="userSpaceOnUse">
<stop offset="0.465" stop-color="#EBD04A"/>
<stop offset="1" stop-color="#F4B92F"/>
</linearGradient>
</defs>
</svg>
