<svg width="160" height="90" viewBox="0 0 160 90" fill="none" xmlns="http://www.w3.org/2000/svg">
<ellipse cx="73.4346" cy="68.2465" rx="10.7148" ry="3.49316" transform="rotate(-19.7887 73.4346 68.2465)" fill="#B39F36"/>
<ellipse cx="10.7148" cy="3.49316" rx="10.7148" ry="3.49316" transform="matrix(-0.966171 -0.257902 -0.257902 0.966171 109.459 66.5005)" fill="#B39F36"/>
<path d="M73.4329 65.7207C60.8434 49.6042 29.9584 18.509 7.13407 23.0602" stroke="#403917" stroke-width="4.86717" stroke-linecap="round"/>
<mask id="path-4-inside-1_21_5013" fill="white">
<ellipse cx="6.37404" cy="3.94474" rx="6.37404" ry="3.94474" transform="matrix(-0.999297 -0.0374955 -0.0374955 0.999297 16.9746 20.3203)"/>
</mask>
<ellipse cx="6.37404" cy="3.94474" rx="6.37404" ry="3.94474" transform="matrix(-0.999297 -0.0374955 -0.0374955 0.999297 16.9746 20.3203)" fill="black"/>
<path d="M8.95133 23.9668C8.97248 23.4031 8.79362 22.9733 8.64906 22.7438C8.52087 22.5402 8.44204 22.5204 8.56332 22.6019C8.82452 22.7775 9.48975 23.0639 10.4917 23.1015L10.1267 32.829C7.6109 32.7346 5.12447 32.0191 3.13387 30.6814C1.21644 29.3929 -0.903506 26.9958 -0.776157 23.6018L8.95133 23.9668ZM10.4917 23.1015C11.4937 23.1391 12.1785 22.9033 12.4522 22.7478C12.5792 22.6757 12.4991 22.6895 12.356 22.8829C12.1947 23.1009 11.9841 23.5161 11.963 24.0798L21.6904 24.4448C21.5631 27.8388 19.2695 30.0703 17.2609 31.2115C15.1756 32.3963 12.6426 32.9234 10.1267 32.829L10.4917 23.1015ZM11.963 24.0798C11.9418 24.6434 12.1207 25.0733 12.2652 25.3028C12.3934 25.5064 12.4722 25.5261 12.351 25.4446C12.0898 25.2691 11.4245 24.9827 10.4226 24.9451L10.7875 15.2176C13.3034 15.312 15.7898 16.0275 17.7804 17.3651C19.6978 18.6537 21.8178 21.0508 21.6904 24.4448L11.963 24.0798ZM10.4226 24.9451C9.42058 24.9075 8.73575 25.1433 8.46213 25.2987C8.33509 25.3709 8.41518 25.3571 8.55826 25.1637C8.71961 24.9457 8.93018 24.5304 8.95133 23.9668L-0.776157 23.6018C-0.648809 20.2078 1.64481 17.9763 3.65341 16.8351C5.73865 15.6503 8.27172 15.1232 10.7875 15.2176L10.4226 24.9451Z" fill="#403917" mask="url(#path-4-inside-1_21_5013)"/>
<path d="M98.2053 65.2483C100.432 52.6707 108.957 25.6452 125.24 18.1634C141.524 10.6817 151.529 11.1126 154.497 12.2633" stroke="#403917" stroke-width="4.86717" stroke-linecap="round"/>
<mask id="path-7-inside-2_21_5013" fill="white">
<ellipse cx="7.02034" cy="4.34472" rx="7.02034" ry="4.34472" transform="matrix(-0.998001 -0.0631995 -0.0631995 0.998001 159.74 10.2874)"/>
</mask>
<ellipse cx="7.02034" cy="4.34472" rx="7.02034" ry="4.34472" transform="matrix(-0.998001 -0.0631995 -0.0631995 0.998001 159.74 10.2874)" fill="black"/>
<path d="M150.31 14.0436C150.343 13.5358 150.19 13.1552 150.081 12.9718C149.987 12.8149 149.954 12.8391 150.129 12.9635C150.498 13.2253 151.314 13.5837 152.492 13.6583L151.877 23.3732C149.186 23.2028 146.561 22.3687 144.493 20.9006C142.497 19.4835 140.374 16.9282 140.596 13.4284L150.31 14.0436ZM152.492 13.6583C153.671 13.733 154.526 13.4804 154.925 13.2672C155.114 13.1659 155.084 13.1376 154.971 13.2815C154.84 13.4497 154.64 13.808 154.608 14.3158L164.323 14.931C164.101 18.4308 161.673 20.6978 159.514 21.8518C157.278 23.0473 154.568 23.5436 151.877 23.3732L152.492 13.6583ZM154.608 14.3158C154.576 14.8236 154.729 15.2042 154.838 15.3876C154.931 15.5446 154.965 15.5204 154.79 15.3959C154.421 15.1341 153.605 14.7758 152.426 14.7011L153.042 4.98624C155.732 5.15663 158.358 5.99075 160.425 7.45885C162.421 8.87592 164.545 11.4312 164.323 14.931L154.608 14.3158ZM152.426 14.7011C151.248 14.6265 150.393 14.879 149.994 15.0922C149.804 15.1936 149.835 15.2218 149.947 15.0779C150.079 14.9097 150.278 14.5514 150.31 14.0436L140.596 13.4284C140.817 9.92861 143.246 7.66162 145.405 6.50764C147.641 5.31209 150.351 4.81585 153.042 4.98624L152.426 14.7011Z" fill="#403917" mask="url(#path-7-inside-2_21_5013)"/>
</svg>
