<svg width="1920" height="241" viewBox="0 0 1920 241" fill="none" xmlns="http://www.w3.org/2000/svg">
<mask id="path-1-outside-1_21_5264" maskUnits="userSpaceOnUse" x="-614.062" y="0.4729" width="2833" height="240" fill="black">
<rect fill="white" x="-614.062" y="0.4729" width="2833" height="240"/>
<path fill-rule="evenodd" clip-rule="evenodd" d="M1808.06 170.447C1823.35 174.591 1840.1 176.876 1857.65 176.876C1893.75 176.876 1926.43 167.21 1950.13 151.575C1967.62 166.409 2010.05 176.875 2059.61 176.875C2102.31 176.875 2139.71 169.106 2160.44 157.468C2161.66 157.495 2162.89 157.51 2164.14 157.51C2192.5 157.51 2215.49 150.165 2215.49 141.104C2215.49 132.987 2197.04 126.247 2172.8 124.932C2166.31 117.414 2153.61 110.809 2136.75 105.814L2136.75 105.652L2136.75 105.532C2136.75 83.1941 2100.71 65.0857 2056.26 65.0857C2027.68 65.0857 2002.57 72.5762 1988.29 83.8648C1983.41 38.9265 1926.78 3.4729 1857.65 3.4729C1796.82 3.4729 1745.68 30.9146 1730.94 68.114C1714.21 50.7502 1688.98 39.6958 1660.76 39.6958C1634.97 39.6958 1611.68 48.9313 1595.08 63.7787C1574.82 28.8021 1515.35 3.4729 1445.15 3.4729C1381.85 3.4729 1327.28 24.0679 1302.3 53.7603C1284.43 51.032 1264.96 49.5332 1244.58 49.5332C1180.24 49.5332 1124.92 64.4776 1100.53 85.8862C1088.72 56.7587 1050.02 35.3965 1004.1 35.3965C957.608 35.3965 918.516 57.2936 907.247 86.9771C894.455 73.1219 875.173 64.3012 853.603 64.3012C833.887 64.3012 816.082 71.6711 803.398 83.5193C787.907 55.6087 742.452 35.3965 688.789 35.3965C640.401 35.3965 598.686 51.8306 579.596 75.5242C565.935 73.3471 551.051 72.1511 535.475 72.1511C484.437 72.1511 440.824 84.9923 423.352 103.113C408.61 65.9143 357.469 38.4729 296.645 38.4729C235.821 38.4729 184.68 65.9146 169.938 103.114C153.204 85.7502 127.978 74.6958 99.7596 74.6958C73.9671 74.6958 50.6746 83.9313 34.0814 98.7787C13.8153 63.8021 -45.6494 38.4729 -115.851 38.4729C-179.153 38.4729 -233.725 59.0679 -258.699 88.7603C-276.571 86.032 -296.043 84.5332 -316.419 84.5332C-390.612 84.5332 -452.812 104.404 -469.423 131.143C-548.949 132.774 -611.062 146.647 -611.062 163.52C-611.062 181.491 -540.611 196.058 -453.705 196.058C-438.12 196.058 -423.066 195.59 -408.851 194.717C-382.9 202.018 -350.959 206.325 -316.419 206.325C-278.088 206.325 -242.958 201.021 -215.662 192.206C-188.502 204.497 -153.741 211.876 -115.851 211.876C-97.0616 211.876 -79.0411 210.061 -62.3356 206.733C-29.1249 225.006 27.2551 237.028 91.2194 237.028C156.672 237.028 214.184 224.44 247.056 205.447C262.352 209.591 279.095 211.876 296.645 211.876C332.744 211.876 365.432 202.21 389.124 186.575C406.619 201.409 449.045 211.875 498.605 211.875C541.305 211.875 578.709 204.106 599.435 192.468C600.657 192.495 601.891 192.51 603.135 192.51C631.496 192.51 654.487 185.165 654.487 176.104C654.487 174.069 653.327 172.12 651.207 170.322C663.031 172.557 675.665 173.766 688.789 173.766C703.152 173.766 716.927 172.318 729.696 169.662C755.083 184.244 798.18 193.837 847.074 193.837C897.106 193.837 941.068 183.792 966.195 168.636C977.887 171.943 990.686 173.766 1004.1 173.766C1026.73 173.766 1047.6 168.579 1064.37 159.833C1071.43 160.245 1078.68 160.559 1086.1 160.766C1102.55 168.656 1128.85 173.766 1158.48 173.766C1175.19 173.766 1190.84 172.14 1204.26 169.307C1217.13 170.624 1230.65 171.325 1244.58 171.325C1282.91 171.325 1318.04 166.021 1345.34 157.206C1372.5 169.497 1407.26 176.876 1445.15 176.876C1463.94 176.876 1481.96 175.061 1498.67 171.733C1531.88 190.006 1588.26 202.028 1652.22 202.028C1717.67 202.028 1775.19 189.44 1808.06 170.447ZM612.494 158.07C614.164 158.859 615.872 159.623 617.615 160.36C615.721 160.183 613.781 160.039 611.802 159.932C611.439 159.511 611.056 159.093 610.654 158.678C611.273 158.478 611.886 158.275 612.494 158.07Z"/>
</mask>
<g filter="url(#filter0_i_21_5264)">
<path fill-rule="evenodd" clip-rule="evenodd" d="M1808.06 170.447C1823.35 174.591 1840.1 176.876 1857.65 176.876C1893.75 176.876 1926.43 167.21 1950.13 151.575C1967.62 166.409 2010.05 176.875 2059.61 176.875C2102.31 176.875 2139.71 169.106 2160.44 157.468C2161.66 157.495 2162.89 157.51 2164.14 157.51C2192.5 157.51 2215.49 150.165 2215.49 141.104C2215.49 132.987 2197.04 126.247 2172.8 124.932C2166.31 117.414 2153.61 110.809 2136.75 105.814L2136.75 105.652L2136.75 105.532C2136.75 83.1941 2100.71 65.0857 2056.26 65.0857C2027.68 65.0857 2002.57 72.5762 1988.29 83.8648C1983.41 38.9265 1926.78 3.4729 1857.65 3.4729C1796.82 3.4729 1745.68 30.9146 1730.94 68.114C1714.21 50.7502 1688.98 39.6958 1660.76 39.6958C1634.97 39.6958 1611.68 48.9313 1595.08 63.7787C1574.82 28.8021 1515.35 3.4729 1445.15 3.4729C1381.85 3.4729 1327.28 24.0679 1302.3 53.7603C1284.43 51.032 1264.96 49.5332 1244.58 49.5332C1180.24 49.5332 1124.92 64.4776 1100.53 85.8862C1088.72 56.7587 1050.02 35.3965 1004.1 35.3965C957.608 35.3965 918.516 57.2936 907.247 86.9771C894.455 73.1219 875.173 64.3012 853.603 64.3012C833.887 64.3012 816.082 71.6711 803.398 83.5193C787.907 55.6087 742.452 35.3965 688.789 35.3965C640.401 35.3965 598.686 51.8306 579.596 75.5242C565.935 73.3471 551.051 72.1511 535.475 72.1511C484.437 72.1511 440.824 84.9923 423.352 103.113C408.61 65.9143 357.469 38.4729 296.645 38.4729C235.821 38.4729 184.68 65.9146 169.938 103.114C153.204 85.7502 127.978 74.6958 99.7596 74.6958C73.9671 74.6958 50.6746 83.9313 34.0814 98.7787C13.8153 63.8021 -45.6494 38.4729 -115.851 38.4729C-179.153 38.4729 -233.725 59.0679 -258.699 88.7603C-276.571 86.032 -296.043 84.5332 -316.419 84.5332C-390.612 84.5332 -452.812 104.404 -469.423 131.143C-548.949 132.774 -611.062 146.647 -611.062 163.52C-611.062 181.491 -540.611 196.058 -453.705 196.058C-438.12 196.058 -423.066 195.59 -408.851 194.717C-382.9 202.018 -350.959 206.325 -316.419 206.325C-278.088 206.325 -242.958 201.021 -215.662 192.206C-188.502 204.497 -153.741 211.876 -115.851 211.876C-97.0616 211.876 -79.0411 210.061 -62.3356 206.733C-29.1249 225.006 27.2551 237.028 91.2194 237.028C156.672 237.028 214.184 224.44 247.056 205.447C262.352 209.591 279.095 211.876 296.645 211.876C332.744 211.876 365.432 202.21 389.124 186.575C406.619 201.409 449.045 211.875 498.605 211.875C541.305 211.875 578.709 204.106 599.435 192.468C600.657 192.495 601.891 192.51 603.135 192.51C631.496 192.51 654.487 185.165 654.487 176.104C654.487 174.069 653.327 172.12 651.207 170.322C663.031 172.557 675.665 173.766 688.789 173.766C703.152 173.766 716.927 172.318 729.696 169.662C755.083 184.244 798.18 193.837 847.074 193.837C897.106 193.837 941.068 183.792 966.195 168.636C977.887 171.943 990.686 173.766 1004.1 173.766C1026.73 173.766 1047.6 168.579 1064.37 159.833C1071.43 160.245 1078.68 160.559 1086.1 160.766C1102.55 168.656 1128.85 173.766 1158.48 173.766C1175.19 173.766 1190.84 172.14 1204.26 169.307C1217.13 170.624 1230.65 171.325 1244.58 171.325C1282.91 171.325 1318.04 166.021 1345.34 157.206C1372.5 169.497 1407.26 176.876 1445.15 176.876C1463.94 176.876 1481.96 175.061 1498.67 171.733C1531.88 190.006 1588.26 202.028 1652.22 202.028C1717.67 202.028 1775.19 189.44 1808.06 170.447ZM612.494 158.07C614.164 158.859 615.872 159.623 617.615 160.36C615.721 160.183 613.781 160.039 611.802 159.932C611.439 159.511 611.056 159.093 610.654 158.678C611.273 158.478 611.886 158.275 612.494 158.07Z" fill="white"/>
</g>
<path d="M1808.06 170.447L1808.84 167.551L1807.64 167.225L1806.56 167.849L1808.06 170.447ZM1950.13 151.575L1952.07 149.286L1950.35 147.832L1948.47 149.071L1950.13 151.575ZM2160.44 157.468L2160.5 154.468L2159.68 154.45L2158.97 154.852L2160.44 157.468ZM2172.8 124.932L2170.53 126.892L2171.37 127.858L2172.64 127.927L2172.8 124.932ZM2136.75 105.814L2133.75 105.782L2133.72 108.047L2135.89 108.691L2136.75 105.814ZM2136.75 105.652L2139.75 105.684L2139.75 105.671V105.658L2136.75 105.652ZM2136.75 105.532L2139.75 105.538V105.532H2136.75ZM1988.29 83.8648L1985.31 84.1889L1985.89 89.5838L1990.15 86.2182L1988.29 83.8648ZM1730.94 68.114L1728.78 70.1958L1732.01 73.5502L1733.73 69.2193L1730.94 68.114ZM1595.08 63.7787L1592.49 65.2828L1594.34 68.473L1597.08 66.0144L1595.08 63.7787ZM1302.3 53.7603L1301.85 56.726L1303.51 56.9801L1304.6 55.6914L1302.3 53.7603ZM1100.53 85.8862L1097.75 87.0129L1099.33 90.9265L1102.51 88.1409L1100.53 85.8862ZM907.247 86.9771L905.043 89.0121L908.331 92.5739L910.052 88.0419L907.247 86.9771ZM803.398 83.5193L800.775 84.9752L802.639 88.3336L805.446 85.7116L803.398 83.5193ZM579.596 75.5242L579.124 78.4868L580.841 78.7605L581.932 77.4064L579.596 75.5242ZM423.352 103.113L420.563 104.219L422.279 108.549L425.512 105.196L423.352 103.113ZM169.938 103.114L167.778 105.196L171.011 108.55L172.727 104.219L169.938 103.114ZM34.0814 98.7787L31.4857 100.283L33.3342 103.473L36.0818 101.014L34.0814 98.7787ZM-258.699 88.7603L-259.152 91.726L-257.488 91.9801L-256.404 90.6914L-258.699 88.7603ZM-469.423 131.143L-469.362 134.142L-467.734 134.109L-466.875 132.726L-469.423 131.143ZM-408.851 194.717L-408.039 191.829L-408.528 191.692L-409.035 191.723L-408.851 194.717ZM-215.662 192.206L-214.425 189.473L-215.481 188.995L-216.583 189.351L-215.662 192.206ZM-62.3356 206.733L-60.8893 204.104L-61.8483 203.577L-62.9218 203.791L-62.3356 206.733ZM247.056 205.447L247.84 202.551L246.635 202.225L245.555 202.849L247.056 205.447ZM389.124 186.575L391.065 184.286L389.349 182.832L387.472 184.071L389.124 186.575ZM599.435 192.468L599.503 189.468L598.682 189.45L597.966 189.852L599.435 192.468ZM651.207 170.322L651.764 167.374L640.605 165.265L649.266 172.61L651.207 170.322ZM729.696 169.662L731.191 167.061L730.202 166.493L729.086 166.725L729.696 169.662ZM966.195 168.636L967.012 165.749L965.76 165.395L964.646 166.067L966.195 168.636ZM1064.37 159.833L1064.55 156.838L1063.72 156.789L1062.98 157.173L1064.37 159.833ZM1086.1 160.766L1087.4 158.061L1086.82 157.785L1086.19 157.767L1086.1 160.766ZM1204.26 169.307L1204.57 166.323L1204.1 166.275L1203.64 166.372L1204.26 169.307ZM1345.34 157.206L1346.58 154.473L1345.52 153.995L1344.42 154.351L1345.34 157.206ZM1498.67 171.733L1500.11 169.104L1499.15 168.577L1498.08 168.791L1498.67 171.733ZM617.615 160.36L617.336 163.347L618.784 157.597L617.615 160.36ZM612.494 158.07L613.776 155.358L612.682 154.841L611.536 155.227L612.494 158.07ZM611.802 159.932L609.532 161.893L610.366 162.858L611.64 162.927L611.802 159.932ZM610.654 158.678L609.73 155.824L605.15 157.307L608.5 160.765L610.654 158.678ZM1857.65 173.876C1840.36 173.876 1823.88 171.624 1808.84 167.551L1807.27 173.342C1822.83 177.558 1839.84 179.876 1857.65 179.876V173.876ZM1948.47 149.071C1925.34 164.339 1893.24 173.876 1857.65 173.876V179.876C1894.25 179.876 1927.53 170.08 1951.78 154.079L1948.47 149.071ZM2059.61 173.875C2035.03 173.875 2012.26 171.279 1993.53 166.868C1974.71 162.436 1960.28 156.247 1952.07 149.286L1948.19 153.863C1957.47 161.736 1973 168.198 1992.15 172.708C2011.4 177.239 2034.63 179.875 2059.61 179.875V173.875ZM2158.97 154.852C2138.89 166.128 2102.08 173.875 2059.61 173.875V179.875C2102.54 179.875 2140.53 172.084 2161.91 160.083L2158.97 154.852ZM2164.14 154.51C2162.92 154.51 2161.7 154.496 2160.5 154.468L2160.37 160.467C2161.61 160.495 2162.87 160.51 2164.14 160.51V154.51ZM2212.49 141.104C2212.49 142 2211.92 143.379 2209.65 145.096C2207.42 146.775 2204.02 148.416 2199.54 149.847C2190.61 152.698 2178.1 154.51 2164.14 154.51V160.51C2178.54 160.51 2191.7 158.649 2201.36 155.562C2206.18 154.025 2210.29 152.13 2213.26 149.884C2216.19 147.675 2218.49 144.738 2218.49 141.104H2212.49ZM2172.64 127.927C2184.56 128.574 2194.91 130.552 2202.18 133.277C2205.83 134.644 2208.54 136.14 2210.28 137.623C2212.04 139.119 2212.49 140.302 2212.49 141.104H2218.49C2218.49 137.848 2216.63 135.145 2214.17 133.053C2211.7 130.949 2208.28 129.155 2204.29 127.658C2196.27 124.655 2185.28 122.605 2172.97 121.936L2172.64 127.927ZM2135.89 108.691C2152.61 113.642 2164.62 120.044 2170.53 126.892L2175.07 122.971C2168 114.783 2154.61 107.977 2137.6 102.937L2135.89 108.691ZM2133.75 105.621L2133.75 105.782L2139.74 105.846L2139.75 105.684L2133.75 105.621ZM2133.75 105.526L2133.75 105.646L2139.75 105.658L2139.75 105.538L2133.75 105.526ZM2056.26 68.0857C2078.12 68.0857 2097.76 72.5445 2111.83 79.6127C2126.07 86.769 2133.75 96.1036 2133.75 105.532H2139.75C2139.75 92.6226 2129.41 81.7341 2114.52 74.2516C2099.46 66.6811 2078.86 62.0857 2056.26 62.0857V68.0857ZM1990.15 86.2182C2003.72 75.491 2028.08 68.0857 2056.26 68.0857V62.0857C2027.27 62.0857 2001.42 69.6614 1986.43 81.5115L1990.15 86.2182ZM1857.65 6.4729C1891.73 6.4729 1922.61 15.2161 1945.49 29.3683C1968.39 43.5394 1983 62.928 1985.31 84.1889L1991.27 83.5408C1988.7 59.8633 1972.55 39.0559 1948.64 24.2657C1924.7 9.45652 1892.7 0.4729 1857.65 0.4729V6.4729ZM1733.73 69.2193C1740.76 51.4812 1756.6 35.7927 1778.39 24.5078C1800.16 13.2378 1827.67 6.4729 1857.65 6.4729V0.4729C1826.8 0.4729 1798.33 7.4288 1775.63 19.1796C1752.97 30.9154 1735.86 47.5475 1728.15 67.0088L1733.73 69.2193ZM1660.76 42.6958C1688.21 42.6958 1712.64 53.4486 1728.78 70.1958L1733.1 66.0322C1715.77 48.0519 1689.75 36.6958 1660.76 36.6958V42.6958ZM1597.08 66.0144C1613.11 51.678 1635.68 42.6958 1660.76 42.6958V36.6958C1634.26 36.6958 1610.25 46.1846 1593.08 61.5431L1597.08 66.0144ZM1445.15 6.4729C1479.91 6.4729 1511.93 12.7457 1537.71 23.2863C1563.54 33.8502 1582.81 48.5783 1592.49 65.2828L1597.68 62.2747C1587.09 44.0025 1566.5 28.5777 1539.98 17.7328C1513.4 6.86471 1480.6 0.4729 1445.15 0.4729V6.4729ZM1304.6 55.6914C1328.77 26.9536 1382.29 6.4729 1445.15 6.4729V0.4729C1381.4 0.4729 1325.78 21.1822 1300.01 51.8293L1304.6 55.6914ZM1244.58 52.5332C1264.81 52.5332 1284.13 54.0216 1301.85 56.726L1302.76 50.7947C1284.73 48.0425 1265.1 46.5332 1244.58 46.5332V52.5332ZM1102.51 88.1409C1114.19 77.8815 1133.6 68.9461 1158.32 62.5868C1182.97 56.245 1212.63 52.5332 1244.58 52.5332V46.5332C1212.19 46.5332 1182.02 50.2936 1156.83 56.7761C1131.7 63.2412 1111.25 72.4823 1098.55 83.6316L1102.51 88.1409ZM1103.31 84.7596C1090.87 54.0707 1050.7 32.3965 1004.1 32.3965V38.3965C1049.34 38.3965 1086.58 59.4467 1097.75 87.0129L1103.31 84.7596ZM1004.1 32.3965C956.929 32.3965 916.325 54.6107 904.442 85.9123L910.052 88.0419C920.706 59.9765 958.286 38.3965 1004.1 38.3965V32.3965ZM909.451 84.942C896.077 70.456 875.988 61.3012 853.603 61.3012V67.3012C874.357 67.3012 892.833 75.7878 905.043 89.0121L909.451 84.942ZM853.603 61.3012C833.14 61.3012 814.599 68.951 801.35 81.327L805.446 85.7116C817.565 74.3912 834.634 67.3012 853.603 67.3012V61.3012ZM806.021 82.0634C797.841 67.3251 781.957 54.9291 761.586 46.2323C741.167 37.5149 715.981 32.3965 688.789 32.3965V38.3965C715.26 38.3965 739.633 43.3842 759.23 51.7505C778.875 60.1375 793.464 71.8029 800.775 84.9752L806.021 82.0634ZM688.789 32.3965C639.917 32.3965 597.141 48.9669 577.26 73.642L581.932 77.4064C600.231 54.6943 640.885 38.3965 688.789 38.3965V32.3965ZM580.068 72.5616C566.244 70.3585 551.202 69.1511 535.475 69.1511V75.1511C550.899 75.1511 565.626 76.3357 579.124 78.4868L580.068 72.5616ZM535.475 69.1511C509.719 69.1511 485.779 72.3897 466.014 77.9489C446.332 83.4848 430.466 91.4133 421.192 101.031L425.512 105.196C433.71 96.6926 448.386 89.1398 467.639 83.7248C486.808 78.3331 510.193 75.1511 535.475 75.1511V69.1511ZM426.141 102.008C418.428 82.547 401.325 65.9151 378.659 54.1794C355.963 42.4287 327.492 35.4729 296.645 35.4729V41.4729C326.622 41.4729 354.133 48.2378 375.9 59.5076C397.695 70.7924 413.533 86.4808 420.563 104.219L426.141 102.008ZM296.645 35.4729C265.798 35.4729 237.327 42.4288 214.632 54.1796C191.965 65.9154 174.862 82.5474 167.149 102.009L172.727 104.219C179.757 86.4812 195.595 70.7927 217.39 59.5078C239.157 48.2378 266.669 41.4729 296.645 41.4729V35.4729ZM172.098 101.032C154.77 83.0519 128.75 71.6958 99.7596 71.6958V77.6958C127.205 77.6958 151.638 88.4486 167.778 105.196L172.098 101.032ZM99.7596 71.6958C73.2576 71.6958 49.2452 81.1846 32.081 96.5431L36.0818 101.014C52.1039 86.678 74.6766 77.6958 99.7596 77.6958V71.6958ZM36.6772 97.2747C26.09 79.0025 5.49493 63.5777 -21.0234 52.7328C-47.5984 41.8647 -80.4064 35.4729 -115.851 35.4729V41.4729C-81.0942 41.4729 -49.0689 47.7457 -23.2946 58.2863C2.53638 68.8502 21.8068 83.5783 31.4857 100.283L36.6772 97.2747ZM-115.851 35.4729C-179.598 35.4729 -235.218 56.1822 -260.995 86.8293L-256.404 90.6914C-232.232 61.9536 -178.708 41.4729 -115.851 41.4729V35.4729ZM-258.247 85.7947C-276.275 83.0425 -295.898 81.5332 -316.419 81.5332V87.5332C-296.188 87.5332 -276.867 89.0216 -259.152 91.726L-258.247 85.7947ZM-316.419 81.5332C-353.763 81.5332 -388.166 86.5314 -415.4 94.9445C-442.452 103.301 -463.066 115.225 -471.971 129.56L-466.875 132.726C-459.169 120.322 -440.377 108.94 -413.629 100.677C-387.062 92.4702 -353.269 87.5332 -316.419 87.5332V81.5332ZM-469.485 128.144C-509.378 128.962 -545.002 132.85 -570.729 138.69C-583.568 141.605 -594.106 145.041 -601.506 148.915C-605.203 150.85 -608.264 152.97 -610.437 155.311C-612.624 157.667 -614.062 160.424 -614.062 163.52H-608.062C-608.062 162.399 -607.56 161.031 -606.039 159.392C-604.505 157.739 -602.093 155.994 -598.723 154.23C-591.992 150.706 -582.031 147.408 -569.401 144.541C-544.19 138.819 -508.995 134.955 -469.362 134.142L-469.485 128.144ZM-614.062 163.52C-614.062 166.821 -612.432 169.729 -609.998 172.188C-607.573 174.638 -604.153 176.857 -600.014 178.881C-591.724 182.934 -579.921 186.501 -565.581 189.466C-536.851 195.407 -497.298 199.058 -453.705 199.058V193.058C-497.017 193.058 -536.143 189.426 -564.366 183.59C-578.502 180.667 -589.744 177.223 -597.379 173.49C-601.203 171.621 -603.966 169.754 -605.733 167.968C-607.492 166.191 -608.062 164.713 -608.062 163.52H-614.062ZM-453.705 199.058C-438.061 199.058 -422.945 198.588 -408.667 197.712L-409.035 191.723C-423.186 192.592 -438.18 193.058 -453.705 193.058V199.058ZM-409.664 197.605C-383.411 204.991 -351.192 209.325 -316.419 209.325V203.325C-350.726 203.325 -382.388 199.046 -408.039 191.829L-409.664 197.605ZM-316.419 209.325C-277.835 209.325 -242.386 203.989 -214.74 195.061L-216.583 189.351C-243.529 198.053 -278.341 203.325 -316.419 203.325V209.325ZM-216.898 194.939C-189.3 207.429 -154.107 214.876 -115.851 214.876V208.876C-153.374 208.876 -187.705 201.565 -214.425 189.473L-216.898 194.939ZM-115.851 214.876C-96.8704 214.876 -78.6534 213.043 -61.7494 209.675L-62.9218 203.791C-79.4289 207.079 -97.2528 208.876 -115.851 208.876V214.876ZM-63.7818 209.361C-29.9573 227.973 26.9888 240.028 91.2194 240.028V234.028C27.5214 234.028 -28.2925 222.04 -60.8893 204.104L-63.7818 209.361ZM91.2194 240.028C156.934 240.028 215.044 227.408 248.557 208.044L245.555 202.849C213.325 221.472 156.411 234.028 91.2194 234.028V240.028ZM246.271 208.342C261.829 212.558 278.837 214.876 296.645 214.876V208.876C279.353 208.876 262.874 206.624 247.84 202.551L246.271 208.342ZM296.645 214.876C333.249 214.876 366.529 205.08 390.777 189.079L387.472 184.071C364.335 199.339 332.239 208.876 296.645 208.876V214.876ZM387.184 188.863C396.47 196.736 411.998 203.198 431.152 207.708C450.396 212.239 473.626 214.875 498.605 214.875V208.875C474.023 208.875 451.26 206.279 432.528 201.868C413.705 197.436 399.273 191.247 391.065 184.286L387.184 188.863ZM498.605 214.875C541.534 214.875 579.533 207.084 600.903 195.083L597.966 189.852C577.885 201.128 541.075 208.875 498.605 208.875V214.875ZM599.366 195.467C600.611 195.495 601.868 195.51 603.135 195.51V189.51C601.913 189.51 600.702 189.496 599.503 189.468L599.366 195.467ZM603.135 195.51C617.538 195.51 630.698 193.649 640.36 190.562C645.173 189.025 649.286 187.13 652.26 184.884C655.184 182.675 657.487 179.738 657.487 176.104H651.487C651.487 177 650.917 178.379 648.644 180.096C646.42 181.775 643.013 183.416 638.534 184.847C629.609 187.698 617.093 189.51 603.135 189.51V195.51ZM657.487 176.104C657.487 172.838 655.617 170.129 653.147 168.034L649.266 172.61C651.037 174.112 651.487 175.3 651.487 176.104H657.487ZM650.649 173.27C662.661 175.54 675.482 176.766 688.789 176.766V170.766C675.847 170.766 663.4 169.574 651.764 167.374L650.649 173.27ZM688.789 176.766C703.352 176.766 717.331 175.298 730.307 172.599L729.086 166.725C716.522 169.338 702.952 170.766 688.789 170.766V176.766ZM728.202 172.263C754.215 187.205 797.898 196.837 847.074 196.837V190.837C798.461 190.837 755.95 181.282 731.191 167.061L728.202 172.263ZM847.074 196.837C897.384 196.837 941.964 186.755 967.745 171.205L964.646 166.067C940.173 180.829 896.829 190.837 847.074 190.837V196.837ZM965.379 171.523C977.342 174.906 990.416 176.766 1004.1 176.766V170.766C990.956 170.766 978.432 168.979 967.012 165.749L965.379 171.523ZM1004.1 176.766C1027.17 176.766 1048.53 171.479 1065.76 162.493L1062.98 157.173C1046.68 165.679 1026.28 170.766 1004.1 170.766V176.766ZM1086.19 157.767C1078.8 157.561 1071.57 157.249 1064.55 156.838L1064.2 162.828C1071.28 163.242 1078.57 163.557 1086.02 163.764L1086.19 157.767ZM1084.81 163.47C1101.8 171.623 1128.59 176.766 1158.48 176.766V170.766C1129.11 170.766 1103.3 165.689 1087.4 158.061L1084.81 163.47ZM1158.48 176.766C1175.38 176.766 1191.24 175.123 1204.88 172.243L1203.64 166.372C1190.45 169.158 1175 170.766 1158.48 170.766V176.766ZM1244.58 168.325C1230.75 168.325 1217.33 167.629 1204.57 166.323L1203.96 172.292C1216.93 173.619 1230.55 174.325 1244.58 174.325V168.325ZM1344.42 154.351C1317.47 163.053 1282.66 168.325 1244.58 168.325V174.325C1283.17 174.325 1318.62 168.989 1346.26 160.061L1344.42 154.351ZM1445.15 173.876C1407.63 173.876 1373.3 166.565 1346.58 154.473L1344.1 159.939C1371.7 172.429 1406.89 179.876 1445.15 179.876V173.876ZM1498.08 168.791C1481.57 172.079 1463.75 173.876 1445.15 173.876V179.876C1464.13 179.876 1482.35 178.043 1499.25 174.675L1498.08 168.791ZM1652.22 199.028C1588.52 199.028 1532.71 187.04 1500.11 169.104L1497.22 174.361C1531.04 192.973 1587.99 205.028 1652.22 205.028V199.028ZM1806.56 167.849C1774.33 186.472 1717.41 199.028 1652.22 199.028V205.028C1717.94 205.028 1776.05 192.408 1809.56 173.044L1806.56 167.849ZM618.784 157.597C617.078 156.875 615.407 156.129 613.776 155.358L611.213 160.783C612.921 161.59 614.666 162.37 616.447 163.123L618.784 157.597ZM611.64 162.927C613.58 163.032 615.481 163.173 617.336 163.347L617.895 157.373C615.961 157.192 613.982 157.045 611.965 156.936L611.64 162.927ZM608.5 160.765C608.864 161.141 609.208 161.517 609.532 161.893L614.073 157.97C613.671 157.505 613.249 157.045 612.809 156.591L608.5 160.765ZM611.536 155.227C610.939 155.429 610.337 155.627 609.73 155.824L611.579 161.532C612.208 161.328 612.833 161.122 613.453 160.913L611.536 155.227Z" fill="black" mask="url(#path-1-outside-1_21_5264)"/>
<defs>
<filter id="filter0_i_21_5264" x="-614.062" y="0.4729" width="2832.55" height="239.555" filterUnits="userSpaceOnUse" color-interpolation-filters="sRGB">
<feFlood flood-opacity="0" result="BackgroundImageFix"/>
<feBlend mode="normal" in="SourceGraphic" in2="BackgroundImageFix" result="shape"/>
<feColorMatrix in="SourceAlpha" type="matrix" values="0 0 0 0 0 0 0 0 0 0 0 0 0 0 0 0 0 0 127 0" result="hardAlpha"/>
<feOffset dy="-13"/>
<feComposite in2="hardAlpha" operator="arithmetic" k2="-1" k3="1"/>
<feColorMatrix type="matrix" values="0 0 0 0 0.923333 0 0 0 0 0.923333 0 0 0 0 0.923333 0 0 0 1 0"/>
<feBlend mode="normal" in2="shape" result="effect1_innerShadow_21_5264"/>
</filter>
</defs>
</svg>
