<svg width="1920" height="308" viewBox="0 0 1920 308" fill="none" xmlns="http://www.w3.org/2000/svg">
<mask id="path-1-outside-1_21_5295" maskUnits="userSpaceOnUse" x="-341.439" y="0.567261" width="2378" height="308" fill="black">
<rect fill="white" x="-341.439" y="0.567261" width="2378" height="308"/>
<path fill-rule="evenodd" clip-rule="evenodd" d="M362.42 241.434C348.709 238.697 336.075 233.846 324.936 227.396C295.537 240.897 248.141 244.273 197.005 234.066C147.032 224.091 105.337 203.51 82.968 180.411C69.2652 181.07 54.8315 180.039 40.1519 177.109C10.5505 171.2 -15.1631 158.544 -33.9757 142.255C-57.0264 146.643 -85.5102 146.366 -115.457 140.389C-142.441 135.002 -166.552 125.798 -185.398 114.591C-196.674 113.23 -208.528 111.342 -220.703 108.912C-288.599 95.3596 -340.789 70.0874 -337.272 52.4649C-333.969 35.9181 -282.727 31.9991 -220.276 42.8012C-202.065 19.1695 -149.581 9.38312 -91.617 20.9528C-75.698 24.1303 -60.7791 28.6364 -47.3511 34.0986C-22.0276 8.87537 24.6385 -2.81103 74.0939 7.06037C128.941 18.0079 170.441 52.1209 179.427 89.5819C195.297 77.6082 215.303 72.183 235.455 76.2053C257.5 80.6055 275.044 95.379 284.719 115.015C303.519 80.8357 348.844 61.9008 396.362 71.3857C450.376 82.1668 487.675 125.766 482.693 170.596C496.057 161.752 517.139 158.321 539.475 162.779C562.603 167.396 581.243 179.307 589.822 193.22C606.999 186.812 628.591 182.996 652.043 182.996C665.172 182.996 677.719 184.192 689.234 186.37C705.326 162.676 740.488 146.242 781.276 146.242C826.51 146.242 864.825 166.454 877.883 194.365C888.574 182.517 903.583 175.147 920.203 175.147C938.384 175.147 954.638 183.967 965.421 197.823C974.919 168.139 1007.87 146.242 1047.06 146.242C1091.61 146.242 1128.09 174.533 1131.24 210.392C1140.44 201.384 1156.62 195.407 1175.04 195.407C1192.56 195.407 1208.06 200.818 1217.45 209.102C1218.63 208.869 1219.81 208.64 1221.01 208.416C1228.7 180.119 1270.11 153.424 1323.22 144.99C1337.81 142.673 1351.98 141.94 1365.2 142.603C1378.42 110.439 1414.26 83.8954 1459.57 76.6994C1509.83 68.7189 1556.37 86.9749 1576.36 119.215C1585.91 102.665 1601.13 90.8956 1619.6 87.9636C1639.8 84.7557 1659.59 92.8059 1674.29 108.053C1679.01 69.6379 1711.32 36.722 1754.86 29.8076C1804.35 21.9485 1850.44 50.5257 1860.98 94.3521C1869.44 81.5805 1886.23 71.329 1906.7 68.0792C1938.52 63.0262 1967.15 76.8143 1970.65 98.8758C1970.67 98.9687 1970.68 99.0616 1970.7 99.1545C1983.56 102.17 1993.68 107.25 1999.51 113.937C2017.06 112.481 2031.33 117.04 2032.6 125.057C2034.02 134.005 2018.72 143.872 1998.42 147.097C1997.52 147.238 1996.64 147.365 1995.76 147.476C1982.74 161.326 1957.19 173.251 1926.62 178.105C1891.15 183.739 1859.13 178.225 1844.28 165.564C1829.78 183.699 1807.89 196.961 1782.05 201.064C1769.49 203.059 1757.15 202.707 1745.55 200.352C1724.99 222.847 1685.8 241.817 1638.95 249.258C1593.16 256.529 1550.91 251.065 1524.27 236.793C1512.84 241.979 1500.22 245.82 1486.77 247.956C1459.65 252.263 1433.61 248.928 1412.24 239.877C1394.08 251.685 1369.76 260.917 1342.33 265.274C1317.6 269.201 1294.06 268.578 1274.34 264.318C1270.7 265.215 1266.98 266.072 1263.18 266.885C1260.95 267.487 1258.53 267.984 1255.96 268.358C1251.54 269.216 1247.03 270.012 1242.44 270.741C1241.19 270.939 1239.95 271.13 1238.71 271.315C1224.88 279.374 1202.48 284.611 1177.19 284.611C1145.26 284.611 1117.92 276.259 1106.65 264.422C1091.38 276.898 1070.32 284.611 1047.06 284.611C1035.75 284.611 1024.97 282.788 1015.11 279.481C993.93 294.637 956.873 304.682 914.699 304.682C873.484 304.682 837.157 295.089 815.758 280.507C804.994 283.163 793.383 284.611 781.276 284.611C756.862 284.611 734.464 278.724 716.965 268.916C699.377 275.95 676.741 280.182 652.043 280.182C631.373 280.182 612.147 277.218 596.116 272.127C577.381 278.095 549.825 278.84 520.206 272.928C506.229 270.138 493.245 266.155 481.852 261.392C476.366 259.482 471.876 257.372 468.58 255.113C455.046 247.871 444.897 239.504 439.625 231.043C418.054 242.682 390.624 247.064 362.42 241.434Z"/>
</mask>
<g filter="url(#filter0_i_21_5295)">
<path fill-rule="evenodd" clip-rule="evenodd" d="M362.42 241.434C348.709 238.697 336.075 233.846 324.936 227.396C295.537 240.897 248.141 244.273 197.005 234.066C147.032 224.091 105.337 203.51 82.968 180.411C69.2652 181.07 54.8315 180.039 40.1519 177.109C10.5505 171.2 -15.1631 158.544 -33.9757 142.255C-57.0264 146.643 -85.5102 146.366 -115.457 140.389C-142.441 135.002 -166.552 125.798 -185.398 114.591C-196.674 113.23 -208.528 111.342 -220.703 108.912C-288.599 95.3596 -340.789 70.0874 -337.272 52.4649C-333.969 35.9181 -282.727 31.9991 -220.276 42.8012C-202.065 19.1695 -149.581 9.38312 -91.617 20.9528C-75.698 24.1303 -60.7791 28.6364 -47.3511 34.0986C-22.0276 8.87537 24.6385 -2.81103 74.0939 7.06037C128.941 18.0079 170.441 52.1209 179.427 89.5819C195.297 77.6082 215.303 72.183 235.455 76.2053C257.5 80.6055 275.044 95.379 284.719 115.015C303.519 80.8357 348.844 61.9008 396.362 71.3857C450.376 82.1668 487.675 125.766 482.693 170.596C496.057 161.752 517.139 158.321 539.475 162.779C562.603 167.396 581.243 179.307 589.822 193.22C606.999 186.812 628.591 182.996 652.043 182.996C665.172 182.996 677.719 184.192 689.234 186.37C705.326 162.676 740.488 146.242 781.276 146.242C826.51 146.242 864.825 166.454 877.883 194.365C888.574 182.517 903.583 175.147 920.203 175.147C938.384 175.147 954.638 183.967 965.421 197.823C974.919 168.139 1007.87 146.242 1047.06 146.242C1091.61 146.242 1128.09 174.533 1131.24 210.392C1140.44 201.384 1156.62 195.407 1175.04 195.407C1192.56 195.407 1208.06 200.818 1217.45 209.102C1218.63 208.869 1219.81 208.64 1221.01 208.416C1228.7 180.119 1270.11 153.424 1323.22 144.99C1337.81 142.673 1351.98 141.94 1365.2 142.603C1378.42 110.439 1414.26 83.8954 1459.57 76.6994C1509.83 68.7189 1556.37 86.9749 1576.36 119.215C1585.91 102.665 1601.13 90.8956 1619.6 87.9636C1639.8 84.7557 1659.59 92.8059 1674.29 108.053C1679.01 69.6379 1711.32 36.722 1754.86 29.8076C1804.35 21.9485 1850.44 50.5257 1860.98 94.3521C1869.44 81.5805 1886.23 71.329 1906.7 68.0792C1938.52 63.0262 1967.15 76.8143 1970.65 98.8758C1970.67 98.9687 1970.68 99.0616 1970.7 99.1545C1983.56 102.17 1993.68 107.25 1999.51 113.937C2017.06 112.481 2031.33 117.04 2032.6 125.057C2034.02 134.005 2018.72 143.872 1998.42 147.097C1997.52 147.238 1996.64 147.365 1995.76 147.476C1982.74 161.326 1957.19 173.251 1926.62 178.105C1891.15 183.739 1859.13 178.225 1844.28 165.564C1829.78 183.699 1807.89 196.961 1782.05 201.064C1769.49 203.059 1757.15 202.707 1745.55 200.352C1724.99 222.847 1685.8 241.817 1638.95 249.258C1593.16 256.529 1550.91 251.065 1524.27 236.793C1512.84 241.979 1500.22 245.82 1486.77 247.956C1459.65 252.263 1433.61 248.928 1412.24 239.877C1394.08 251.685 1369.76 260.917 1342.33 265.274C1317.6 269.201 1294.06 268.578 1274.34 264.318C1270.7 265.215 1266.98 266.072 1263.18 266.885C1260.95 267.487 1258.53 267.984 1255.96 268.358C1251.54 269.216 1247.03 270.012 1242.44 270.741C1241.19 270.939 1239.95 271.13 1238.71 271.315C1224.88 279.374 1202.48 284.611 1177.19 284.611C1145.26 284.611 1117.92 276.259 1106.65 264.422C1091.38 276.898 1070.32 284.611 1047.06 284.611C1035.75 284.611 1024.97 282.788 1015.11 279.481C993.93 294.637 956.873 304.682 914.699 304.682C873.484 304.682 837.157 295.089 815.758 280.507C804.994 283.163 793.383 284.611 781.276 284.611C756.862 284.611 734.464 278.724 716.965 268.916C699.377 275.95 676.741 280.182 652.043 280.182C631.373 280.182 612.147 277.218 596.116 272.127C577.381 278.095 549.825 278.84 520.206 272.928C506.229 270.138 493.245 266.155 481.852 261.392C476.366 259.482 471.876 257.372 468.58 255.113C455.046 247.871 444.897 239.504 439.625 231.043C418.054 242.682 390.624 247.064 362.42 241.434Z" fill="white"/>
</g>
<path d="M324.936 227.396L326.439 224.8L325.096 224.022L323.684 224.67L324.936 227.396ZM362.42 241.434L363.008 238.492L362.42 241.434ZM197.005 234.066L197.592 231.124L197.005 234.066ZM82.968 180.411L85.1231 178.324L84.1792 177.349L82.824 177.414L82.968 180.411ZM40.1519 177.109L40.7391 174.167L40.1519 177.109ZM-33.9757 142.255L-32.012 139.987L-33.11 139.037L-34.5367 139.308L-33.9757 142.255ZM-115.457 140.389L-114.869 137.447L-115.457 140.389ZM-185.398 114.591L-183.865 112.013L-184.41 111.689L-185.039 111.613L-185.398 114.591ZM-220.703 108.912L-220.115 105.97L-220.703 108.912ZM-337.272 52.4649L-334.33 53.0521L-337.272 52.4649ZM-220.276 42.8012L-220.788 45.7573L-219.005 46.0657L-217.9 44.6325L-220.276 42.8012ZM-91.617 20.9528L-91.0298 18.0109L-91.617 20.9528ZM-47.3511 34.0986L-48.4815 36.8775L-46.6415 37.626L-45.234 36.2242L-47.3511 34.0986ZM74.0939 7.06037L74.6812 4.1184L74.0939 7.06037ZM179.427 89.5819L176.51 90.2816L177.578 94.735L181.234 91.9767L179.427 89.5819ZM235.455 76.2053L234.867 79.1472L235.455 76.2053ZM284.719 115.015L282.028 116.341L284.573 121.506L287.348 116.461L284.719 115.015ZM396.362 71.3857L396.95 68.4437L396.362 71.3857ZM482.693 170.596L479.711 170.265L479.003 176.636L484.349 173.098L482.693 170.596ZM539.475 162.779L540.062 159.837L539.475 162.779ZM589.822 193.22L587.269 194.794L588.562 196.891L590.871 196.03L589.822 193.22ZM689.234 186.37L688.676 189.317L690.61 189.683L691.715 188.055L689.234 186.37ZM877.883 194.365L875.166 195.636L877.081 199.731L880.11 196.375L877.883 194.365ZM965.421 197.823L963.053 199.665L966.545 204.152L968.278 198.737L965.421 197.823ZM1131.24 210.392L1128.25 210.654L1128.81 216.974L1133.34 212.536L1131.24 210.392ZM1217.45 209.102L1215.46 211.351L1216.57 212.333L1218.03 212.045L1217.45 209.102ZM1221.01 208.416L1221.56 211.364L1223.41 211.017L1223.9 209.203L1221.01 208.416ZM1323.22 144.99L1323.69 147.953L1323.22 144.99ZM1365.2 142.603L1365.05 145.599L1367.17 145.705L1367.98 143.744L1365.2 142.603ZM1459.57 76.6994L1459.1 73.7365L1459.57 76.6994ZM1576.36 119.215L1573.81 120.796L1576.45 125.057L1578.96 120.714L1576.36 119.215ZM1619.6 87.9636L1620.07 90.9264L1619.6 87.9636ZM1674.29 108.053L1672.13 110.135L1676.5 114.667L1677.27 108.419L1674.29 108.053ZM1754.86 29.8076L1754.39 26.8447L1754.86 29.8076ZM1860.98 94.3521L1858.07 95.0538L1859.68 101.759L1863.49 96.0075L1860.98 94.3521ZM1906.7 68.0792L1907.17 71.0421L1906.7 68.0792ZM1970.65 98.8758L1973.62 98.4087L1973.62 98.4053L1970.65 98.8758ZM1970.7 99.1545L1967.73 99.5989L1968.03 101.611L1970.01 102.075L1970.7 99.1545ZM1999.51 113.937L1997.25 115.907L1998.24 117.052L1999.76 116.926L1999.51 113.937ZM2032.6 125.057L2035.56 124.586V124.586L2032.6 125.057ZM1998.42 147.097L1998.89 150.059L1998.89 150.059L1998.42 147.097ZM1995.76 147.476L1995.38 144.5L1994.31 144.636L1993.57 145.422L1995.76 147.476ZM1926.62 178.105L1927.09 181.068L1926.62 178.105ZM1844.28 165.564L1846.23 163.281L1843.88 161.273L1841.94 163.69L1844.28 165.564ZM1782.05 201.064L1782.52 204.027L1782.05 201.064ZM1745.55 200.352L1746.14 197.412L1744.48 197.074L1743.33 198.329L1745.55 200.352ZM1638.95 249.258L1639.42 252.221L1638.95 249.258ZM1524.27 236.793L1525.69 234.149L1524.38 233.449L1523.03 234.061L1524.27 236.793ZM1486.77 247.956L1486.3 244.993H1486.3L1486.77 247.956ZM1412.24 239.877L1413.41 237.114L1411.94 236.492L1410.6 237.362L1412.24 239.877ZM1342.33 265.274L1341.85 262.311L1342.33 265.274ZM1274.34 264.318L1274.97 261.385L1274.29 261.239L1273.62 261.405L1274.34 264.318ZM1263.18 266.885L1262.55 263.951L1262.48 263.968L1262.4 263.989L1263.18 266.885ZM1255.96 268.358L1255.53 265.389L1255.46 265.399L1255.39 265.413L1255.96 268.358ZM1242.44 270.741L1242.91 273.704L1242.44 270.741ZM1238.71 271.315L1238.27 268.348L1237.7 268.433L1237.2 268.723L1238.71 271.315ZM1106.65 264.422L1108.82 262.353L1106.9 260.339L1104.75 262.099L1106.65 264.422ZM1015.11 279.481L1016.06 276.637L1014.61 276.149L1013.36 277.041L1015.11 279.481ZM815.758 280.507L817.447 278.028L816.34 277.274L815.039 277.595L815.758 280.507ZM716.965 268.916L718.432 266.299L717.181 265.598L715.851 266.13L716.965 268.916ZM596.116 272.127L597.024 269.268L596.115 268.979L595.206 269.269L596.116 272.127ZM520.206 272.928L520.794 269.986L520.206 272.928ZM481.852 261.392L483.009 258.624L482.925 258.589L482.838 258.559L481.852 261.392ZM468.58 255.113L470.276 252.639L470.14 252.546L469.995 252.468L468.58 255.113ZM439.625 231.043L442.171 229.457L440.681 227.064L438.2 228.403L439.625 231.043ZM323.433 229.992C334.858 236.608 347.802 241.575 361.833 244.376L363.008 238.492C349.617 235.819 337.292 231.084 326.439 224.8L323.433 229.992ZM196.418 237.008C247.907 247.285 296.008 243.982 326.188 230.123L323.684 224.67C295.067 237.811 248.376 241.26 197.592 231.124L196.418 237.008ZM80.813 182.498C103.751 206.184 146.09 226.962 196.418 237.008L197.592 231.124C147.974 221.22 106.924 200.836 85.1231 178.324L80.813 182.498ZM39.5647 180.051C54.4807 183.028 69.16 184.078 83.1121 183.407L82.824 177.414C69.3705 178.061 55.1822 177.05 40.7391 174.167L39.5647 180.051ZM-35.9395 144.523C-16.6999 161.182 9.50012 174.05 39.5647 180.051L40.7391 174.167C11.6009 168.351 -13.6264 155.906 -32.012 139.987L-35.9395 144.523ZM-116.044 143.33C-85.781 149.371 -56.9028 149.673 -33.4148 145.203L-34.5367 139.308C-57.15 143.613 -85.2394 143.361 -114.869 137.447L-116.044 143.33ZM-186.932 117.17C-167.758 128.572 -143.319 137.886 -116.044 143.33L-114.869 137.447C-141.563 132.118 -165.347 123.025 -183.865 112.013L-186.932 117.17ZM-221.29 111.854C-209.042 114.299 -197.112 116.199 -185.758 117.57L-185.039 111.613C-196.236 110.261 -208.014 108.385 -220.115 105.97L-221.29 111.854ZM-340.214 51.8777C-341.418 57.9117 -337.752 63.8029 -332.129 69.0138C-326.359 74.3606 -317.746 79.7476 -307.075 84.9148C-285.692 95.2694 -255.413 105.043 -221.29 111.854L-220.115 105.97C-253.889 99.2287 -283.654 89.5898 -304.46 79.5146C-314.884 74.4669 -322.902 69.3847 -328.05 64.6131C-333.346 59.7056 -334.884 55.8294 -334.33 53.0521L-340.214 51.8777ZM-219.765 39.8451C-251.153 34.4159 -279.841 32.6628 -301.196 34.3869C-311.851 35.2472 -320.859 36.9862 -327.505 39.6741C-334.011 42.3055 -339.081 46.2029 -340.214 51.8777L-334.33 53.0521C-333.811 50.4535 -331.237 47.656 -325.255 45.2364C-319.412 42.8733 -311.087 41.2051 -300.713 40.3675C-280.009 38.6959 -251.85 40.3844 -220.788 45.7573L-219.765 39.8451ZM-91.0298 18.0109C-120.32 12.1645 -148.31 11.694 -171.37 15.7212C-194.313 19.7281 -212.876 28.283 -222.653 40.97L-217.9 44.6325C-209.466 33.6878 -192.68 25.5336 -170.338 21.6318C-148.112 17.7503 -120.878 18.1715 -92.2043 23.8948L-91.0298 18.0109ZM-46.2208 31.3198C-59.8309 25.7834 -74.9323 21.224 -91.0298 18.0109L-92.2043 23.8948C-76.4638 27.0366 -61.7273 31.4894 -48.4815 36.8775L-46.2208 31.3198ZM74.6812 4.1184C24.5599 -5.8859 -23.2348 5.84356 -49.4683 31.9731L-45.234 36.2242C-20.8203 11.9072 24.7171 0.263836 73.5067 10.0023L74.6812 4.1184ZM182.344 88.8821C172.988 49.8782 130.201 15.2003 74.6812 4.1184L73.5067 10.0023C127.68 20.8155 167.894 54.3637 176.51 90.2816L182.344 88.8821ZM236.042 73.2633C214.976 69.0585 194.11 74.7455 177.62 87.187L181.234 91.9767C196.484 80.4708 215.63 75.3074 234.867 79.1472L236.042 73.2633ZM287.41 113.689C277.365 93.3025 259.091 77.864 236.042 73.2633L234.867 79.1472C255.909 83.3471 272.723 97.4556 282.028 116.341L287.41 113.689ZM396.95 68.4437C348.431 58.7593 301.65 78.0085 282.091 113.57L287.348 116.461C305.387 83.663 349.257 65.0424 395.775 74.3276L396.95 68.4437ZM485.675 170.928C490.876 124.128 452.034 79.4386 396.95 68.4437L395.775 74.3276C448.717 84.895 484.475 127.403 479.711 170.265L485.675 170.928ZM540.062 159.837C517.177 155.269 495.233 158.7 481.037 168.095L484.349 173.098C496.882 164.803 517.102 161.373 538.888 165.721L540.062 159.837ZM592.376 191.645C583.237 176.825 563.747 164.565 540.062 159.837L538.888 165.721C561.459 170.227 579.249 181.788 587.269 194.794L592.376 191.645ZM652.043 179.996C628.286 179.996 606.332 183.859 588.774 190.409L590.871 196.03C607.666 189.766 628.896 185.996 652.043 185.996V179.996ZM689.791 183.422C678.085 181.209 665.352 179.996 652.043 179.996V185.996C664.993 185.996 677.352 187.176 688.676 189.317L689.791 183.422ZM781.276 143.242C739.825 143.242 703.565 159.928 686.752 184.684L691.715 188.055C707.086 165.424 741.151 149.242 781.276 149.242V143.242ZM880.6 193.094C866.868 163.741 827.176 143.242 781.276 143.242V149.242C825.844 149.242 862.782 169.167 875.166 195.636L880.6 193.094ZM920.203 172.147C902.665 172.147 886.869 179.929 875.656 192.355L880.11 196.375C890.28 185.104 904.501 178.147 920.203 178.147V172.147ZM967.788 195.98C956.49 181.462 939.392 172.147 920.203 172.147V178.147C937.377 178.147 952.787 186.473 963.053 199.665L967.788 195.98ZM1047.06 143.242C1006.88 143.242 972.547 165.709 962.563 196.908L968.278 198.737C977.292 170.569 1008.86 149.242 1047.06 149.242V143.242ZM1134.23 210.13C1130.91 172.27 1092.66 143.242 1047.06 143.242V149.242C1090.55 149.242 1125.28 176.796 1128.25 210.654L1134.23 210.13ZM1175.04 192.407C1156.07 192.407 1139.05 198.547 1129.14 208.248L1133.34 212.536C1141.83 204.222 1157.17 198.407 1175.04 198.407V192.407ZM1219.43 206.853C1209.37 197.971 1193.1 192.407 1175.04 192.407V198.407C1192.03 198.407 1206.75 203.665 1215.46 211.351L1219.43 206.853ZM1220.45 205.467C1219.25 205.693 1218.05 205.924 1216.86 206.159L1218.03 212.045C1219.2 211.814 1220.38 211.587 1221.56 211.364L1220.45 205.467ZM1322.75 142.027C1295.85 146.299 1271.83 155.205 1253.49 166.713C1235.23 178.174 1222.24 192.451 1218.11 207.628L1223.9 209.203C1227.47 196.084 1239.04 182.865 1256.68 171.795C1274.25 160.773 1297.48 152.115 1323.69 147.953L1322.75 142.027ZM1365.35 139.607C1351.92 138.933 1337.54 139.679 1322.75 142.027L1323.69 147.953C1338.08 145.668 1352.05 144.947 1365.05 145.599L1365.35 139.607ZM1459.1 73.7365C1413 81.0577 1376.13 108.122 1362.43 141.462L1367.98 143.744C1380.72 112.757 1415.52 86.7331 1460.04 79.6622L1459.1 73.7365ZM1578.91 117.634C1558.11 84.0863 1510.18 65.6244 1459.1 73.7365L1460.04 79.6622C1509.47 71.8134 1554.63 89.8636 1573.81 120.796L1578.91 117.634ZM1619.13 85.0007C1599.64 88.0961 1583.69 100.508 1573.76 117.716L1578.96 120.714C1588.13 104.821 1602.63 93.6952 1620.07 90.9264L1619.13 85.0007ZM1676.45 105.97C1661.19 90.1465 1640.46 81.6131 1619.13 85.0007L1620.07 90.9264C1639.14 87.8983 1657.99 95.4654 1672.13 110.135L1676.45 105.97ZM1754.39 26.8447C1709.65 33.9488 1676.21 67.8208 1671.32 107.687L1677.27 108.419C1681.81 71.4549 1712.98 39.4952 1755.33 32.7705L1754.39 26.8447ZM1863.9 93.6504C1852.94 48.0967 1805.2 18.7746 1754.39 26.8447L1755.33 32.7705C1803.49 25.1224 1847.94 52.9546 1858.07 95.0538L1863.9 93.6504ZM1906.23 65.1163C1885.13 68.467 1867.5 79.0745 1858.48 92.6966L1863.49 96.0075C1871.37 84.0864 1887.34 74.1909 1907.17 71.0421L1906.23 65.1163ZM1973.62 98.4053C1971.67 86.1294 1962.77 76.4702 1950.6 70.6066C1938.41 64.7369 1922.66 62.5061 1906.23 65.1163L1907.17 71.0421C1922.55 68.5993 1937.03 70.736 1947.99 76.0125C1958.96 81.2951 1966.14 89.5606 1967.69 99.3463L1973.62 98.4053ZM1973.66 98.7102C1973.65 98.6074 1973.63 98.5064 1973.62 98.4087L1967.69 99.3429C1967.7 99.431 1967.72 99.5159 1967.73 99.5989L1973.66 98.7102ZM2001.77 111.966C1995.36 104.606 1984.53 99.3182 1971.38 96.2338L1970.01 102.075C1982.58 105.022 1992.01 109.894 1997.25 115.907L2001.77 111.966ZM2035.56 124.586C2034.65 118.834 2029.29 115.146 2023.1 113.096C2016.7 110.976 2008.32 110.196 1999.26 110.947L1999.76 116.926C2008.25 116.222 2015.78 116.993 2021.22 118.792C2026.87 120.663 2029.28 123.262 2029.64 125.527L2035.56 124.586ZM1998.89 150.059C2009.35 148.398 2018.67 145.007 2025.28 140.745C2028.58 138.616 2031.33 136.19 2033.18 133.534C2035.04 130.861 2036.07 127.796 2035.56 124.586L2029.64 125.527C2029.84 126.791 2029.5 128.315 2028.25 130.11C2026.99 131.922 2024.91 133.842 2022.03 135.702C2016.27 139.416 2007.78 142.571 1997.94 144.134L1998.89 150.059ZM1996.13 150.452C1997.04 150.337 1997.96 150.206 1998.89 150.059L1997.94 144.134C1997.08 144.27 1996.23 144.392 1995.38 144.5L1996.13 150.452ZM1927.09 181.068C1958.02 176.157 1984.31 164.046 1997.94 149.53L1993.57 145.422C1981.18 158.607 1956.36 170.346 1926.15 175.142L1927.09 181.068ZM1842.34 167.847C1850.35 174.677 1862.67 179.357 1877.25 181.659C1891.89 183.97 1909.08 183.929 1927.09 181.068L1926.15 175.142C1908.69 177.916 1892.13 177.934 1878.19 175.732C1864.18 173.52 1853.07 169.113 1846.23 163.281L1842.34 167.847ZM1782.52 204.027C1809.1 199.807 1831.65 186.161 1846.63 167.438L1841.94 163.69C1827.9 181.237 1806.69 194.114 1781.58 198.102L1782.52 204.027ZM1744.95 203.292C1756.9 205.718 1769.6 206.079 1782.52 204.027L1781.58 198.102C1769.37 200.04 1757.39 199.695 1746.14 197.412L1744.95 203.292ZM1639.42 252.221C1686.68 244.716 1726.6 225.54 1747.76 202.376L1743.33 198.329C1723.39 220.155 1684.92 238.919 1638.47 246.295L1639.42 252.221ZM1522.86 239.437C1550.26 254.117 1593.22 259.557 1639.42 252.221L1638.47 246.295C1593.09 253.502 1551.57 248.014 1525.69 234.149L1522.86 239.437ZM1487.24 250.919C1500.95 248.741 1513.83 244.824 1525.51 239.525L1523.03 234.061C1511.84 239.135 1499.49 242.899 1486.3 244.993L1487.24 250.919ZM1411.07 242.639C1432.99 251.923 1459.6 255.309 1487.24 250.919L1486.3 244.993C1459.7 249.218 1434.23 245.933 1413.41 237.114L1411.07 242.639ZM1342.8 268.237C1370.59 263.824 1395.31 254.461 1413.87 242.392L1410.6 237.362C1392.85 248.909 1368.94 258.01 1341.85 262.311L1342.8 268.237ZM1273.7 267.25C1293.83 271.598 1317.75 272.215 1342.8 268.237L1341.85 262.311C1317.45 266.186 1294.29 265.559 1274.97 261.385L1273.7 267.25ZM1263.81 269.819C1267.64 268.999 1271.39 268.135 1275.06 267.23L1273.62 261.405C1270.01 262.295 1266.32 263.145 1262.55 263.951L1263.81 269.819ZM1256.39 271.327C1259.07 270.937 1261.61 270.417 1263.96 269.781L1262.4 263.989C1260.3 264.557 1257.99 265.03 1255.53 265.389L1256.39 271.327ZM1242.91 273.704C1247.53 272.97 1252.08 272.167 1256.53 271.303L1255.39 265.413C1251 266.264 1246.52 267.055 1241.97 267.778L1242.91 273.704ZM1239.16 274.282C1240.4 274.096 1241.65 273.903 1242.91 273.704L1241.97 267.778C1240.73 267.975 1239.5 268.165 1238.27 268.348L1239.16 274.282ZM1177.19 287.611C1202.8 287.611 1225.78 282.321 1240.22 273.907L1237.2 268.723C1223.98 276.426 1202.16 281.611 1177.19 281.611V287.611ZM1104.48 266.491C1110.63 272.957 1120.86 278.2 1133.33 281.836C1145.87 285.492 1160.98 287.611 1177.19 287.611V281.611C1161.47 281.611 1146.94 279.554 1135.01 276.075C1123.01 272.576 1113.94 267.724 1108.82 262.353L1104.48 266.491ZM1047.06 287.611C1070.97 287.611 1092.72 279.684 1108.55 266.745L1104.75 262.099C1090.05 274.112 1069.67 281.611 1047.06 281.611V287.611ZM1014.16 282.325C1024.32 285.736 1035.43 287.611 1047.06 287.611V281.611C1036.08 281.611 1025.61 279.84 1016.06 276.637L1014.16 282.325ZM914.699 307.682C957.226 307.682 994.982 297.574 1016.86 281.921L1013.36 277.041C992.878 291.701 956.52 301.682 914.699 301.682V307.682ZM814.069 282.986C836.137 298.025 873.13 307.682 914.699 307.682V301.682C873.839 301.682 838.177 292.154 817.447 278.028L814.069 282.986ZM781.276 287.611C793.62 287.611 805.473 286.135 816.477 283.42L815.039 277.595C804.515 280.192 793.145 281.611 781.276 281.611V287.611ZM715.498 271.533C733.486 281.614 756.397 287.611 781.276 287.611V281.611C757.328 281.611 735.443 275.833 718.432 266.299L715.498 271.533ZM652.043 283.182C677.059 283.182 700.082 278.899 718.079 271.701L715.851 266.13C698.672 273.001 676.423 277.182 652.043 277.182V283.182ZM595.208 274.987C611.563 280.18 631.099 283.182 652.043 283.182V277.182C631.647 277.182 612.731 274.255 597.024 269.268L595.208 274.987ZM519.619 275.87C549.558 281.846 577.66 281.154 597.027 274.986L595.206 269.269C577.102 275.035 550.092 275.834 520.794 269.986L519.619 275.87ZM480.695 264.16C492.282 269.005 505.458 273.043 519.619 275.87L520.794 269.986C507 267.233 494.207 263.306 483.009 258.624L480.695 264.16ZM466.884 257.588C470.48 260.052 475.24 262.266 480.865 264.225L482.838 258.559C477.492 256.697 473.273 254.692 470.276 252.639L466.884 257.588ZM437.079 232.629C442.745 241.723 453.411 250.398 467.164 257.759L469.995 252.468C456.681 245.343 447.049 237.285 442.171 229.457L437.079 232.629ZM361.833 244.376C390.685 250.135 418.832 245.671 441.05 233.683L438.2 228.403C417.277 239.692 390.562 243.992 363.008 238.492L361.833 244.376Z" fill="black" mask="url(#path-1-outside-1_21_5295)"/>
<defs>
<filter id="filter0_i_21_5295" x="-340.443" y="0.569519" width="2376.14" height="307.113" filterUnits="userSpaceOnUse" color-interpolation-filters="sRGB">
<feFlood flood-opacity="0" result="BackgroundImageFix"/>
<feBlend mode="normal" in="SourceGraphic" in2="BackgroundImageFix" result="shape"/>
<feColorMatrix in="SourceAlpha" type="matrix" values="0 0 0 0 0 0 0 0 0 0 0 0 0 0 0 0 0 0 127 0" result="hardAlpha"/>
<feOffset dy="-13"/>
<feComposite in2="hardAlpha" operator="arithmetic" k2="-1" k3="1"/>
<feColorMatrix type="matrix" values="0 0 0 0 0.923333 0 0 0 0 0.923333 0 0 0 0 0.923333 0 0 0 1 0"/>
<feBlend mode="normal" in2="shape" result="effect1_innerShadow_21_5295"/>
</filter>
</defs>
</svg>
