<svg width="28" height="33" viewBox="0 0 28 33" fill="none" xmlns="http://www.w3.org/2000/svg">
<g clip-path="url(#clip0_21_5342)">
<path fill-rule="evenodd" clip-rule="evenodd" d="M16.7695 11.775C17.7527 11.2869 19.0038 10.5684 20.2564 9.58398C20.5205 10.13 20.5495 10.6065 20.4134 10.9912C20.317 11.2624 20.1353 11.4982 19.8963 11.6858C19.6376 11.8886 19.3144 12.0362 18.9572 12.116C18.2794 12.268 17.4881 12.1793 16.7695 11.775ZM16.9399 16.7762L18.2415 17.5247C15.5839 19.0075 14.8615 21.761 14.0032 24.443C13.1451 21.761 12.4226 19.0075 9.76511 17.5247L11.0667 16.7762C11.1926 16.7288 11.3002 16.643 11.3741 16.531C11.448 16.419 11.4844 16.2866 11.4781 16.1527C11.3589 13.641 12.0401 12.5303 12.9589 11.8329C13.2885 11.5831 13.6483 11.4577 14.0032 11.4577C14.3582 11.4577 14.718 11.5831 15.0477 11.8329C15.9665 12.5303 16.6477 13.641 16.5285 16.1527C16.5222 16.2866 16.5586 16.419 16.6325 16.531C16.7064 16.643 16.814 16.7288 16.9399 16.7762ZM14.0032 0.375977C15.5077 0.41619 17.016 0.706963 18.325 1.27262C19.2314 1.66483 20.0772 2.18291 20.843 2.80243C21.1889 3.08211 21.4737 3.3523 21.7874 3.66334C22.6335 3.69246 23.87 2.75667 24.4441 1.88104C23.4561 5.10558 18.9478 8.91347 15.8266 10.3705C15.8253 10.37 15.8245 10.3693 15.8235 10.3686C15.2634 9.9428 14.6334 9.7299 14.0032 9.7299C13.3731 9.7299 12.7432 9.9428 12.1831 10.3686C12.1821 10.3692 12.1813 10.3701 12.18 10.3705C9.05871 8.91347 4.55046 5.10558 3.5625 1.88104C4.13646 2.75667 5.373 3.69246 6.21911 3.66334C6.53293 3.3524 6.81771 3.08211 7.16346 2.80243C7.92932 2.18291 8.77511 1.66483 9.68154 1.27262C10.9906 0.706963 12.4989 0.41619 14.0032 0.375977ZM11.237 11.775C10.2539 11.2869 9.00268 10.5684 7.75018 9.58398C7.48607 10.13 7.45714 10.6065 7.59311 10.9912C7.68964 11.2624 7.87136 11.4982 8.11018 11.6858C8.36904 11.8886 8.69218 12.0362 9.04939 12.116C9.72718 12.268 10.5184 12.1793 11.237 11.775Z" fill="#403917"/>
<path fill-rule="evenodd" clip-rule="evenodd" d="M21.625 8.37729C22.3146 7.68449 22.9222 6.91767 23.4108 6.2334L23.6589 6.69836C24.4578 8.28951 24.8729 9.87425 24.8729 11.6577L24.8711 14.4878L24.8861 15.9549C24.944 19.5566 25.7268 23.2007 27.5 26.5355L23.79 23.5571L21.1649 27.7981L18.407 25.2134L14 32.3333L9.593 25.2136L6.83525 27.7982L4.21014 23.5572L0.5 26.5356C2.27321 23.2008 3.056 19.5567 3.11396 15.955L3.12896 14.4879L3.12725 11.6578C3.12725 9.87425 3.54221 8.28951 4.34129 6.69847L4.58932 6.23351C5.07789 6.91777 5.68539 7.68449 6.37507 8.3774L6.15971 8.82273C5.74132 9.68769 5.60279 10.6548 5.92871 11.5746C6.13882 12.1671 6.52229 12.6751 7.01664 13.0629C7.49664 13.4396 8.06471 13.6935 8.65946 13.8268C9.04689 13.9136 9.44161 13.9493 9.83375 13.9372C9.74225 14.4536 9.70229 14.9891 9.69971 15.5348L6.2 17.5472L8.90064 19.0543C9.1165 19.1748 9.32198 19.3128 9.515 19.467C11.7415 21.4572 13.0802 27.3449 14.0001 30.2207C14.9201 27.3449 16.2587 21.4572 18.4853 19.467C18.6783 19.3128 18.8838 19.1748 19.0997 19.0543L21.8003 17.5472L18.3005 15.5348C18.2979 14.9891 18.258 14.4536 18.1665 13.9372C18.5586 13.9493 18.9533 13.9136 19.3407 13.8268C19.9355 13.6935 20.5037 13.4396 20.9836 13.0629C21.4778 12.6751 21.8614 12.1671 22.0714 11.5746C22.3974 10.6548 22.2588 9.6878 21.8405 8.82273L21.6251 8.3774L21.625 8.37729Z" fill="#403917"/>
</g>
<defs>
<clipPath id="clip0_21_5342">
<rect width="27" height="32" fill="white" transform="translate(0.5 0.375977)"/>
</clipPath>
</defs>
</svg>
