<?xml version="1.0" encoding="UTF-8"?>
<!DOCTYPE svg PUBLIC "-//W3C//DTD SVG 1.1//EN" "http://www.w3.org/Graphics/SVG/1.1/DTD/svg11.dtd">
<svg xmlns="http://www.w3.org/2000/svg" version="1.1" width="27px" height="32px" style="shape-rendering:geometricPrecision; text-rendering:geometricPrecision; image-rendering:optimizeQuality; fill-rule:evenodd; clip-rule:evenodd" xmlns:xlink="http://www.w3.org/1999/xlink">
<g><path style="opacity:0.799" fill="#3f3916" d="M 26.5,5.5 C 26.5,8.16667 26.5,10.8333 26.5,13.5C 22.4389,19.0688 17.7723,24.2355 12.5,29C 1.65478,30.8099 -2.17855,26.3099 1,15.5C 5.34873,11.3184 9.5154,6.98507 13.5,2.5C 18.7091,0.510311 23.0424,1.51031 26.5,5.5 Z M 16.5,3.5 C 22.7649,3.36338 25.2649,6.36338 24,12.5C 22.3163,14.3513 20.4829,16.018 18.5,17.5C 15.4181,15.6281 12.7514,13.2948 10.5,10.5C 11.8334,7.50674 13.8334,5.17341 16.5,3.5 Z"/></g>
</svg>
