<svg width="26" height="31" viewBox="0 0 26 31" fill="none" xmlns="http://www.w3.org/2000/svg">
<g clip-path="url(#clip0_21_5339)">
<path fill-rule="evenodd" clip-rule="evenodd" d="M9.65881 2.08804C7.87965 3.01798 6.42405 3.80489 6.42436 3.8369C6.42516 3.9195 10.6944 6.08893 10.8459 6.08364C10.9149 6.08133 11.4149 5.85037 11.9571 5.57048L12.943 5.06166L14.0197 5.617L15.0964 6.17244L16.8597 5.37744C19.5166 4.17949 19.7926 4.04822 19.7493 4.00411C19.6919 3.9456 18.7389 3.43191 16.1534 2.06612C14.9039 1.40603 13.6911 0.758819 13.4583 0.627857C13.2255 0.496895 13.0032 0.391545 12.9644 0.393584C12.9256 0.395623 11.438 1.15813 9.65881 2.08804ZM1.85543 6.14257L0.00334138 7.10248V11.3153C0.00334138 13.6324 0.0276611 15.5281 0.0574923 15.5281C0.0872202 15.5281 0.998451 15.1318 2.0824 14.6474L4.05323 13.7666V9.326L5.0163 9.85248C5.75843 10.2578 6.50101 10.6623 7.24403 11.066L8.50866 11.753L9.07139 11.4977C9.42431 11.3373 9.77652 11.1754 10.128 11.0118C10.3996 10.8849 11.0664 10.5836 11.6097 10.3421C12.1529 10.1005 12.6558 9.85756 12.7271 9.80219C12.8219 9.72863 11.6668 9.08817 8.45482 7.43319C6.0337 6.18568 3.9751 5.16895 3.88016 5.17382C3.78523 5.1787 2.8741 5.61458 1.85543 6.14257ZM20.0831 6.41214C18.8217 6.98351 17.7888 7.47383 17.7876 7.5018C17.7865 7.52972 18.474 7.93989 19.3155 8.41314C20.1569 8.88649 20.8453 9.29908 20.8453 9.33015C20.8453 9.36115 20.1008 9.72314 19.1908 10.1347C18.2808 10.5462 15.9806 11.5885 14.0791 12.451L7.70797 15.3406C6.10531 16.0675 4.6607 16.7227 4.49773 16.7968C1.22422 18.2837 0.324458 18.6963 0.200896 18.7671C0.0766449 18.8384 0.0485016 19.2527 0.0263865 21.3318L0 23.8115L1.65622 24.6583L3.31241 25.505L5.60896 24.465C6.87211 23.8931 7.90552 23.3952 7.90552 23.3585C7.90552 23.3219 7.67211 23.1693 7.38695 23.0193C7.10166 22.8692 6.51275 22.537 6.07813 22.2808C5.64355 22.0247 5.2102 21.7897 5.11506 21.7585C5.01995 21.7274 4.94351 21.6731 4.94506 21.6376C4.94665 21.6023 5.95795 21.1203 7.19226 20.5664C9.58968 19.4909 11.4244 18.662 15.3632 16.8747C17.1245 16.0757 18.886 15.2772 20.6478 14.4791C22.1961 13.7779 23.9963 12.9589 24.6483 12.6592L25.8336 12.1142L25.8599 9.60621L25.8864 7.09833L24.2066 6.2332C23.2827 5.75743 22.4929 5.36931 22.4515 5.37073C22.4102 5.37205 21.3444 5.84063 20.0831 6.41214ZM25.3835 15.46C25.136 15.5813 24.6471 15.8084 24.297 15.9647C23.9469 16.121 23.2827 16.4217 22.8209 16.6331L21.9813 17.0174L21.9621 19.2192C21.9515 20.4301 21.9071 21.4155 21.8633 21.4091C21.764 21.3943 20.1903 20.5845 18.6085 19.734C17.4669 19.1203 17.3951 19.0959 17.1269 19.2292C16.9718 19.3063 16.0448 19.7235 15.0669 20.1564C14.089 20.5892 13.257 20.9716 13.2179 21.0063C13.1788 21.0408 15.147 22.1112 17.5916 23.3849L22.0363 25.7008L23.935 24.7153C24.9792 24.1733 25.8671 23.6789 25.908 23.6168C26 23.477 25.9921 15.2202 25.9 15.2314C25.8635 15.2357 25.6311 15.3386 25.3835 15.46ZM14.8693 25.1513C14.54 25.2934 14.2107 25.4357 13.8816 25.5782C12.8875 26.0097 13.0823 26.024 11.8998 25.4333C11.1121 25.0399 10.7726 24.9185 10.6253 24.9774C10.5147 25.0216 9.5634 25.451 8.51103 25.9317C7.45874 26.4124 6.56126 26.8057 6.51661 26.8057C6.0751 26.8057 6.8091 27.2457 9.64145 28.6793L12.9631 30.3603L14.3607 29.668C15.1294 29.2872 16.6798 28.5247 17.8062 27.9736C18.9324 27.4223 19.84 26.9569 19.823 26.9394C19.8059 26.9219 18.8622 26.4357 17.7258 25.8589L15.6595 24.8103L14.8693 25.1513Z" fill="#403917"/>
</g>
<defs>
<clipPath id="clip0_21_5339">
<rect width="26" height="30" fill="white" transform="translate(0 0.375977)"/>
</clipPath>
</defs>
</svg>
