<?xml version="1.0" encoding="UTF-8"?>
<svg version="1.1" xmlns="http://www.w3.org/2000/svg" width="27" height="32">
<path d="M0 0 C1.94140625 0.33984375 1.94140625 0.33984375 4.44140625 1.83984375 C6.11956496 4.63677494 6.68989367 6.85551401 6.51953125 10.12890625 C5.32247791 14.70682645 2.05697819 17.91210252 -1.05859375 21.33984375 C-1.62191406 22.04109375 -2.18523438 22.74234375 -2.765625 23.46484375 C-5.11239997 26.19083996 -6.82149464 28.05642807 -10.39453125 28.875 C-16.02005873 29.08436429 -16.02005873 29.08436429 -18.76953125 27.11328125 C-21.02193204 24.0145238 -20.94748166 21.143206 -20.8828125 17.40234375 C-19.22286205 11.23456579 -13.74921636 7.35843794 -9.05859375 3.33984375 C-8.5275 2.75074219 -7.99640625 2.16164062 -7.44921875 1.5546875 C-5.23390958 -0.38059664 -2.81606393 -0.12965304 0 0 Z M-9.05859375 6.33984375 C-9.38859375 7.65984375 -9.71859375 8.97984375 -10.05859375 10.33984375 C-7.74859375 12.31984375 -5.43859375 14.29984375 -3.05859375 16.33984375 C1.09420214 14.47451778 1.09420214 14.47451778 3.94140625 11.33984375 C3.9422316 7.76227689 3.9422316 7.76227689 2.94140625 4.33984375 C-2.23436505 0.88932955 -4.91336452 2.30664774 -9.05859375 6.33984375 Z " fill="#403917" transform="translate(21.05859375,1.66015625)"/>
</svg>
