<svg width="148" height="136" viewBox="0 0 148 136" fill="none" xmlns="http://www.w3.org/2000/svg">
<path d="M56.9866 25.5788L74.6355 36.9025L75.5365 37.4807L76.3762 36.8164L95.0796 22.0199L98.1383 41.0531L98.3628 42.4505L99.771 42.3074L122.852 39.9614L110.569 57.8616L109.685 59.1502L111.009 59.9808L128.086 70.6955L105.75 79.5579L104.618 80.007L104.825 81.2069L108.151 100.51L86.0056 95.6683L85.0102 95.4507L84.441 96.2958L71.7782 115.098L60.8448 98.8459L60.1652 97.8356L59.0367 98.2931L36.7668 107.321L41.7076 87.7754L42.0906 86.2602L40.561 85.9397L19.3135 81.4875L37.6187 67.2348L38.7355 66.3653L37.9322 65.2L26.9914 49.3281L50.7358 47.1001L51.8017 47L52.0535 45.9595L56.9866 25.5788Z" fill="#FFE76C" stroke="#403917" stroke-width="3"/>
<path d="M70.0187 72.4931C70.8586 71.9804 71.678 71.9308 72.5687 72.4652C75.1205 74.3118 72.7645 76.7067 70.8721 77.7029C69.4262 78.4463 67.8286 79.1905 66.2371 79.6539C58.1587 82.0623 54.8167 75.4913 55.9132 68.6324C56.5976 64.3713 58.8462 60.2389 62.1294 58.1125C63.9602 56.9345 66.6473 57.0121 67.069 59.378C67.2345 60.6142 66.6177 61.7102 65.3972 61.9972C63.5326 62.4771 62.3501 64.2969 61.6142 65.864C59.3464 70.6872 59.3505 77.5785 66.991 74.1021C68.0435 73.6187 69.0579 73.0975 70.0187 72.4931ZM84.9938 67.4432C83.2621 68.689 81.5758 69.9194 79.8818 71.127C79.2391 71.6236 79.6181 73.0409 79.6743 73.6554C79.8858 74.9521 79.1468 75.9121 77.8732 76.1917C76.645 76.4559 75.5336 75.7936 75.163 74.5508C75.0317 74.0885 75.0063 73.5649 75.0114 73.0564C74.9352 71.4857 74.9122 69.9224 74.9119 68.3514C74.9118 63.79 75.1871 59.6675 76.0021 55.7169C76.2172 54.7064 76.4931 53.726 76.8841 53.0106C78.0196 50.9026 80.4012 50.6022 81.8751 52.4087C82.6921 53.3989 83.3053 54.6101 83.8577 55.7913C85.6909 59.6301 87.9893 65.4397 91.5511 67.4255C92.3351 67.8694 92.6282 68.809 92.3897 69.6754C92.1512 70.5418 91.282 71.2672 90.3485 71.2795C88.0263 71.3063 86.2312 69.0005 84.9938 67.4432ZM80.064 59.0283C79.719 61.3752 79.586 63.5996 79.5377 66.0741C80.6492 65.2413 81.5488 64.5309 82.5088 63.7747C81.6052 62.1551 81.1333 60.3891 80.064 59.0283Z" fill="#403917"/>
</svg>
