<svg width="36" height="37" viewBox="0 0 36 37" fill="none" xmlns="http://www.w3.org/2000/svg">
<path d="M29.3407 7.6316C29.3407 7.6316 31.8702 6.68472 31.6594 8.98428C31.5891 9.93116 30.9568 13.2452 30.4649 16.8298L28.7786 27.4484C28.7786 27.4484 28.6381 29.004 27.3733 29.2745C26.1085 29.545 24.2115 28.3277 23.8601 28.0571C23.579 27.8542 18.5904 24.8107 16.8337 23.3227C16.3419 22.9169 15.7798 22.1053 16.904 21.1584L24.2817 14.395C25.1249 13.5834 25.968 11.6897 22.4548 13.9892L12.6179 20.4145C12.6179 20.4145 11.4937 21.0908 9.38581 20.4821L4.81863 19.1294C4.81863 19.1294 3.1323 18.1149 6.01312 17.1003C13.0395 13.9215 21.682 10.6751 29.3407 7.6316Z" fill="#403917"/>
</svg>
